<svg version="1.1" id="Layer_1" xmlns="http://www.w3.org/2000/svg" xmlns:xlink="http://www.w3.org/1999/xlink" x="0px" y="0px"
	 width="100%" viewBox="0 0 252 88" enable-background="new 0 0 252 88" xml:space="preserve">
<path fill="#FEFEFE" opacity="1.000000" stroke="none" 
	d="
M164.000000,89.000000 
	C109.333344,89.000000 55.166679,89.000000 1.000015,89.000000 
	C1.000010,59.666676 1.000010,30.333353 1.000005,1.000022 
	C84.999977,1.000015 168.999954,1.000015 252.999954,1.000008 
	C252.999969,30.333311 252.999969,59.666622 252.999985,88.999969 
	C223.500000,89.000000 194.000000,89.000000 164.000000,89.000000 
M25.511442,59.543720 
	C33.698479,62.967106 41.858814,62.310352 45.889214,57.296864 
	C38.827984,58.906231 32.249447,60.684929 26.124130,56.362091 
	C27.173210,54.860634 28.227751,53.362957 29.270226,51.856930 
	C31.355465,48.844456 35.711033,45.163235 35.063694,42.944042 
	C33.488308,37.543301 38.159801,36.025135 39.112183,32.482021 
	C46.879959,35.767712 43.806183,43.936775 47.025261,49.285793 
	C49.767273,43.337414 47.499981,30.658390 42.868969,26.879702 
	C42.250595,26.375137 40.027397,26.864704 39.316231,27.618895 
	C36.580654,30.519955 34.150829,33.710190 31.619810,36.803085 
	C27.168634,42.242405 27.172581,42.245636 21.838839,38.090725 
	C19.750973,40.301689 17.644144,42.532730 15.537316,44.763771 
	C15.051354,44.641525 14.565392,44.519276 14.079430,44.397026 
	C14.332528,40.013428 14.585627,35.629826 15.221864,30.787624 
	C23.396044,12.336572 47.147503,13.331622 54.369110,29.637913 
	C54.710217,30.408131 54.830605,31.276096 55.053787,32.098541 
	C56.258076,24.080393 48.065144,16.711399 38.651512,15.065125 
	C27.757647,13.159986 16.808058,19.997683 12.802794,31.787872 
	C9.730282,43.575817 14.398212,53.999836 25.511442,59.543720 
M96.928047,53.919788 
	C97.586243,56.675999 94.943863,62.012291 101.979095,60.255985 
	C101.815002,57.200832 102.153076,54.259930 101.387329,51.641880 
	C100.487350,48.564903 100.225914,46.124779 101.699814,42.964844 
	C103.653969,38.775295 100.917389,34.481411 96.317078,33.704094 
	C93.126053,33.164909 89.817017,33.324169 86.347473,33.161362 
	C86.347473,42.664742 86.347473,51.525162 86.347473,60.832466 
	C88.082741,60.634060 89.433136,60.479660 91.060516,60.293594 
	C91.060516,56.355717 91.060516,52.902439 91.060516,49.481056 
	C94.722038,48.382603 96.384277,49.844749 96.928047,53.919788 
M61.985226,60.601398 
	C63.241680,60.601398 64.498138,60.601398 66.306129,60.601398 
	C64.309929,51.983345 62.576855,43.917774 60.449650,35.957527 
	C60.136753,34.786617 57.956421,33.418182 56.635246,33.413120 
	C55.365196,33.408253 53.258110,34.835629 52.949249,36.009903 
	C50.852997,43.979839 49.135567,52.049416 47.295742,60.086796 
	C47.671978,60.521008 48.048218,60.955219 48.424458,61.389435 
	C49.871307,60.294056 52.457802,59.302052 52.568153,58.085445 
	C53.051517,52.756413 56.137596,53.579834 59.432808,54.218643 
	C60.125332,56.376350 60.728947,58.257042 61.985226,60.601398 
M83.710495,53.392838 
	C83.693222,49.012672 81.198395,46.419815 77.510399,44.585678 
	C76.043274,43.856041 74.206474,43.124641 73.491394,41.856449 
	C72.886009,40.782795 73.655106,38.934135 73.815933,37.428448 
	C75.072060,37.818466 76.399811,38.062344 77.566826,38.634212 
	C79.150604,39.410297 80.611343,40.437458 83.028145,41.905685 
	C82.787415,35.641731 80.435257,33.336754 76.186760,33.004189 
	C72.612572,32.724407 69.435089,33.703114 68.154579,37.431145 
	C66.757416,41.498764 67.724243,44.964931 71.666321,47.247368 
	C73.384682,48.242290 75.752022,48.864403 76.630463,50.358109 
	C77.567513,51.951458 77.094307,54.374184 77.236755,56.434837 
	C75.587105,55.902863 73.910889,55.440033 72.295250,54.819508 
	C70.675041,54.197235 69.115242,53.417656 66.792351,52.377033 
	C67.449875,58.259731 69.791664,60.702953 74.315399,60.966911 
	C79.675941,61.279709 81.915581,59.643291 83.710495,53.392838 
M104.209244,42.118488 
	C104.428757,46.568150 104.143501,51.118366 105.004509,55.440228 
	C105.933937,60.105564 109.762703,61.577827 114.225861,60.876671 
	C118.642166,60.182873 120.511192,57.286278 120.664406,51.248516 
	C118.214279,52.915035 116.736504,53.905899 115.274704,54.919800 
	C114.388802,55.534248 113.315491,56.860638 112.702415,56.668339 
	C111.642029,56.335739 110.156761,55.112202 110.103851,54.190407 
	C109.831688,49.449463 109.819176,44.678333 110.065460,39.935894 
	C110.114296,38.995548 111.558739,37.735531 112.613075,37.384724 
	C113.258972,37.169819 114.900391,38.210991 115.208549,39.023991 
	C116.404633,42.179508 118.307098,41.772171 120.549515,40.795902 
	C121.092384,34.444183 114.823250,32.033577 110.747581,33.159443 
	C106.709778,34.274849 105.151634,37.520962 104.209244,42.118488 
M159.526794,59.779453 
	C166.340393,62.461239 171.571991,60.224781 173.342163,53.504452 
	C174.089172,50.668468 174.297073,47.592033 174.185120,44.646362 
	C173.821625,35.081467 169.464142,31.812160 159.793411,33.605782 
	C159.652313,34.034214 159.367905,34.497860 159.366196,34.962559 
	C159.336639,42.949734 159.341965,50.937038 159.526794,59.779453 
M206.100647,39.625408 
	C204.750305,33.431072 202.032013,32.156326 193.020737,33.491562 
	C191.270676,42.101063 192.140640,58.523762 195.078796,60.913391 
	C195.078796,56.361076 195.078796,52.308208 195.078796,48.328079 
	C202.642075,47.629372 202.998093,48.012527 203.225739,55.023609 
	C203.287506,56.925774 203.874268,58.810894 204.220062,60.703838 
	C204.684067,60.592865 205.148056,60.481888 205.612045,60.370911 
	C207.687805,53.784016 202.562027,46.998165 206.100647,39.625408 
M209.888962,53.143223 
	C209.299500,55.566059 208.710022,57.988895 208.120560,60.411736 
	C208.750778,60.556801 209.380997,60.701866 210.011215,60.846931 
	C210.617661,59.051361 211.547287,57.292912 211.758713,55.451973 
	C212.123627,52.274658 213.699142,51.389019 216.731613,51.389599 
	C219.972549,51.390221 220.439911,53.373177 221.012238,55.762150 
	C221.444168,57.565071 222.258408,59.276398 222.902496,61.028488 
	C223.543549,60.808453 224.184601,60.588413 224.825653,60.368378 
	C222.547928,51.692509 220.297043,43.009296 217.928833,34.358200 
	C217.779678,33.813385 216.400192,33.028622 216.134048,33.199253 
	C215.288956,33.741009 214.311584,34.581276 214.075745,35.486103 
	C212.618927,41.075378 211.351395,46.714001 209.888962,53.143223 
M147.049591,53.448151 
	C147.049591,51.497803 147.049591,49.547451 147.049591,47.414169 
	C150.432022,47.134392 153.321091,46.895424 156.210159,46.656452 
	C156.195633,46.164577 156.181107,45.672703 156.166580,45.180824 
	C153.193954,44.986515 150.221344,44.792210 147.365570,44.605537 
	C147.365570,41.473766 147.365570,38.878262 147.365570,36.218826 
	C150.688980,35.861290 153.707794,35.536522 156.726608,35.211754 
	C156.680984,34.671196 156.635345,34.130642 156.589722,33.590088 
	C152.562836,33.590088 148.535965,33.590088 144.559692,33.590088 
	C144.559692,42.761501 144.559692,51.639347 144.559692,61.064163 
	C148.952225,60.823910 152.873566,60.609425 156.794907,60.394943 
	C156.762711,59.745708 156.730515,59.096470 156.698318,58.447231 
	C154.651825,58.357170 152.589813,58.066925 150.562515,58.224201 
	C147.559708,58.457157 146.729050,57.023380 147.049591,53.448151 
M186.194427,33.004082 
	C183.437347,33.004082 180.680252,33.004082 177.881302,33.004082 
	C177.881302,42.594437 177.881302,51.487293 177.881302,60.173370 
	C182.185242,60.173370 186.081345,60.173370 189.977448,60.173370 
	C189.987137,59.680210 189.996841,59.187050 190.006531,58.693890 
	C186.887634,58.421623 183.768738,58.149353 180.361954,57.851955 
	C180.361954,54.297318 180.361954,50.915741 180.361954,47.389427 
	C183.377960,47.122604 186.118210,46.880173 188.858444,46.637745 
	C188.842194,46.188206 188.825928,45.738667 188.809662,45.289127 
	C185.997391,45.042488 183.185104,44.795849 180.328064,44.545280 
	C180.328064,41.578991 180.328064,38.988918 180.328064,36.188145 
	C183.658356,35.854832 186.759811,35.544422 189.861282,35.234009 
	C189.885422,34.791103 189.909546,34.348194 189.933685,33.905285 
	C188.981537,33.605984 188.029373,33.306683 186.194427,33.004082 
M140.593094,46.940025 
	C140.225555,46.301338 139.904343,45.148701 139.482681,45.110710 
	C137.377319,44.921024 135.245590,45.023960 133.245102,45.023960 
	C131.533890,36.419563 131.642517,36.288715 139.085968,35.693592 
	C140.077362,35.614326 141.036133,35.127213 142.010010,34.828976 
	C141.970490,34.445728 141.930984,34.062481 141.891464,33.679234 
	C138.020935,33.679234 134.150406,33.679234 130.479752,33.679234 
	C130.479752,42.697308 130.479752,51.624424 130.479752,60.551537 
	C131.022888,60.586853 131.566025,60.622166 132.109177,60.657482 
	C132.346451,56.253178 132.583740,51.848873 132.841171,47.070644 
	C135.513657,47.070644 137.651566,47.070644 140.593094,46.940025 
M229.593109,43.539799 
	C229.432648,40.103996 229.272186,36.668194 229.111725,33.232391 
	C228.517746,33.252495 227.923782,33.272594 227.329803,33.292698 
	C227.329803,42.361919 227.329803,51.431137 227.329803,60.102921 
	C231.468704,60.102921 235.165527,60.102921 239.847519,60.102921 
	C238.492859,58.959923 238.175156,58.470345 237.775711,58.390694 
	C235.140762,57.865280 231.318832,58.302860 230.145630,56.734554 
	C228.765015,54.888958 229.664093,51.329361 229.598557,48.512444 
	C229.567642,47.183922 229.592606,45.854107 229.593109,43.539799 
z"/>
<path fill="#5B90A6" opacity="1.000000" stroke="none" 
	d="
M14.838726,31.246227 
	C14.585627,35.629826 14.332528,40.013428 14.079430,44.397026 
	C14.565392,44.519276 15.051354,44.641525 15.537316,44.763771 
	C17.644144,42.532730 19.750973,40.301689 21.838839,38.090725 
	C27.172581,42.245636 27.168634,42.242405 31.619810,36.803085 
	C34.150829,33.710190 36.580654,30.519955 39.316231,27.618895 
	C40.027397,26.864704 42.250595,26.375137 42.868969,26.879702 
	C47.499981,30.658390 49.767273,43.337414 47.025261,49.285793 
	C43.806183,43.936775 46.879959,35.767712 39.112183,32.482021 
	C38.159801,36.025135 33.488308,37.543301 35.063694,42.944042 
	C35.711033,45.163235 31.355465,48.844456 29.270226,51.856930 
	C28.227751,53.362957 27.173210,54.860634 25.794403,56.865776 
	C25.308817,57.919357 25.152960,58.469246 24.997101,59.019138 
	C14.398212,53.999836 9.730282,43.575817 13.388765,31.455221 
	C14.262733,31.163790 14.550729,31.205008 14.838726,31.246227 
M18.947718,48.503677 
	C16.742039,53.002468 20.815355,53.381989 22.775761,55.147663 
	C23.294113,54.959072 23.812466,54.770485 24.330818,54.581898 
	C23.536612,51.772541 22.742403,48.963184 21.733622,45.394810 
	C20.487822,46.780827 19.960491,47.367512 18.947718,48.503677 
z"/>
<path fill="#5B90A6" opacity="1.000000" stroke="none" 
	d="
M96.912697,53.490074 
	C96.384277,49.844749 94.722038,48.382603 91.060516,49.481056 
	C91.060516,52.902439 91.060516,56.355717 91.060516,60.293594 
	C89.433136,60.479660 88.082741,60.634060 86.347473,60.832466 
	C86.347473,51.525162 86.347473,42.664742 86.347473,33.161362 
	C89.817017,33.324169 93.126053,33.164909 96.317078,33.704094 
	C100.917389,34.481411 103.653969,38.775295 101.699814,42.964844 
	C100.225914,46.124779 100.487350,48.564903 101.387329,51.641880 
	C102.153076,54.259930 101.815002,57.200832 101.979095,60.255985 
	C94.943863,62.012291 97.586243,56.675999 96.912697,53.490074 
M91.622108,44.746212 
	C94.568153,45.199478 97.147408,44.939438 97.051514,41.078766 
	C96.954697,37.180622 94.215034,37.383423 91.089066,37.573868 
	C91.089066,39.878468 91.089066,41.979965 91.622108,44.746212 
z"/>
<path fill="#5B90A6" opacity="1.000000" stroke="none" 
	d="
M61.658894,60.369564 
	C60.728947,58.257042 60.125332,56.376350 59.432808,54.218643 
	C56.137596,53.579834 53.051517,52.756413 52.568153,58.085445 
	C52.457802,59.302052 49.871307,60.294056 48.424458,61.389435 
	C48.048218,60.955219 47.671978,60.521008 47.295742,60.086796 
	C49.135567,52.049416 50.852997,43.979839 52.949249,36.009903 
	C53.258110,34.835629 55.365196,33.408253 56.635246,33.413120 
	C57.956421,33.418182 60.136753,34.786617 60.449650,35.957527 
	C62.576855,43.917774 64.309929,51.983345 66.306129,60.601398 
	C64.498138,60.601398 63.241680,60.601398 61.658894,60.369564 
M58.064880,45.390415 
	C57.777130,44.046310 57.489376,42.702202 57.201626,41.358097 
	C55.806946,43.022594 55.212990,44.655159 54.997936,46.336193 
	C54.868256,47.349854 55.115788,48.560551 55.619774,49.438072 
	C55.841785,49.824638 57.788944,49.760357 57.819191,49.632519 
	C58.084225,48.512455 58.092953,47.331738 58.064880,45.390415 
z"/>
<path fill="#598EA5" opacity="1.000000" stroke="none" 
	d="
M83.662735,53.773575 
	C81.915581,59.643291 79.675941,61.279709 74.315399,60.966911 
	C69.791664,60.702953 67.449875,58.259731 66.792351,52.377033 
	C69.115242,53.417656 70.675041,54.197235 72.295250,54.819508 
	C73.910889,55.440033 75.587105,55.902863 77.236755,56.434837 
	C77.094307,54.374184 77.567513,51.951458 76.630463,50.358109 
	C75.752022,48.864403 73.384682,48.242290 71.666321,47.247368 
	C67.724243,44.964931 66.757416,41.498764 68.154579,37.431145 
	C69.435089,33.703114 72.612572,32.724407 76.186760,33.004189 
	C80.435257,33.336754 82.787415,35.641731 83.028145,41.905685 
	C80.611343,40.437458 79.150604,39.410297 77.566826,38.634212 
	C76.399811,38.062344 75.072060,37.818466 73.815933,37.428448 
	C73.655106,38.934135 72.886009,40.782795 73.491394,41.856449 
	C74.206474,43.124641 76.043274,43.856041 77.510399,44.585678 
	C81.198395,46.419815 83.693222,49.012672 83.662735,53.773575 
z"/>
<path fill="#588EA5" opacity="1.000000" stroke="none" 
	d="
M104.273468,41.695702 
	C105.151634,37.520962 106.709778,34.274849 110.747581,33.159443 
	C114.823250,32.033577 121.092384,34.444183 120.549515,40.795902 
	C118.307098,41.772171 116.404633,42.179508 115.208549,39.023991 
	C114.900391,38.210991 113.258972,37.169819 112.613075,37.384724 
	C111.558739,37.735531 110.114296,38.995548 110.065460,39.935894 
	C109.819176,44.678333 109.831688,49.449463 110.103851,54.190407 
	C110.156761,55.112202 111.642029,56.335739 112.702415,56.668339 
	C113.315491,56.860638 114.388802,55.534248 115.274704,54.919800 
	C116.736504,53.905899 118.214279,52.915035 120.664406,51.248516 
	C120.511192,57.286278 118.642166,60.182873 114.225861,60.876671 
	C109.762703,61.577827 105.933937,60.105564 105.004509,55.440228 
	C104.143501,51.118366 104.428757,46.568150 104.273468,41.695702 
z"/>
<path fill="#E9B457" opacity="1.000000" stroke="none" 
	d="
M159.433228,59.351883 
	C159.341965,50.937038 159.336639,42.949734 159.366196,34.962559 
	C159.367905,34.497860 159.652313,34.034214 159.793411,33.605782 
	C169.464142,31.812160 173.821625,35.081467 174.185120,44.646362 
	C174.297073,47.592033 174.089172,50.668468 173.342163,53.504452 
	C171.571991,60.224781 166.340393,62.461239 159.433228,59.351883 
M163.472672,35.786797 
	C163.021545,36.210487 162.182312,36.629589 162.177246,37.058556 
	C162.095276,43.992115 162.119308,50.926929 162.119308,57.799915 
	C168.350311,58.480762 170.374084,57.166489 171.018082,51.692520 
	C171.398941,48.455193 171.253036,45.133263 171.097290,41.861118 
	C170.899185,37.699043 168.721237,35.451080 163.472672,35.786797 
z"/>
<path fill="#E8B254" opacity="1.000000" stroke="none" 
	d="
M206.102951,40.038609 
	C202.562027,46.998165 207.687805,53.784016 205.612045,60.370911 
	C205.148056,60.481888 204.684067,60.592865 204.220062,60.703838 
	C203.874268,58.810894 203.287506,56.925774 203.225739,55.023609 
	C202.998093,48.012527 202.642075,47.629372 195.078796,48.328079 
	C195.078796,52.308208 195.078796,56.361076 195.078796,60.913391 
	C192.140640,58.523762 191.270676,42.101063 193.020737,33.491562 
	C202.032013,32.156326 204.750305,33.431072 206.102951,40.038609 
M202.554001,36.866638 
	C200.229675,36.221581 197.905350,35.576527 195.307495,34.855560 
	C195.307495,39.125496 195.307495,42.206188 195.307495,45.240791 
	C202.282501,46.245731 204.512161,43.906067 202.554001,36.866638 
z"/>
<path fill="#E9B356" opacity="1.000000" stroke="none" 
	d="
M209.954956,52.739723 
	C211.351395,46.714001 212.618927,41.075378 214.075745,35.486103 
	C214.311584,34.581276 215.288956,33.741009 216.134048,33.199253 
	C216.400192,33.028622 217.779678,33.813385 217.928833,34.358200 
	C220.297043,43.009296 222.547928,51.692509 224.825653,60.368378 
	C224.184601,60.588413 223.543549,60.808453 222.902496,61.028488 
	C222.258408,59.276398 221.444168,57.565071 221.012238,55.762150 
	C220.439911,53.373177 219.972549,51.390221 216.731613,51.389599 
	C213.699142,51.389019 212.123627,52.274658 211.758713,55.451973 
	C211.547287,57.292912 210.617661,59.051361 210.011215,60.846931 
	C209.380997,60.701866 208.750778,60.556801 208.120560,60.411736 
	C208.710022,57.988895 209.299500,55.566059 209.954956,52.739723 
M215.634933,37.671299 
	C214.937927,41.272312 214.240906,44.873325 213.426193,49.082394 
	C215.917618,48.892288 217.412338,48.778236 219.411148,48.625721 
	C218.273361,44.526951 217.314316,41.072098 215.634933,37.671299 
z"/>
<path fill="#EBBB67" opacity="1.000000" stroke="none" 
	d="
M147.050140,53.914127 
	C146.729050,57.023380 147.559708,58.457157 150.562515,58.224201 
	C152.589813,58.066925 154.651825,58.357170 156.698318,58.447231 
	C156.730515,59.096470 156.762711,59.745708 156.794907,60.394943 
	C152.873566,60.609425 148.952225,60.823910 144.559692,61.064163 
	C144.559692,51.639347 144.559692,42.761501 144.559692,33.590088 
	C148.535965,33.590088 152.562836,33.590088 156.589722,33.590088 
	C156.635345,34.130642 156.680984,34.671196 156.726608,35.211754 
	C153.707794,35.536522 150.688980,35.861290 147.365570,36.218826 
	C147.365570,38.878262 147.365570,41.473766 147.365570,44.605537 
	C150.221344,44.792210 153.193954,44.986515 156.166580,45.180824 
	C156.181107,45.672703 156.195633,46.164577 156.210159,46.656452 
	C153.321091,46.895424 150.432022,47.134392 147.049591,47.414169 
	C147.049591,49.547451 147.049591,51.497803 147.050140,53.914127 
z"/>
<path fill="#EAB75E" opacity="1.000000" stroke="none" 
	d="
M186.635818,33.005733 
	C188.029373,33.306683 188.981537,33.605984 189.933685,33.905285 
	C189.909546,34.348194 189.885422,34.791103 189.861282,35.234009 
	C186.759811,35.544422 183.658356,35.854832 180.328064,36.188145 
	C180.328064,38.988918 180.328064,41.578991 180.328064,44.545280 
	C183.185104,44.795849 185.997391,45.042488 188.809662,45.289127 
	C188.825928,45.738667 188.842194,46.188206 188.858444,46.637745 
	C186.118210,46.880173 183.377960,47.122604 180.361954,47.389427 
	C180.361954,50.915741 180.361954,54.297318 180.361954,57.851955 
	C183.768738,58.149353 186.887634,58.421623 190.006531,58.693890 
	C189.996841,59.187050 189.987137,59.680210 189.977448,60.173370 
	C186.081345,60.173370 182.185242,60.173370 177.881302,60.173370 
	C177.881302,51.487293 177.881302,42.594437 177.881302,33.004082 
	C180.680252,33.004082 183.437347,33.004082 186.635818,33.005733 
z"/>
<path fill="#6798AC" opacity="1.000000" stroke="none" 
	d="
M15.030294,31.016926 
	C14.550729,31.205008 14.262733,31.163790 13.541677,31.069241 
	C16.808058,19.997683 27.757647,13.159986 38.651512,15.065125 
	C48.065144,16.711399 56.258076,24.080393 55.053787,32.098541 
	C54.830605,31.276096 54.710217,30.408131 54.369110,29.637913 
	C47.147503,13.331622 23.396044,12.336572 15.030294,31.016926 
z"/>
<path fill="#E8B151" opacity="1.000000" stroke="none" 
	d="
M140.191284,47.005333 
	C137.651566,47.070644 135.513657,47.070644 132.841171,47.070644 
	C132.583740,51.848873 132.346451,56.253178 132.109177,60.657482 
	C131.566025,60.622166 131.022888,60.586853 130.479752,60.551537 
	C130.479752,51.624424 130.479752,42.697308 130.479752,33.679234 
	C134.150406,33.679234 138.020935,33.679234 141.891464,33.679234 
	C141.930984,34.062481 141.970490,34.445728 142.010010,34.828976 
	C141.036133,35.127213 140.077362,35.614326 139.085968,35.693592 
	C131.642517,36.288715 131.533890,36.419563 133.245102,45.023960 
	C135.245590,45.023960 137.377319,44.921024 139.482681,45.110710 
	C139.904343,45.148701 140.225555,46.301338 140.191284,47.005333 
z"/>
<path fill="#E9B55A" opacity="1.000000" stroke="none" 
	d="
M229.592682,44.032337 
	C229.592606,45.854107 229.567642,47.183922 229.598557,48.512444 
	C229.664093,51.329361 228.765015,54.888958 230.145630,56.734554 
	C231.318832,58.302860 235.140762,57.865280 237.775711,58.390694 
	C238.175156,58.470345 238.492859,58.959923 239.847519,60.102921 
	C235.165527,60.102921 231.468704,60.102921 227.329803,60.102921 
	C227.329803,51.431137 227.329803,42.361919 227.329803,33.292698 
	C227.923782,33.272594 228.517746,33.252495 229.111725,33.232391 
	C229.272186,36.668194 229.432648,40.103996 229.592682,44.032337 
z"/>
<path fill="#709EB2" opacity="1.000000" stroke="none" 
	d="
M25.254272,59.281429 
	C25.152960,58.469246 25.308817,57.919357 25.697144,57.195541 
	C32.249447,60.684929 38.827984,58.906231 45.889214,57.296864 
	C41.858814,62.310352 33.698479,62.967106 25.254272,59.281429 
z"/>
<path fill="#E9F0F3" opacity="1.000000" stroke="none" 
	d="
M19.190437,48.228935 
	C19.960491,47.367512 20.487822,46.780827 21.733622,45.394810 
	C22.742403,48.963184 23.536612,51.772541 24.330818,54.581898 
	C23.812466,54.770485 23.294113,54.959072 22.775761,55.147663 
	C20.815355,53.381989 16.742039,53.002468 19.190437,48.228935 
z"/>
<path fill="#F3F7F8" opacity="1.000000" stroke="none" 
	d="
M91.355591,44.413837 
	C91.089066,41.979965 91.089066,39.878468 91.089066,37.573868 
	C94.215034,37.383423 96.954697,37.180622 97.051514,41.078766 
	C97.147408,44.939438 94.568153,45.199478 91.355591,44.413837 
z"/>
<path fill="#DFE9EE" opacity="1.000000" stroke="none" 
	d="
M58.121277,45.779709 
	C58.092953,47.331738 58.084225,48.512455 57.819191,49.632519 
	C57.788944,49.760357 55.841785,49.824638 55.619774,49.438072 
	C55.115788,48.560551 54.868256,47.349854 54.997936,46.336193 
	C55.212990,44.655159 55.806946,43.022594 57.201626,41.358097 
	C57.489376,42.702202 57.777130,44.046310 58.121277,45.779709 
z"/>
<path fill="#FEFBF7" opacity="1.000000" stroke="none" 
	d="
M163.920410,35.747353 
	C168.721237,35.451080 170.899185,37.699043 171.097290,41.861118 
	C171.253036,45.133263 171.398941,48.455193 171.018082,51.692520 
	C170.374084,57.166489 168.350311,58.480762 162.119308,57.799915 
	C162.119308,50.926929 162.095276,43.992115 162.177246,37.058556 
	C162.182312,36.629589 163.021545,36.210487 163.920410,35.747353 
z"/>
<path fill="#FDF9F2" opacity="1.000000" stroke="none" 
	d="
M202.756729,37.198494 
	C204.512161,43.906067 202.282501,46.245731 195.307495,45.240791 
	C195.307495,42.206188 195.307495,39.125496 195.307495,34.855560 
	C197.905350,35.576527 200.229675,36.221581 202.756729,37.198494 
z"/>
<path fill="#FCF5E9" opacity="1.000000" stroke="none" 
	d="
M215.995117,37.644272 
	C217.314316,41.072098 218.273361,44.526951 219.411148,48.625721 
	C217.412338,48.778236 215.917618,48.892288 213.426193,49.082394 
	C214.240906,44.873325 214.937927,41.272312 215.995117,37.644272 
z"/>
</svg>