<svg version="1.1" id="Layer_1" xmlns="http://www.w3.org/2000/svg" xmlns:xlink="http://www.w3.org/1999/xlink" x="0px" y="0px"
	 width="100%" viewBox="0 0 412 130" enable-background="new 0 0 412 130" xml:space="preserve">
<path fill="#FBFDFD" opacity="1.000000" stroke="none" 
	d="
M317.000000,131.000000 
	C211.333359,131.000000 106.166718,131.000000 1.000057,131.000000 
	C1.000038,87.666702 1.000038,44.333405 1.000019,1.000080 
	C138.333267,1.000053 275.666534,1.000053 412.999817,1.000027 
	C412.999878,44.333256 412.999878,87.666512 412.999939,130.999878 
	C381.166656,131.000000 349.333344,131.000000 317.000000,131.000000 
M377.263947,113.950905 
	C376.499634,114.079109 375.735321,114.207306 374.971008,114.335503 
	C375.052643,114.609062 375.134277,114.882614 375.215881,115.156174 
	C376.171143,114.792824 377.126404,114.429474 378.359009,113.912140 
	C378.219788,113.917412 378.080566,113.922684 377.263947,113.950905 
M135.797974,85.893036 
	C133.862762,85.261307 131.927567,84.629585 129.526962,83.397499 
	C129.032547,83.048721 128.495071,82.746887 128.052841,82.341209 
	C127.179855,81.540421 126.359612,80.682121 125.517570,79.847603 
	C124.484581,81.135979 122.832741,82.322517 122.599098,83.742416 
	C122.381546,85.064507 123.673775,86.635033 123.682587,88.461777 
	C120.297874,90.047470 118.310730,92.591248 119.191124,96.409035 
	C120.094711,100.327408 123.156914,102.284988 126.905579,102.227394 
	C129.371140,102.189514 131.816971,100.868538 134.727478,99.997314 
	C135.005707,99.809135 135.170486,99.549065 135.945786,98.880714 
	C136.844894,99.815498 137.743988,100.750275 138.775208,101.822403 
	C140.149445,101.822403 141.918716,101.822403 142.975296,101.822403 
	C141.306900,97.921486 139.608643,93.950699 138.629044,89.577568 
	C140.459518,89.143692 142.606247,89.144226 144.009064,88.122925 
	C144.941010,87.444427 145.356995,85.132828 144.962677,83.879959 
	C144.696945,83.035637 142.614975,82.762955 141.345490,82.234550 
	C142.721069,85.622505 142.376770,87.115303 138.932236,86.892715 
	C137.948624,86.829155 136.972015,86.657066 135.797974,85.893036 
M321.064697,92.997734 
	C321.064697,92.997734 321.000092,92.987465 320.987305,93.725739 
	C322.274994,96.167191 323.562683,98.608643 324.850342,101.050095 
	C324.463318,101.308540 324.076263,101.566994 323.689209,101.825439 
	C325.768982,101.825439 327.848755,101.825439 329.614716,101.825439 
	C327.044312,94.321014 324.505096,86.907753 322.003693,79.604813 
	C320.337372,79.604813 318.725342,79.604813 317.448975,79.604813 
	C314.540649,87.228577 311.749329,94.545609 308.863373,102.110779 
	C310.394867,101.970772 311.812347,101.841179 312.310150,101.795670 
	C313.363525,98.127586 314.234985,95.092911 315.082123,92.143028 
	C317.560516,92.520477 319.326752,92.789459 321.064697,92.997734 
M227.053055,84.450401 
	C227.188736,84.695511 227.324402,84.940620 227.460098,85.185738 
	C227.560806,84.980400 227.793533,84.649162 227.738937,84.591927 
	C227.524124,84.366707 227.218948,84.227669 227.266388,83.245895 
	C227.099991,82.103516 226.933609,80.961143 226.672333,79.167397 
	C223.566956,79.167397 220.283524,78.560555 217.404465,79.377968 
	C215.442581,79.934975 212.933762,82.357559 212.727280,84.179222 
	C212.541626,85.817276 214.838150,88.249519 216.628677,89.461349 
	C218.607773,90.800804 221.465607,90.803223 223.541458,92.051765 
	C224.967667,92.909569 226.698303,95.052765 226.497437,96.341568 
	C226.278061,97.749054 224.124619,99.596138 222.568909,99.872902 
	C220.467590,100.246750 218.120026,99.364639 215.902435,98.904282 
	C214.738708,98.662697 213.626831,98.171387 212.017075,97.634644 
	C213.551132,101.755241 217.987030,103.177803 223.750961,102.107903 
	C227.439713,101.423195 229.603439,99.348991 230.147995,95.563118 
	C230.688187,91.807503 228.820007,89.517365 225.640717,88.168884 
	C223.516510,87.267914 221.153687,86.918961 219.053757,85.975479 
	C217.878677,85.447502 217.022049,84.210724 216.021927,83.293320 
	C217.330353,82.526268 218.787201,80.950699 219.916779,81.158043 
	C222.378204,81.609863 224.672989,82.969627 227.053055,84.450401 
M255.500000,67.007774 
	C268.496979,67.032921 281.494080,67.086090 294.490753,67.034294 
	C295.629486,67.029755 297.456116,66.649933 297.790588,65.912537 
	C299.948792,61.154285 301.780792,56.248062 303.719818,51.390385 
	C303.414368,51.076397 303.108917,50.762405 302.803436,50.448414 
	C294.589539,61.422771 283.725616,64.610497 270.178253,62.405815 
	C281.263153,45.142799 291.986115,28.443445 303.206512,10.969424 
	C289.667938,10.969424 277.105103,10.969424 263.990326,10.969424 
	C262.943756,15.508242 261.797119,20.481066 260.650482,25.453890 
	C267.961548,15.295077 277.742096,13.920883 289.662170,15.599781 
	C280.984283,28.747280 273.266541,41.756657 264.184784,53.731628 
	C258.240204,61.570045 248.951431,64.013504 239.032532,62.743057 
	C235.480743,62.288136 233.413910,60.717690 233.448410,56.626980 
	C233.553787,44.134827 233.151077,31.634129 233.489334,19.151474 
	C233.564972,16.360687 235.857712,13.629978 236.913498,11.340479 
	C231.658142,11.340479 225.462402,11.340479 220.600784,11.340479 
	C221.671234,14.177411 223.684372,17.144882 223.776688,20.170948 
	C224.157562,32.656902 224.025604,45.161324 223.899643,57.657120 
	C223.878784,59.726765 223.439392,62.115879 222.327026,63.777256 
	C220.521393,66.473984 218.050705,66.902023 216.072083,63.606171 
	C215.561081,62.754997 215.090988,61.855499 214.763275,60.921650 
	C209.757782,46.657688 204.692734,32.413273 199.890289,18.080952 
	C199.196518,16.010471 199.794098,13.507284 199.794098,11.135489 
	C194.633331,11.135489 188.975204,11.135489 184.073959,11.135489 
	C184.073959,13.633992 184.696091,16.208574 183.968048,18.316917 
	C180.507309,28.338821 176.842667,38.298897 172.923965,48.151054 
	C170.305008,54.735432 169.166733,62.203144 162.194946,66.881119 
	C167.962555,66.881119 173.069763,66.881119 176.932053,66.881119 
	C176.298584,64.214699 174.707932,61.321270 175.216675,58.862183 
	C176.248001,53.877209 178.283997,49.073399 180.226105,44.325920 
	C180.617645,43.368771 182.525085,42.311455 183.571289,42.458145 
	C190.914581,43.487789 197.225586,46.553410 201.638351,52.786083 
	C205.219879,57.844704 205.010773,62.085739 200.891785,67.007774 
	C218.850342,67.007774 236.675171,67.007774 255.500000,67.007774 
M19.168640,47.734196 
	C15.475179,49.167805 11.781717,50.601414 8.003473,52.067928 
	C8.003473,54.340374 8.003207,56.325890 8.003518,58.311405 
	C8.005212,69.112312 7.978981,79.913330 8.023938,90.714058 
	C8.039851,94.537102 9.752296,97.358925 13.824353,97.368477 
	C20.425718,97.383965 27.176508,97.729126 33.600525,96.526527 
	C48.877426,93.666656 57.457027,80.358994 53.436543,66.486115 
	C50.524364,56.437496 43.097366,50.283672 34.384430,45.196171 
	C28.694023,41.873524 24.714975,46.759609 19.168640,47.734196 
M66.139114,56.480309 
	C68.666183,49.803013 71.330589,43.172665 73.639114,36.420647 
	C74.359200,34.314545 74.117577,31.879633 74.333420,29.397114 
	C78.831673,29.397114 84.004753,29.397114 89.274193,29.397114 
	C87.495102,33.434643 97.142059,65.303223 101.842529,71.409988 
	C101.842529,55.371124 101.884018,39.375626 101.823669,23.380510 
	C101.796623,16.210974 97.758255,10.535685 91.460091,10.251696 
	C80.722168,9.767511 69.946602,10.118272 59.205158,10.118272 
	C66.230270,29.380558 50.043510,33.063805 39.148125,40.643585 
	C49.465126,44.040478 58.258701,49.424404 66.139114,56.480309 
M160.731522,62.329193 
	C164.956757,58.888016 166.569611,54.366882 166.106552,49.050190 
	C165.187500,38.497978 156.760971,34.776749 148.814560,30.739273 
	C151.866150,28.660362 155.191269,27.265175 157.163727,24.791441 
	C158.917557,22.591892 160.234802,18.992067 159.734894,16.397535 
	C159.368683,14.496797 155.792831,11.959192 153.569946,11.879905 
	C141.277603,11.441447 128.961487,11.670016 118.133629,11.670016 
	C119.025803,14.610447 120.761971,17.825426 120.854866,21.087202 
	C121.196091,33.069267 120.966080,45.066959 121.007431,57.058578 
	C121.020943,60.975906 120.581276,64.610931 115.368744,66.789444 
	C126.744453,66.789444 136.867249,67.185860 146.934113,66.607948 
	C151.396622,66.351768 155.746048,64.125572 160.731522,62.329193 
M359.704071,44.492245 
	C359.703583,48.487141 360.150787,52.548275 359.572418,56.457680 
	C359.030670,60.119476 357.402802,63.620586 356.395996,66.748055 
	C361.157959,66.748055 367.205353,66.748055 372.407349,66.748055 
	C371.308777,64.274300 369.472015,61.816906 369.213562,59.203426 
	C368.691742,53.927212 368.871674,48.558586 369.130829,43.246059 
	C369.187988,42.074448 370.583588,40.308838 371.703918,39.980488 
	C374.339203,39.208157 378.875122,37.906330 379.660614,38.986607 
	C384.404266,45.510212 388.572052,52.506519 392.311157,59.669048 
	C393.259583,61.485836 391.949768,64.481499 391.705627,66.682846 
	C396.248688,66.682846 401.778870,66.682846 406.689209,66.682846 
	C400.498566,55.577305 394.303497,44.463840 388.237610,33.582104 
	C390.795380,31.562479 393.686035,29.590330 396.198883,27.217985 
	C399.403137,24.192890 400.614716,19.810043 398.520172,16.296381 
	C397.043030,13.818438 393.131439,11.537405 390.202057,11.399957 
	C378.489410,10.850385 366.735870,11.173115 356.297150,11.173115 
	C357.406586,14.403727 359.298279,17.662928 359.525909,21.034475 
	C360.029358,28.491268 359.695984,36.004559 359.704071,44.492245 
M64.503487,103.286674 
	C72.834862,103.285072 81.167747,103.380196 89.497101,103.249725 
	C95.603683,103.154060 99.983513,99.972473 101.131340,94.283859 
	C101.925087,90.350044 101.712326,86.213127 101.967049,81.864273 
	C97.302780,81.864273 93.545212,81.864273 89.546677,81.864273 
	C93.745522,77.074562 93.813576,73.610573 90.261780,68.387848 
	C86.884285,63.421417 81.998039,60.700359 76.413437,59.260002 
	C74.573944,58.785568 71.402405,58.777290 70.667839,59.830597 
	C69.595558,61.368160 69.552155,64.243286 70.146683,66.225334 
	C74.984459,82.353859 67.698555,96.433434 51.612820,101.590302 
	C50.689106,101.886436 49.797501,102.282753 48.890953,102.632439 
	C48.942768,102.850563 48.994579,103.068680 49.046394,103.286804 
	C53.866264,103.286804 58.686131,103.286804 64.503487,103.286674 
M344.551544,10.923163 
	C331.943970,10.923163 319.336395,10.923163 306.728821,10.923163 
	C311.281616,13.690095 311.039154,17.960947 311.045746,22.101725 
	C311.064301,33.767578 311.014099,45.433670 311.073242,57.099251 
	C311.093323,61.059559 310.550476,64.639343 306.563049,67.073868 
	C320.613800,67.073868 334.664581,67.073868 348.867432,67.073868 
	C350.660706,61.673832 352.504608,56.121365 354.437683,50.300392 
	C353.425842,50.350708 353.186371,50.290573 353.104431,50.378033 
	C352.427612,51.100288 351.720245,51.805611 351.132660,52.598026 
	C345.112518,60.716606 336.797607,63.541748 327.064392,62.956093 
	C323.638580,62.749958 320.763916,61.571373 320.742737,57.424709 
	C320.698700,48.798088 320.729431,40.171085 320.729431,30.739178 
	C324.790039,31.162903 328.835358,30.786222 332.153198,32.162823 
	C335.279144,33.459782 337.638611,36.604053 340.238617,38.852089 
	C339.410309,33.875500 338.478699,28.278469 337.449524,22.095295 
	C333.055908,29.896938 326.464661,25.947109 320.901428,27.066031 
	C319.950073,15.642077 322.471008,13.039914 332.916626,15.689137 
	C338.560730,17.120605 343.741669,20.378347 350.118958,23.258059 
	C348.477234,18.944050 346.894470,14.784900 344.551544,10.923163 
M25.847139,38.429420 
	C30.798347,34.899082 36.483921,32.046528 40.520969,27.672464 
	C45.968605,21.770061 43.173389,14.465178 35.284687,13.303387 
	C28.944931,12.369713 22.387976,12.402880 15.962368,12.718657 
	C10.693666,12.977581 8.211912,15.875859 8.062749,21.140415 
	C7.846683,28.766216 8.007408,36.402695 8.007408,45.063210 
	C14.130128,42.835381 19.659782,40.823349 25.847139,38.429420 
M248.351105,102.538483 
	C258.003632,100.547150 262.695984,93.029953 259.087189,85.339188 
	C256.537903,79.906334 250.726181,77.071175 245.171951,78.550903 
	C239.001846,80.194702 235.433701,85.096214 235.809982,91.411285 
	C236.191208,97.809204 240.155914,101.523712 248.351105,102.538483 
M393.581268,86.985008 
	C391.481628,86.053856 389.381958,85.122696 386.682037,83.925331 
	C391.502899,78.713005 395.113159,82.003448 398.815521,83.932663 
	C398.313599,79.705643 392.701996,77.371834 388.219818,79.617096 
	C386.433594,80.511894 384.519623,82.767929 384.279968,84.614052 
	C384.093658,86.049393 386.103638,88.304749 387.696808,89.302338 
	C389.740875,90.582245 392.623718,90.547379 394.619812,91.871147 
	C396.203522,92.921417 397.884277,95.188698 397.836334,96.867485 
	C397.803131,98.029572 394.769867,100.187195 393.307983,100.008736 
	C389.966278,99.600769 386.766174,98.032341 383.373352,96.889717 
	C384.009430,98.165115 384.636383,101.192589 385.790833,101.409233 
	C389.442352,102.094475 393.468842,102.460098 397.022125,101.597450 
	C402.372101,100.298584 403.799286,93.024239 399.663849,89.701241 
	C398.163452,88.495613 396.135345,87.946762 393.581268,86.985008 
M187.825821,99.953278 
	C192.043594,103.945808 201.518524,103.091011 204.267776,98.469933 
	C206.383362,94.913948 205.362854,90.561089 201.631195,88.724403 
	C199.132751,87.494705 196.277603,87.007034 193.708755,85.894745 
	C192.656387,85.439079 191.937881,84.212433 191.067505,83.336510 
	C192.187439,82.552139 193.390350,81.017845 194.410995,81.130783 
	C196.978226,81.414864 199.463165,82.442612 202.430435,83.302414 
	C202.025024,81.970314 201.698502,79.792877 201.306534,79.781036 
	C197.575790,79.668289 193.749069,79.524841 190.142761,80.294136 
	C188.929901,80.552864 187.565506,83.404671 187.575119,85.063751 
	C187.583054,86.434570 189.245438,88.292557 190.651245,89.048607 
	C193.100464,90.365791 196.097412,90.680298 198.510849,92.042290 
	C199.946976,92.852753 201.698425,95.009613 201.505997,96.290405 
	C201.293304,97.705971 198.939087,99.933060 197.662537,99.839012 
	C194.101105,99.576630 190.614655,98.296600 187.310745,97.471321 
	C187.282318,97.330017 187.471054,98.267883 187.825821,99.953278 
M174.451294,96.390663 
	C174.668884,98.171394 174.886459,99.952118 175.104599,101.737381 
	C176.884918,101.737381 178.907547,101.737381 180.574677,101.737381 
	C178.023560,94.265068 175.530655,86.963272 172.978256,79.487206 
	C171.547455,79.487206 169.908691,79.487206 168.511932,79.487206 
	C165.600586,87.059288 162.757874,94.452820 159.937866,101.787338 
	C161.184540,101.787338 162.615295,101.787338 163.337204,101.787338 
	C164.310623,98.296349 165.167786,95.222282 166.309723,91.126884 
	C169.351257,92.963051 171.670639,94.363258 174.451294,96.390663 
M369.228577,100.119926 
	C364.040009,100.928810 363.213348,100.806885 364.451050,87.567604 
	C366.643372,87.949402 368.799652,88.324921 371.184052,88.740173 
	C371.047516,87.262840 370.929443,85.985344 370.868164,85.322243 
	C368.504517,85.505882 366.355225,85.672867 363.137543,85.922859 
	C364.229401,83.748734 364.964783,81.476608 365.407318,81.532272 
	C368.670654,81.942780 371.875610,82.817719 375.214447,83.572624 
	C375.053467,82.586929 374.798370,81.024979 374.548859,79.497360 
	C369.125122,79.497360 364.076630,79.497360 359.493622,79.497360 
	C359.493622,87.053940 359.493622,94.384071 359.493622,101.740074 
	C373.468079,103.174973 375.563019,102.711578 375.582153,97.915993 
	C373.712921,98.625572 371.900299,99.313683 369.228577,100.119926 
M87.594147,59.115379 
	C84.973694,51.510380 82.353241,43.905376 79.314354,35.086018 
	C76.654259,42.077484 74.411270,47.972679 72.446129,53.137592 
	C77.728210,55.474403 82.469177,57.571831 87.594147,59.115379 
M345.235474,101.937523 
	C345.235474,95.270706 345.235474,88.603889 345.235474,81.324036 
	C347.737854,82.117897 349.894867,82.802193 352.066010,83.490974 
	C352.516998,80.313560 351.251312,79.157463 348.208313,79.269142 
	C343.587769,79.438728 338.956421,79.313499 333.972290,79.313499 
	C333.625793,80.784073 333.290100,82.208832 332.987488,83.493118 
	C335.670074,82.731697 337.860352,82.110008 340.317627,81.412529 
	C340.317627,88.802139 340.317627,95.182938 340.317627,102.048805 
	C341.619293,102.048805 343.051666,102.048805 345.235474,101.937523 
M280.357788,79.088638 
	C275.046570,78.807510 269.862793,79.168762 266.846283,84.383728 
	C264.362335,88.678017 265.100708,93.057419 267.766571,97.068909 
	C270.686462,101.462662 279.359924,104.182838 284.375977,102.227859 
	C285.193298,101.909317 285.613861,100.572731 286.733124,98.967735 
	C278.123566,101.249588 274.302612,100.374191 271.566925,95.841057 
	C269.147888,91.832596 268.764465,87.539696 271.697540,83.731689 
	C275.164856,79.230064 279.563629,80.894135 283.809784,82.986320 
	C284.087128,82.528519 284.364441,82.070709 284.641754,81.612907 
	C283.510345,80.796936 282.378937,79.980972 280.357788,79.088638 
M295.165649,79.834000 
	C295.165649,87.125587 295.165649,94.417175 295.165649,101.784683 
	C296.809692,101.784683 298.727264,101.784683 300.224243,101.784683 
	C300.224243,94.255867 300.224243,86.984085 300.224243,79.459778 
	C298.821106,79.459778 297.354828,79.459778 295.165649,79.834000 
M142.290634,116.794579 
	C138.203354,119.869164 136.882736,116.896057 135.612732,113.772598 
	C135.612732,117.015694 135.612732,120.258789 135.612732,123.501884 
	C135.891098,123.500305 136.169464,123.498718 136.447830,123.497139 
	C136.680374,122.100471 136.912918,120.703804 137.149567,119.282486 
	C138.952805,119.282486 140.524979,119.282486 142.030090,119.282486 
	C142.447906,120.864456 142.794098,122.175194 143.140289,123.485939 
	C143.302719,123.431847 143.465134,123.377762 143.627563,123.323669 
	C143.627563,120.149895 143.627563,116.976112 143.627563,113.802338 
	C143.387711,113.793625 143.147842,113.784904 142.907990,113.776192 
	C142.759720,114.528122 142.611465,115.280060 142.290634,116.794579 
M250.766113,113.653900 
	C248.451141,115.583206 248.257584,120.220551 250.663437,123.970596 
	C250.896210,121.645706 251.084793,119.762108 251.274658,117.865700 
	C252.161011,118.094246 253.002670,118.311264 255.298920,118.903351 
	C253.185822,116.625732 252.122223,115.479317 250.766113,113.653900 
M370.432190,120.656479 
	C371.244904,120.493156 372.750031,120.363037 372.759735,120.161186 
	C372.830688,118.682022 372.601990,117.188477 372.467834,115.699471 
	C372.073700,115.591606 371.679565,115.483749 371.285431,115.375885 
	C370.901642,116.915459 370.517822,118.455025 370.432190,120.656479 
M380.979919,121.359802 
	C381.118195,119.537048 381.256439,117.714294 381.394714,115.891541 
	C380.631653,115.955757 379.868622,116.019974 379.105591,116.084190 
	C379.513367,117.946190 379.921143,119.808197 380.979919,121.359802 
M79.138336,116.532326 
	C79.652031,116.435158 80.165733,116.337997 80.679436,116.240829 
	C80.534561,115.991989 80.312462,115.511665 80.256798,115.530235 
	C79.718140,115.709923 79.207428,115.973381 79.138336,116.532326 
M376.196564,122.250130 
	C375.689026,122.387932 375.181488,122.525742 374.673950,122.663544 
	C374.961792,122.994904 375.249634,123.326271 375.537476,123.657646 
	C375.890991,123.323730 376.244537,122.989815 376.196564,122.250130 
M384.137787,114.907120 
	C384.221375,115.638947 384.304993,116.370773 384.388611,117.102600 
	C384.549591,117.080009 384.710602,117.057419 384.871613,117.034836 
	C384.757233,116.161606 384.642853,115.288368 384.137787,114.907120 
M378.385101,123.473961 
	C378.385101,123.473961 378.546478,123.568581 378.546478,123.568581 
	C378.546478,123.568581 378.525085,123.380188 378.385101,123.473961 
z"/>
<path fill="#1669A0" opacity="1.000000" stroke="none" 
	d="
M255.000000,67.007774 
	C236.675171,67.007774 218.850342,67.007774 200.891785,67.007774 
	C205.010773,62.085739 205.219879,57.844704 201.638351,52.786083 
	C197.225586,46.553410 190.914581,43.487789 183.571289,42.458145 
	C182.525085,42.311455 180.617645,43.368771 180.226105,44.325920 
	C178.283997,49.073399 176.248001,53.877209 175.216675,58.862183 
	C174.707932,61.321270 176.298584,64.214699 176.932053,66.881119 
	C173.069763,66.881119 167.962555,66.881119 162.194946,66.881119 
	C169.166733,62.203144 170.305008,54.735432 172.923965,48.151054 
	C176.842667,38.298897 180.507309,28.338821 183.968048,18.316917 
	C184.696091,16.208574 184.073959,13.633992 184.073959,11.135489 
	C188.975204,11.135489 194.633331,11.135489 199.794098,11.135489 
	C199.794098,13.507284 199.196518,16.010471 199.890289,18.080952 
	C204.692734,32.413273 209.757782,46.657688 214.763275,60.921650 
	C215.090988,61.855499 215.561081,62.754997 216.072083,63.606171 
	C218.050705,66.902023 220.521393,66.473984 222.327026,63.777256 
	C223.439392,62.115879 223.878784,59.726765 223.899643,57.657120 
	C224.025604,45.161324 224.157562,32.656902 223.776688,20.170948 
	C223.684372,17.144882 221.671234,14.177411 220.600784,11.340479 
	C225.462402,11.340479 231.658142,11.340479 236.913498,11.340479 
	C235.857712,13.629978 233.564972,16.360687 233.489334,19.151474 
	C233.151077,31.634129 233.553787,44.134827 233.448410,56.626980 
	C233.413910,60.717690 235.480743,62.288136 239.032532,62.743057 
	C248.951431,64.013504 258.240204,61.570045 264.184784,53.731628 
	C273.266541,41.756657 280.984283,28.747280 289.662170,15.599781 
	C277.742096,13.920883 267.961548,15.295077 260.650482,25.453890 
	C261.797119,20.481066 262.943756,15.508242 263.990326,10.969424 
	C277.105103,10.969424 289.667938,10.969424 303.206512,10.969424 
	C291.986115,28.443445 281.263153,45.142799 270.178253,62.405815 
	C283.725616,64.610497 294.589539,61.422771 302.803436,50.448414 
	C303.108917,50.762405 303.414368,51.076397 303.719818,51.390385 
	C301.780792,56.248062 299.948792,61.154285 297.790588,65.912537 
	C297.456116,66.649933 295.629486,67.029755 294.490753,67.034294 
	C281.494080,67.086090 268.496979,67.032921 255.000000,67.007774 
M198.063171,43.562416 
	C198.283188,43.576004 198.503189,43.589592 198.723190,43.603184 
	C198.583969,43.285545 198.444748,42.967907 198.283463,41.883350 
	C195.655869,34.152599 193.028275,26.421848 189.965469,17.410660 
	C187.267273,24.475782 185.136185,30.020943 183.045212,35.581188 
	C182.817413,36.186958 182.820892,36.879707 182.717987,37.526592 
	C185.352188,38.107075 188.012817,38.412350 190.456757,39.308510 
	C193.063095,40.264214 195.464661,41.778412 198.063171,43.562416 
z"/>
<path fill="#12669E" opacity="1.000000" stroke="none" 
	d="
M19.528427,47.580070 
	C24.714975,46.759609 28.694023,41.873524 34.384430,45.196171 
	C43.097366,50.283672 50.524364,56.437496 53.436543,66.486115 
	C57.457027,80.358994 48.877426,93.666656 33.600525,96.526527 
	C27.176508,97.729126 20.425718,97.383965 13.824353,97.368477 
	C9.752296,97.358925 8.039851,94.537102 8.023938,90.714058 
	C7.978981,79.913330 8.005212,69.112312 8.003518,58.311405 
	C8.003207,56.325890 8.003473,54.340374 8.003473,52.067928 
	C11.781717,50.601414 15.475179,49.167805 19.528427,47.580070 
z"/>
<path fill="#15689F" opacity="1.000000" stroke="none" 
	d="
M65.890869,56.755470 
	C58.258701,49.424404 49.465126,44.040478 39.148125,40.643585 
	C50.043510,33.063805 66.230270,29.380558 59.205158,10.118272 
	C69.946602,10.118272 80.722168,9.767511 91.460091,10.251696 
	C97.758255,10.535685 101.796623,16.210974 101.823669,23.380510 
	C101.884018,39.375626 101.842529,55.371124 101.842529,71.409988 
	C97.142059,65.303223 87.495102,33.434643 89.274193,29.397114 
	C84.004753,29.397114 78.831673,29.397114 74.333420,29.397114 
	C74.117577,31.879633 74.359200,34.314545 73.639114,36.420647 
	C71.330589,43.172665 68.666183,49.803013 65.890869,56.755470 
z"/>
<path fill="#1668A0" opacity="1.000000" stroke="none" 
	d="
M160.439163,62.561413 
	C155.746048,64.125572 151.396622,66.351768 146.934113,66.607948 
	C136.867249,67.185860 126.744453,66.789444 115.368744,66.789444 
	C120.581276,64.610931 121.020943,60.975906 121.007431,57.058578 
	C120.966080,45.066959 121.196091,33.069267 120.854866,21.087202 
	C120.761971,17.825426 119.025803,14.610447 118.133629,11.670016 
	C128.961487,11.670016 141.277603,11.441447 153.569946,11.879905 
	C155.792831,11.959192 159.368683,14.496797 159.734894,16.397535 
	C160.234802,18.992067 158.917557,22.591892 157.163727,24.791441 
	C155.191269,27.265175 151.866150,28.660362 148.814560,30.739273 
	C156.760971,34.776749 165.187500,38.497978 166.106552,49.050190 
	C166.569611,54.366882 164.956757,58.888016 160.439163,62.561413 
M155.732681,44.400433 
	C152.556625,40.921974 149.554428,37.254337 146.099701,34.079079 
	C145.048203,33.112644 142.592010,32.935692 141.047012,33.363804 
	C130.269806,36.350113 130.292358,36.431496 130.292343,47.626411 
	C130.292343,49.285065 130.291824,50.943718 130.292435,52.602371 
	C130.296295,63.150795 131.119888,63.892971 141.747986,62.926552 
	C152.514481,61.947540 157.470642,55.743649 155.732681,44.400433 
M148.725266,16.748772 
	C143.852631,16.319508 138.980164,15.643207 134.107269,15.640224 
	C132.935837,15.639508 130.872498,17.791056 130.752182,19.094318 
	C130.334412,23.619478 130.590897,28.206888 130.590897,34.191837 
	C136.551132,31.161514 141.820190,28.888500 146.631592,25.882891 
	C149.479996,24.103540 151.429657,21.114372 148.725266,16.748772 
z"/>
<path fill="#1669A0" opacity="1.000000" stroke="none" 
	d="
M359.703979,43.993523 
	C359.695984,36.004559 360.029358,28.491268 359.525909,21.034475 
	C359.298279,17.662928 357.406586,14.403727 356.297150,11.173115 
	C366.735870,11.173115 378.489410,10.850385 390.202057,11.399957 
	C393.131439,11.537405 397.043030,13.818438 398.520172,16.296381 
	C400.614716,19.810043 399.403137,24.192890 396.198883,27.217985 
	C393.686035,29.590330 390.795380,31.562479 388.237610,33.582104 
	C394.303497,44.463840 400.498566,55.577305 406.689209,66.682846 
	C401.778870,66.682846 396.248688,66.682846 391.705627,66.682846 
	C391.949768,64.481499 393.259583,61.485836 392.311157,59.669048 
	C388.572052,52.506519 384.404266,45.510212 379.660614,38.986607 
	C378.875122,37.906330 374.339203,39.208157 371.703918,39.980488 
	C370.583588,40.308838 369.187988,42.074448 369.130829,43.246059 
	C368.871674,48.558586 368.691742,53.927212 369.213562,59.203426 
	C369.472015,61.816906 371.308777,64.274300 372.407349,66.748055 
	C367.205353,66.748055 361.157959,66.748055 356.395996,66.748055 
	C357.402802,63.620586 359.030670,60.119476 359.572418,56.457680 
	C360.150787,52.548275 359.703583,48.487141 359.703979,43.993523 
M377.067627,33.754093 
	C380.646576,31.440901 384.743469,29.621107 387.601257,26.620972 
	C389.198242,24.944380 389.772430,20.956234 388.980927,18.631649 
	C387.519104,14.338531 372.892181,13.506037 370.102142,17.204956 
	C369.623749,17.839249 369.198822,18.705265 369.188110,19.470360 
	C369.110931,24.990829 369.146790,30.512878 369.146790,36.617374 
	C372.033844,35.584221 374.186829,34.813755 377.067627,33.754093 
z"/>
<path fill="#13679F" opacity="1.000000" stroke="none" 
	d="
M64.004745,103.286743 
	C58.686131,103.286804 53.866264,103.286804 49.046394,103.286804 
	C48.994579,103.068680 48.942768,102.850563 48.890953,102.632439 
	C49.797501,102.282753 50.689106,101.886436 51.612820,101.590302 
	C67.698555,96.433434 74.984459,82.353859 70.146683,66.225334 
	C69.552155,64.243286 69.595558,61.368160 70.667839,59.830597 
	C71.402405,58.777290 74.573944,58.785568 76.413437,59.260002 
	C81.998039,60.700359 86.884285,63.421417 90.261780,68.387848 
	C93.813576,73.610573 93.745522,77.074562 89.546677,81.864273 
	C93.545212,81.864273 97.302780,81.864273 101.967049,81.864273 
	C101.712326,86.213127 101.925087,90.350044 101.131340,94.283859 
	C99.983513,99.972473 95.603683,103.154060 89.497101,103.249725 
	C81.167747,103.380196 72.834862,103.285072 64.004745,103.286743 
z"/>
<path fill="#1A6BA1" opacity="1.000000" stroke="none" 
	d="
M344.931610,10.774458 
	C346.894470,14.784900 348.477234,18.944050 350.118958,23.258059 
	C343.741669,20.378347 338.560730,17.120605 332.916626,15.689137 
	C322.471008,13.039914 319.950073,15.642077 320.901428,27.066031 
	C326.464661,25.947109 333.055908,29.896938 337.449524,22.095295 
	C338.478699,28.278469 339.410309,33.875500 340.238617,38.852089 
	C337.638611,36.604053 335.279144,33.459782 332.153198,32.162823 
	C328.835358,30.786222 324.790039,31.162903 320.729431,30.739178 
	C320.729431,40.171085 320.698700,48.798088 320.742737,57.424709 
	C320.763916,61.571373 323.638580,62.749958 327.064392,62.956093 
	C336.797607,63.541748 345.112518,60.716606 351.132660,52.598026 
	C351.720245,51.805611 352.427612,51.100288 353.104431,50.378033 
	C353.186371,50.290573 353.425842,50.350708 354.437683,50.300392 
	C352.504608,56.121365 350.660706,61.673832 348.867432,67.073868 
	C334.664581,67.073868 320.613800,67.073868 306.563049,67.073868 
	C310.550476,64.639343 311.093323,61.059559 311.073242,57.099251 
	C311.014099,45.433670 311.064301,33.767578 311.045746,22.101725 
	C311.039154,17.960947 311.281616,13.690095 306.728821,10.923163 
	C319.336395,10.923163 331.943970,10.923163 344.931610,10.774458 
z"/>
<path fill="#13679F" opacity="1.000000" stroke="none" 
	d="
M25.518288,38.620369 
	C19.659782,40.823349 14.130128,42.835381 8.007408,45.063210 
	C8.007408,36.402695 7.846683,28.766216 8.062749,21.140415 
	C8.211912,15.875859 10.693666,12.977581 15.962368,12.718657 
	C22.387976,12.402880 28.944931,12.369713 35.284687,13.303387 
	C43.173389,14.465178 45.968605,21.770061 40.520969,27.672464 
	C36.483921,32.046528 30.798347,34.899082 25.518288,38.620369 
z"/>
<path fill="#2472A6" opacity="1.000000" stroke="none" 
	d="
M247.968292,102.491089 
	C240.155914,101.523712 236.191208,97.809204 235.809982,91.411285 
	C235.433701,85.096214 239.001846,80.194702 245.171951,78.550903 
	C250.726181,77.071175 256.537903,79.906334 259.087189,85.339188 
	C262.695984,93.029953 258.003632,100.547150 247.968292,102.491089 
M247.693359,100.530907 
	C252.748917,100.560791 255.258743,97.753571 255.838959,93.012154 
	C256.395599,88.463509 253.362427,82.960579 249.651062,81.477226 
	C246.156906,80.080688 242.274200,81.861420 240.760513,85.554726 
	C238.434067,91.231133 241.049454,97.542168 247.693359,100.530907 
z"/>
<path fill="#2A75A8" opacity="1.000000" stroke="none" 
	d="
M393.964630,87.041626 
	C396.135345,87.946762 398.163452,88.495613 399.663849,89.701241 
	C403.799286,93.024239 402.372101,100.298584 397.022125,101.597450 
	C393.468842,102.460098 389.442352,102.094475 385.790833,101.409233 
	C384.636383,101.192589 384.009430,98.165115 383.373352,96.889717 
	C386.766174,98.032341 389.966278,99.600769 393.307983,100.008736 
	C394.769867,100.187195 397.803131,98.029572 397.836334,96.867485 
	C397.884277,95.188698 396.203522,92.921417 394.619812,91.871147 
	C392.623718,90.547379 389.740875,90.582245 387.696808,89.302338 
	C386.103638,88.304749 384.093658,86.049393 384.279968,84.614052 
	C384.519623,82.767929 386.433594,80.511894 388.219818,79.617096 
	C392.701996,77.371834 398.313599,79.705643 398.815521,83.932663 
	C395.113159,82.003448 391.502899,78.713005 386.682037,83.925331 
	C389.381958,85.122696 391.481628,86.053856 393.964630,87.041626 
z"/>
<path fill="#2874A7" opacity="1.000000" stroke="none" 
	d="
M187.742813,99.579514 
	C187.471054,98.267883 187.282318,97.330017 187.310745,97.471321 
	C190.614655,98.296600 194.101105,99.576630 197.662537,99.839012 
	C198.939087,99.933060 201.293304,97.705971 201.505997,96.290405 
	C201.698425,95.009613 199.946976,92.852753 198.510849,92.042290 
	C196.097412,90.680298 193.100464,90.365791 190.651245,89.048607 
	C189.245438,88.292557 187.583054,86.434570 187.575119,85.063751 
	C187.565506,83.404671 188.929901,80.552864 190.142761,80.294136 
	C193.749069,79.524841 197.575790,79.668289 201.306534,79.781036 
	C201.698502,79.792877 202.025024,81.970314 202.430435,83.302414 
	C199.463165,82.442612 196.978226,81.414864 194.410995,81.130783 
	C193.390350,81.017845 192.187439,82.552139 191.067505,83.336517 
	C191.937881,84.212433 192.656387,85.439079 193.708755,85.894745 
	C196.277603,87.007034 199.132751,87.494705 201.631195,88.724403 
	C205.362854,90.561089 206.383362,94.913948 204.267776,98.469933 
	C201.518524,103.091011 192.043594,103.945808 187.742813,99.579514 
z"/>
<path fill="#2874A7" opacity="1.000000" stroke="none" 
	d="
M227.035873,83.958351 
	C224.672989,82.969627 222.378204,81.609863 219.916779,81.158043 
	C218.787201,80.950699 217.330353,82.526268 216.021927,83.293320 
	C217.022049,84.210724 217.878677,85.447502 219.053757,85.975479 
	C221.153687,86.918961 223.516510,87.267914 225.640717,88.168884 
	C228.820007,89.517365 230.688187,91.807503 230.147995,95.563118 
	C229.603439,99.348991 227.439713,101.423195 223.750961,102.107903 
	C217.987030,103.177803 213.551132,101.755241 212.017075,97.634644 
	C213.626831,98.171387 214.738708,98.662697 215.902435,98.904282 
	C218.120026,99.364639 220.467590,100.246750 222.568909,99.872902 
	C224.124619,99.596138 226.278061,97.749054 226.497437,96.341568 
	C226.698303,95.052765 224.967667,92.909569 223.541458,92.051765 
	C221.465607,90.803223 218.607773,90.800804 216.628677,89.461349 
	C214.838150,88.249519 212.541626,85.817276 212.727280,84.179222 
	C212.933762,82.357559 215.442581,79.934975 217.404465,79.377968 
	C220.283524,78.560555 223.566956,79.167397 226.672333,79.167397 
	C226.933609,80.961143 227.099991,82.103516 227.128754,83.626480 
	C226.991104,84.007072 227.035873,83.958351 227.035873,83.958351 
z"/>
<path fill="#2874A7" opacity="1.000000" stroke="none" 
	d="
M174.220657,96.077065 
	C171.670639,94.363258 169.351257,92.963051 166.309723,91.126884 
	C165.167786,95.222282 164.310623,98.296349 163.337204,101.787338 
	C162.615295,101.787338 161.184540,101.787338 159.937866,101.787338 
	C162.757874,94.452820 165.600586,87.059288 168.511932,79.487206 
	C169.908691,79.487206 171.547455,79.487206 172.978256,79.487206 
	C175.530655,86.963272 178.023560,94.265068 180.574677,101.737381 
	C178.907547,101.737381 176.884918,101.737381 175.104599,101.737381 
	C174.886459,99.952118 174.668884,98.171394 174.220657,96.077065 
M170.826782,91.109024 
	C173.810379,87.983253 170.653381,85.943726 169.457672,83.534737 
	C170.043640,85.994743 163.408173,88.930939 170.826782,91.109024 
z"/>
<path fill="#2874A7" opacity="1.000000" stroke="none" 
	d="
M369.658112,100.060860 
	C371.900299,99.313683 373.712921,98.625572 375.582153,97.915993 
	C375.563019,102.711578 373.468079,103.174973 359.493622,101.740074 
	C359.493622,94.384071 359.493622,87.053940 359.493622,79.497360 
	C364.076630,79.497360 369.125122,79.497360 374.548859,79.497360 
	C374.798370,81.024979 375.053467,82.586929 375.214447,83.572624 
	C371.875610,82.817719 368.670654,81.942780 365.407318,81.532272 
	C364.964783,81.476608 364.229401,83.748734 363.137543,85.922859 
	C366.355225,85.672867 368.504517,85.505882 370.868164,85.322243 
	C370.929443,85.985344 371.047516,87.262840 371.184052,88.740173 
	C368.799652,88.324921 366.643372,87.949402 364.451050,87.567604 
	C363.213348,100.806885 364.040009,100.928810 369.658112,100.060860 
z"/>
<path fill="#2472A6" opacity="1.000000" stroke="none" 
	d="
M321.092987,93.058449 
	C319.326752,92.789459 317.560516,92.520477 315.082123,92.143028 
	C314.234985,95.092911 313.363525,98.127586 312.310150,101.795670 
	C311.812347,101.841179 310.394867,101.970772 308.863373,102.110779 
	C311.749329,94.545609 314.540649,87.228577 317.448975,79.604813 
	C318.725342,79.604813 320.337372,79.604813 322.003693,79.604813 
	C324.505096,86.907753 327.044312,94.321014 329.614716,101.825439 
	C327.848755,101.825439 325.768982,101.825439 323.689209,101.825439 
	C324.076263,101.566994 324.463318,101.308540 324.850342,101.050095 
	C323.562683,98.608643 322.274994,96.167191 321.280579,93.262703 
	C321.585083,92.048401 321.596313,91.297142 321.520691,90.185074 
	C320.636902,87.616684 319.839996,85.409088 318.723206,82.315308 
	C317.494110,85.508759 316.654999,87.688957 315.712067,90.138916 
	C317.815582,90.642433 319.224457,90.979675 320.730896,91.601707 
	C320.916626,92.277153 321.004822,92.667801 321.092987,93.058449 
z"/>
<path fill="#1E6EA3" opacity="1.000000" stroke="none" 
	d="
M87.402145,59.392319 
	C82.469177,57.571831 77.728210,55.474403 72.446129,53.137592 
	C74.411270,47.972679 76.654259,42.077484 79.314354,35.086018 
	C82.353241,43.905376 84.973694,51.510380 87.402145,59.392319 
z"/>
<path fill="#347CAC" opacity="1.000000" stroke="none" 
	d="
M344.859741,101.993164 
	C343.051666,102.048805 341.619293,102.048805 340.317627,102.048805 
	C340.317627,95.182938 340.317627,88.802139 340.317627,81.412529 
	C337.860352,82.110008 335.670074,82.731697 332.987488,83.493118 
	C333.290100,82.208832 333.625793,80.784073 333.972290,79.313499 
	C338.956421,79.313499 343.587769,79.438728 348.208313,79.269142 
	C351.251312,79.157463 352.516998,80.313560 352.066010,83.490974 
	C349.894867,82.802193 347.737854,82.117897 345.235474,81.324036 
	C345.235474,88.603889 345.235474,95.270706 344.859741,101.993164 
z"/>
<path fill="#2A75A8" opacity="1.000000" stroke="none" 
	d="
M280.802643,79.126816 
	C282.378937,79.980972 283.510345,80.796936 284.641754,81.612907 
	C284.364441,82.070709 284.087128,82.528519 283.809784,82.986320 
	C279.563629,80.894135 275.164856,79.230064 271.697540,83.731689 
	C268.764465,87.539696 269.147888,91.832596 271.566925,95.841057 
	C274.302612,100.374191 278.123566,101.249588 286.733124,98.967735 
	C285.613861,100.572731 285.193298,101.909317 284.375977,102.227859 
	C279.359924,104.182838 270.686462,101.462662 267.766571,97.068909 
	C265.100708,93.057419 264.362335,88.678017 266.846283,84.383728 
	C269.862793,79.168762 275.046570,78.807510 280.802643,79.126816 
z"/>
<path fill="#2472A6" opacity="1.000000" stroke="none" 
	d="
M124.301353,88.096191 
	C123.673775,86.635033 122.381546,85.064507 122.599098,83.742416 
	C122.832741,82.322517 124.484581,81.135979 125.517563,79.847603 
	C126.359612,80.682121 127.179855,81.540421 128.052841,82.341209 
	C128.495071,82.746887 129.032547,83.048721 129.483566,83.890945 
	C129.952850,85.619347 130.465515,86.854294 131.099304,88.373985 
	C132.378632,89.490387 133.536865,90.322044 134.871597,91.400665 
	C135.445236,91.450005 135.842361,91.252403 136.311554,90.798180 
	C136.405273,90.365196 136.426971,90.188835 136.692413,90.019531 
	C137.260895,90.010979 137.585632,89.995415 137.910370,89.979912 
	C139.608643,93.950699 141.306900,97.921486 142.975296,101.822403 
	C141.918716,101.822403 140.149445,101.822403 138.775208,101.822403 
	C137.743988,100.750275 136.844894,99.815498 135.328705,98.801865 
	C134.541489,98.558357 134.371384,98.393700 134.403625,97.951492 
	C131.430618,94.868530 128.255264,92.063126 125.010223,89.027222 
	C124.807610,88.490089 124.594551,88.256577 124.301353,88.096191 
z"/>
<path fill="#2A75A8" opacity="1.000000" stroke="none" 
	d="
M295.527100,79.646889 
	C297.354828,79.459778 298.821106,79.459778 300.224243,79.459778 
	C300.224243,86.984085 300.224243,94.255867 300.224243,101.784683 
	C298.727264,101.784683 296.809692,101.784683 295.165649,101.784683 
	C295.165649,94.417175 295.165649,87.125587 295.527100,79.646889 
z"/>
<path fill="#2A75A8" opacity="1.000000" stroke="none" 
	d="
M123.991974,88.278984 
	C124.594551,88.256577 124.807610,88.490089 124.853271,89.353027 
	C124.501839,92.630440 123.166298,95.895821 124.210892,97.952042 
	C126.025253,101.523476 129.799362,100.411865 133.174500,99.403625 
	C133.650772,99.782562 133.961197,99.952347 134.271622,100.122131 
	C131.816971,100.868538 129.371140,102.189514 126.905579,102.227394 
	C123.156914,102.284988 120.094711,100.327408 119.191124,96.409035 
	C118.310730,92.591248 120.297874,90.047470 123.991974,88.278984 
z"/>
<path fill="#347CAC" opacity="1.000000" stroke="none" 
	d="
M142.376923,116.413284 
	C142.611465,115.280060 142.759720,114.528122 142.907990,113.776192 
	C143.147842,113.784904 143.387711,113.793625 143.627563,113.802338 
	C143.627563,116.976112 143.627563,120.149895 143.627563,123.323669 
	C143.465134,123.377762 143.302719,123.431847 143.140289,123.485939 
	C142.794098,122.175194 142.447906,120.864456 142.030090,119.282486 
	C140.524979,119.282486 138.952805,119.282486 137.149567,119.282486 
	C136.912918,120.703804 136.680374,122.100471 136.447830,123.497139 
	C136.169464,123.498718 135.891098,123.500305 135.612732,123.501884 
	C135.612732,120.258789 135.612732,117.015694 135.612732,113.772598 
	C136.882736,116.896057 138.203354,119.869164 142.376923,116.413284 
z"/>
<path fill="#347CAC" opacity="1.000000" stroke="none" 
	d="
M138.269714,89.778740 
	C137.585632,89.995415 137.260895,90.010979 136.512482,89.656578 
	C135.924988,88.498360 135.761169,87.710152 135.746521,86.876587 
	C135.895676,86.831230 135.992203,86.534744 135.992203,86.534744 
	C136.972015,86.657066 137.948624,86.829155 138.932236,86.892715 
	C142.376770,87.115303 142.721069,85.622505 141.345490,82.234550 
	C142.614975,82.762955 144.696945,83.035637 144.962677,83.879959 
	C145.356995,85.132828 144.941010,87.444427 144.009064,88.122925 
	C142.606247,89.144226 140.459518,89.143692 138.269714,89.778740 
z"/>
<path fill="#659BC0" opacity="1.000000" stroke="none" 
	d="
M250.912369,113.993408 
	C252.122223,115.479317 253.185822,116.625732 255.298920,118.903351 
	C253.002670,118.311264 252.161011,118.094246 251.274658,117.865700 
	C251.084793,119.762108 250.896210,121.645706 250.663437,123.970596 
	C248.257584,120.220551 248.451141,115.583206 250.912369,113.993408 
z"/>
<path fill="#E4EEF4" opacity="1.000000" stroke="none" 
	d="
M130.978195,88.089249 
	C130.465515,86.854294 129.952850,85.619347 129.716263,84.191132 
	C131.927567,84.629585 133.862762,85.261307 135.895081,86.213890 
	C135.992203,86.534744 135.895676,86.831230 135.423279,86.930565 
	C133.626648,87.383011 132.302429,87.736130 130.978195,88.089249 
z"/>
<path fill="#E4EEF4" opacity="1.000000" stroke="none" 
	d="
M370.283081,120.325531 
	C370.517822,118.455025 370.901642,116.915459 371.285431,115.375885 
	C371.679565,115.483749 372.073700,115.591606 372.467834,115.699471 
	C372.601990,117.188477 372.830688,118.682022 372.759735,120.161186 
	C372.750031,120.363037 371.244904,120.493156 370.283081,120.325531 
z"/>
<path fill="#E4EEF4" opacity="1.000000" stroke="none" 
	d="
M380.654419,121.514999 
	C379.921143,119.808197 379.513367,117.946190 379.105591,116.084190 
	C379.868622,116.019974 380.631653,115.955757 381.394714,115.891541 
	C381.256439,117.714294 381.118195,119.537048 380.654419,121.514999 
z"/>
<path fill="#659BC0" opacity="1.000000" stroke="none" 
	d="
M78.913536,116.372620 
	C79.207428,115.973381 79.718140,115.709923 80.256798,115.530235 
	C80.312462,115.511665 80.534561,115.991989 80.679428,116.240829 
	C80.165733,116.337997 79.652031,116.435158 78.913536,116.372620 
z"/>
<path fill="#E4EEF4" opacity="1.000000" stroke="none" 
	d="
M376.397308,122.453018 
	C376.244537,122.989815 375.890991,123.323730 375.537476,123.657639 
	C375.249634,123.326271 374.961792,122.994904 374.673950,122.663544 
	C375.181488,122.525742 375.689026,122.387932 376.397308,122.453018 
z"/>
<path fill="#E4EEF4" opacity="1.000000" stroke="none" 
	d="
M378.081665,114.066124 
	C377.126404,114.429474 376.171143,114.792824 375.215881,115.156174 
	C375.134277,114.882614 375.052643,114.609062 374.971008,114.335503 
	C375.735321,114.207306 376.499634,114.079109 377.635864,113.975861 
	C378.007782,114.000824 378.081665,114.066124 378.081665,114.066124 
z"/>
<path fill="#659BC0" opacity="1.000000" stroke="none" 
	d="
M384.333130,114.661133 
	C384.642853,115.288368 384.757233,116.161606 384.871613,117.034836 
	C384.710602,117.057419 384.549591,117.080009 384.388611,117.102600 
	C384.304993,116.370773 384.221375,115.638947 384.333130,114.661133 
z"/>
<path fill="#2874A7" opacity="1.000000" stroke="none" 
	d="
M226.969208,84.031853 
	C227.218948,84.227669 227.524124,84.366707 227.738937,84.591927 
	C227.793533,84.649162 227.560806,84.980400 227.460083,85.185738 
	C227.324402,84.940620 227.188736,84.695511 227.044464,84.204376 
	C227.035873,83.958351 226.991104,84.007072 226.969208,84.031853 
z"/>
<path fill="#2472A6" opacity="1.000000" stroke="none" 
	d="
M134.499542,100.059723 
	C133.961197,99.952347 133.650772,99.782562 133.363464,99.230865 
	C133.658157,98.642319 133.929718,98.435684 134.201263,98.229050 
	C134.371384,98.393700 134.541489,98.558357 134.966705,98.970055 
	C135.170486,99.549065 135.005707,99.809135 134.499542,100.059723 
z"/>
<path fill="#E4EEF4" opacity="1.000000" stroke="none" 
	d="
M377.974548,113.964394 
	C378.080566,113.922684 378.219788,113.917412 378.220337,113.989136 
	C378.081665,114.066124 378.007782,114.000824 377.974548,113.964394 
z"/>
<path fill="#E4EEF4" opacity="1.000000" stroke="none" 
	d="
M378.455078,123.427078 
	C378.525085,123.380188 378.546478,123.568581 378.546478,123.568581 
	C378.546478,123.568581 378.385101,123.473961 378.455078,123.427078 
z"/>
<path fill="#F1F6F9" opacity="1.000000" stroke="none" 
	d="
M197.955612,43.048790 
	C195.464661,41.778412 193.063095,40.264214 190.456757,39.308510 
	C188.012817,38.412350 185.352188,38.107075 182.717987,37.526592 
	C182.820892,36.879707 182.817413,36.186958 183.045212,35.581188 
	C185.136185,30.020943 187.267273,24.475782 189.965469,17.410660 
	C193.028275,26.421848 195.655869,34.152599 198.208038,42.367332 
	C198.132614,42.851311 197.955612,43.048790 197.955612,43.048790 
z"/>
<path fill="#F1F6F9" opacity="1.000000" stroke="none" 
	d="
M198.219070,42.750786 
	C198.444748,42.967907 198.583969,43.285545 198.723206,43.603180 
	C198.503189,43.589592 198.283188,43.576004 198.009399,43.305603 
	C197.955612,43.048790 198.132614,42.851311 198.219070,42.750786 
z"/>
<path fill="#FBFCFD" opacity="1.000000" stroke="none" 
	d="
M155.814728,44.808098 
	C157.470642,55.743649 152.514481,61.947540 141.747986,62.926552 
	C131.119888,63.892971 130.296295,63.150795 130.292435,52.602371 
	C130.291824,50.943718 130.292343,49.285065 130.292343,47.626411 
	C130.292358,36.431496 130.269806,36.350113 141.047012,33.363804 
	C142.592010,32.935692 145.048203,33.112644 146.099701,34.079079 
	C149.554428,37.254337 152.556625,40.921974 155.814728,44.808098 
z"/>
<path fill="#F4F8FB" opacity="1.000000" stroke="none" 
	d="
M149.012451,17.038059 
	C151.429657,21.114372 149.479996,24.103540 146.631592,25.882891 
	C141.820190,28.888500 136.551132,31.161514 130.590897,34.191837 
	C130.590897,28.206888 130.334412,23.619478 130.752182,19.094318 
	C130.872498,17.791056 132.935837,15.639508 134.107269,15.640224 
	C138.980164,15.643207 143.852631,16.319508 149.012451,17.038059 
z"/>
<path fill="#FBFDFD" opacity="1.000000" stroke="none" 
	d="
M376.703735,33.898689 
	C374.186829,34.813755 372.033844,35.584221 369.146790,36.617374 
	C369.146790,30.512878 369.110931,24.990829 369.188110,19.470360 
	C369.198822,18.705265 369.623749,17.839249 370.102142,17.204956 
	C372.892181,13.506037 387.519104,14.338531 388.980927,18.631649 
	C389.772430,20.956234 389.198242,24.944380 387.601257,26.620972 
	C384.743469,29.621107 380.646576,31.440901 376.703735,33.898689 
z"/>
<path fill="#FBFCFD" opacity="1.000000" stroke="none" 
	d="
M247.288177,100.429749 
	C241.049454,97.542168 238.434067,91.231133 240.760513,85.554726 
	C242.274200,81.861420 246.156906,80.080688 249.651062,81.477226 
	C253.362427,82.960579 256.395599,88.463509 255.838959,93.012154 
	C255.258743,97.753571 252.748917,100.560791 247.288177,100.429749 
z"/>
<path fill="#E4EEF4" opacity="1.000000" stroke="none" 
	d="
M170.412369,91.034607 
	C163.408173,88.930939 170.043640,85.994743 169.457672,83.534737 
	C170.653381,85.943726 173.810379,87.983253 170.412369,91.034607 
z"/>
<path fill="#E4EEF4" opacity="1.000000" stroke="none" 
	d="
M320.633331,91.316910 
	C319.224457,90.979675 317.815582,90.642433 315.712067,90.138916 
	C316.654999,87.688957 317.494110,85.508759 318.723206,82.315308 
	C319.839996,85.409088 320.636902,87.616684 321.270813,90.369858 
	C320.949646,91.049263 320.791504,91.183083 320.633331,91.316910 
z"/>
<path fill="#E4EEF4" opacity="1.000000" stroke="none" 
	d="
M321.357666,90.730659 
	C321.596313,91.297142 321.585083,92.048401 321.286987,92.893570 
	C321.000092,92.987465 321.064697,92.997734 321.078857,93.028091 
	C321.004822,92.667801 320.916626,92.277153 320.730896,91.601707 
	C320.791504,91.183083 320.949646,91.049263 321.357666,90.730659 
z"/>
<path fill="#FBFCFD" opacity="1.000000" stroke="none" 
	d="
M134.403625,97.951492 
	C133.929718,98.435684 133.658157,98.642319 133.197632,99.021713 
	C129.799362,100.411865 126.025253,101.523476 124.210892,97.952042 
	C123.166298,95.895821 124.501839,92.630440 124.922966,89.583527 
	C128.255264,92.063126 131.430618,94.868530 134.403625,97.951492 
z"/>
<path fill="#FBFDFD" opacity="1.000000" stroke="none" 
	d="
M131.099304,88.373993 
	C132.302429,87.736130 133.626648,87.383011 135.274124,86.975922 
	C135.761169,87.710152 135.924988,88.498360 136.268738,89.649513 
	C136.426971,90.188835 136.405273,90.365196 135.924026,90.806793 
	C135.207993,91.099251 134.951538,91.126472 134.695099,91.153702 
	C133.536865,90.322044 132.378632,89.490387 131.099304,88.373993 
z"/>
<path fill="#E4EEF4" opacity="1.000000" stroke="none" 
	d="
M134.871597,91.400658 
	C134.951538,91.126472 135.207993,91.099251 135.851990,91.063416 
	C135.842361,91.252403 135.445236,91.450005 134.871597,91.400658 
z"/>
</svg>