<svg version="1.1" id="Layer_1" xmlns="http://www.w3.org/2000/svg" xmlns:xlink="http://www.w3.org/1999/xlink" x="0px" y="0px"
	 width="100%" viewBox="0 0 432 200" enable-background="new 0 0 432 200" xml:space="preserve">
<path fill="#022B5F" opacity="1.000000" stroke="none" 
	d="
M321.000000,201.000000 
	C214.000031,201.000000 107.500061,201.000000 1.000072,201.000000 
	C1.000048,134.333389 1.000048,67.666771 1.000024,1.000116 
	C144.999908,1.000077 288.999817,1.000077 432.999817,1.000039 
	C432.999878,67.666557 432.999878,134.333115 432.999939,200.999832 
	C395.833344,201.000000 358.666656,201.000000 321.000000,201.000000 
M152.926926,128.743774 
	C152.926926,128.743774 152.615997,128.756989 152.615997,128.756989 
	C152.615997,128.756989 152.947571,129.040512 153.070435,129.248947 
	C153.070435,129.248947 153.404022,129.226776 153.404022,129.226776 
	C153.404022,129.226776 153.048019,128.937073 152.926926,128.743774 
M156.364883,161.798676 
	C156.422592,161.535187 156.480301,161.271713 156.538010,161.008224 
	C156.335236,161.321854 156.132446,161.635468 155.745926,162.075226 
	C155.745926,162.075226 155.762970,162.380249 155.762970,162.380249 
	C155.762970,162.380249 156.045334,162.061279 156.364883,161.798676 
M327.092407,142.342621 
	C327.355652,141.809479 327.618896,141.276337 327.882111,140.743195 
	C327.135071,141.046585 326.388031,141.349960 325.093506,142.004944 
	C325.133545,142.597687 325.173553,143.190414 325.213593,143.783142 
	C325.675446,143.421066 326.137299,143.058975 327.092407,142.342621 
M169.919357,141.754105 
	C169.919357,141.754105 169.612885,141.766846 169.612885,141.766846 
	C169.612885,141.766846 169.929352,142.051834 170.072235,142.604691 
	C170.645355,142.672165 171.218460,142.739655 171.791580,142.807129 
	C171.741745,142.209518 171.691925,141.611908 171.642105,141.014297 
	C171.109573,141.322495 170.577026,141.630692 169.919357,141.754105 
M267.383698,128.699112 
	C269.310181,128.852829 271.236694,129.006531 273.874207,128.838989 
	C273.882751,128.450470 273.891266,128.061966 273.899811,127.673447 
	C273.428528,127.892067 272.957275,128.110687 271.849274,128.568726 
	C270.568695,128.355713 269.288147,128.142715 267.927460,127.348717 
	C267.351196,127.079140 266.780701,126.793915 266.185608,126.575699 
	C266.146484,126.561356 265.919556,127.059067 265.779968,127.318604 
	C266.265289,127.575142 266.750641,127.831688 267.383698,128.699112 
M268.638763,122.897446 
	C273.214722,120.945938 272.874329,125.513855 275.018768,127.281479 
	C274.722626,124.952850 274.052399,121.907509 272.615936,121.488419 
	C270.701294,120.929825 268.190887,122.413467 265.520386,123.407959 
	C265.737213,123.881264 265.954010,124.354568 266.170807,124.827881 
	C266.789246,124.294846 267.407715,123.761818 268.638763,122.897446 
M202.065308,130.318512 
	C202.065308,130.318512 202.438950,130.274384 202.438950,130.274384 
	C202.438950,130.274384 202.102371,129.920471 201.958969,129.207413 
	C200.964737,127.150352 199.970490,125.093292 198.726898,122.520325 
	C197.616974,124.005699 196.875885,124.997498 195.981842,125.241074 
	C194.760284,119.839928 194.003845,119.436142 188.252228,122.160431 
	C196.244019,120.973373 192.650848,127.591606 195.199371,130.750412 
	C195.650909,129.427887 195.892853,128.719299 196.810654,128.135391 
	C198.510788,128.795883 200.210938,129.456360 202.065308,130.318512 
M256.572632,142.001175 
	C263.332886,141.328613 259.390991,147.631561 262.376801,149.836349 
	C262.550323,146.794785 262.223541,143.790619 261.192474,141.051575 
	C261.031311,140.623367 257.665497,141.401489 256.065460,142.353455 
	C255.643158,143.798172 255.220840,145.242905 254.798538,146.687622 
	C254.712265,146.690720 254.626007,146.693817 254.539734,146.696915 
	C254.975571,144.979645 255.411392,143.262375 256.572632,142.001175 
M248.816452,149.095779 
	C249.587097,148.889999 251.011292,148.725861 251.027466,148.471970 
	C251.192490,145.883377 251.128387,143.280167 251.128387,140.727631 
	C248.485931,140.727631 246.286285,140.727631 244.086624,140.727631 
	C249.592331,142.783707 249.947189,143.433060 247.135269,147.975266 
	C245.910080,148.278107 244.684891,148.580933 243.459702,148.883774 
	C243.573212,149.275177 243.686737,149.666580 243.800247,150.057983 
	C245.212051,149.699600 246.623856,149.341202 248.816452,149.095779 
M273.141693,149.516769 
	C273.678528,149.388092 274.681732,149.268494 274.684418,149.129425 
	C274.767334,144.859787 274.752167,140.588242 274.752167,136.317001 
	C274.109161,136.261215 273.466187,136.205429 272.823181,136.149643 
	C272.553894,137.780197 272.284576,139.410736 271.291962,140.815567 
	C268.667419,138.977875 266.271118,139.912949 265.124969,142.305603 
	C264.359253,143.904160 264.400726,146.574966 265.253143,148.118652 
	C266.963287,151.215607 269.887726,150.407822 272.530273,149.053070 
	C272.530273,149.053070 272.497955,149.023697 273.141693,149.516769 
M319.286224,159.913620 
	C318.299011,159.040176 317.311798,158.166733 316.337341,157.304581 
	C314.064789,160.938812 314.577118,166.388550 317.493835,168.913300 
	C318.849152,166.727585 314.952393,162.961823 320.198517,161.933426 
	C320.579224,161.994003 320.959930,162.054581 321.516693,162.948242 
	C322.048462,169.792725 322.048462,169.792725 330.431580,169.175064 
	C330.431580,166.099884 330.431580,163.084213 330.431580,160.068542 
	C329.163605,161.421326 329.382385,162.913925 328.882874,164.105377 
	C328.281006,165.540939 327.069061,166.720734 326.121216,168.011246 
	C325.317719,166.763000 324.415131,165.565842 323.738007,164.252441 
	C323.034821,162.888367 322.549713,161.411896 321.323853,159.930984 
	C320.892853,159.948868 320.461884,159.966751 319.286224,159.913620 
M150.130997,124.102303 
	C150.130997,121.789803 150.130997,119.477310 150.130997,117.164810 
	C149.595215,117.154114 149.059433,117.143425 148.523651,117.132729 
	C148.353439,119.888252 148.183243,122.643784 147.992203,125.736420 
	C146.406494,124.578262 145.256760,123.738548 144.016373,122.197685 
	C142.547653,120.423981 141.078918,118.650276 139.017883,116.161278 
	C139.017883,121.493019 139.017883,125.610710 139.017883,129.728394 
	C139.269455,129.742981 139.521027,129.757568 139.772614,129.772156 
	C139.961945,127.209633 140.151276,124.647110 140.380478,121.544960 
	C141.778992,122.569397 142.555771,123.138390 143.718124,124.254486 
	C145.048676,125.901100 146.277283,127.651566 147.777985,129.124863 
	C148.177521,129.517120 149.411133,129.059799 150.678314,128.554672 
	C150.809540,127.330666 155.239777,125.606178 150.130997,124.102303 
M293.090454,116.990593 
	C291.830444,116.990593 290.570404,116.990593 289.228577,116.990593 
	C289.228577,121.590469 289.228577,125.797585 289.228577,130.822266 
	C292.405884,130.084290 295.171631,129.441910 298.608856,128.471542 
	C301.863159,122.039993 300.306885,118.227715 293.090454,116.990593 
M344.220154,141.763718 
	C342.547302,141.109222 340.874451,140.454712 339.783966,140.028076 
	C341.269928,143.651871 342.553619,146.782425 344.303406,151.049637 
	C344.572418,147.126541 344.763855,144.334717 345.785980,141.714554 
	C346.162018,142.870789 346.943787,144.066315 346.836365,145.175751 
	C346.539917,148.238083 347.830109,149.369247 350.716370,149.112350 
	C347.900696,145.995255 348.235596,143.150391 351.601288,140.951157 
	C350.258423,139.830017 348.901825,138.697418 347.674744,137.672943 
	C346.789886,139.004700 345.905731,140.335342 344.220154,141.763718 
M177.467514,141.306519 
	C176.721313,141.254791 175.975113,141.203079 175.228912,141.151367 
	C175.228912,145.218979 175.228912,149.286591 175.228912,153.354202 
	C175.738678,153.348923 176.248444,153.343658 176.758209,153.338379 
	C176.866837,151.974686 176.975479,150.611008 177.840469,149.258804 
	C183.822845,151.072098 185.257950,149.852982 186.999847,142.241089 
	C187.199020,143.683151 187.477844,145.119537 187.580673,146.568451 
	C187.791397,149.538300 189.060440,150.737869 191.115707,149.975174 
	C190.488998,147.662964 189.646759,145.724304 189.611053,143.770950 
	C189.599060,143.113907 191.637375,142.419403 192.957428,142.443817 
	C194.138733,142.619675 195.320053,142.795517 196.501358,142.971375 
	C196.427841,142.347641 196.354324,141.723923 196.280807,141.100189 
	C195.104752,141.318893 193.928696,141.537598 192.292679,141.236313 
	C190.973679,140.097183 189.654663,138.958054 188.108002,137.622314 
	C187.515121,139.092133 186.882446,140.660660 185.386078,142.463577 
	C183.080872,140.384827 180.802719,137.964447 177.467514,141.306519 
M265.662537,161.131439 
	C263.683563,161.058502 261.092499,160.202255 259.899109,161.134705 
	C258.724762,162.052322 258.165466,165.071838 258.737427,166.666504 
	C260.555298,171.734650 264.703247,169.019547 267.322540,168.871811 
	C267.530884,167.868103 267.697357,167.066025 268.003998,165.431137 
	C267.229126,164.250061 266.454254,163.068985 265.662537,161.131439 
M208.628113,147.447418 
	C208.816635,145.360611 209.005157,143.273819 209.205215,141.059280 
	C208.583267,139.890762 207.622406,138.085510 206.175049,135.366211 
	C206.175049,140.784180 206.175049,145.280029 206.175049,149.831802 
	C207.111664,149.536392 208.020554,149.249725 209.379669,149.328613 
	C210.021439,149.658081 210.663223,149.987534 211.304993,150.316986 
	C211.459015,150.011368 211.613022,149.705734 211.767044,149.400116 
	C210.898422,148.928467 210.029816,148.456818 208.628113,147.447418 
M182.753540,128.087708 
	C186.300873,126.637665 185.347565,123.807312 183.557541,122.359703 
	C182.052567,121.142639 178.843307,120.563377 177.175751,121.356628 
	C174.583344,122.589844 173.497208,125.353569 176.145706,128.827728 
	C178.571594,131.898941 180.697250,132.850861 182.753540,128.087708 
M163.676071,120.126205 
	C161.704956,120.353416 159.733856,120.580627 157.371231,120.852966 
	C158.704361,122.717934 159.786316,124.231522 161.055481,126.007011 
	C158.820404,127.260223 156.913712,128.329315 154.184311,129.859711 
	C163.710968,131.208054 163.639053,130.290588 163.120590,124.744881 
	C163.038574,123.867638 163.667725,122.923912 164.725052,122.330490 
	C165.063538,124.818825 165.402008,127.307152 165.740494,129.795486 
	C165.953461,129.698135 166.166428,129.600800 166.379410,129.503448 
	C167.091278,126.645264 167.803146,123.787071 168.612717,120.536636 
	C168.177292,120.139908 166.925064,118.998940 165.584213,117.777229 
	C165.105957,118.766991 164.765137,119.472305 163.676071,120.126205 
M397.788483,122.636383 
	C397.046661,122.333549 396.211060,121.644440 395.579956,121.797661 
	C393.360291,122.336601 390.170746,122.537659 389.272644,124.026886 
	C387.836426,126.408455 389.109070,129.039642 393.046295,130.083603 
	C392.264282,128.524139 391.728912,127.456520 391.134399,126.270912 
	C393.695282,126.089424 395.841187,125.937340 398.738434,125.842857 
	C400.808350,130.504974 404.067963,131.766037 408.541626,129.044876 
	C406.819519,127.032600 400.246857,130.454453 402.184265,124.204796 
	C402.564575,122.977943 406.171265,122.751251 409.541107,121.657005 
	C409.569336,121.043175 409.660278,119.067360 409.751221,117.091553 
	C409.325378,117.046661 408.899567,117.001778 408.473724,116.956894 
	C408.200562,118.248421 407.927429,119.539955 407.655518,120.825592 
	C403.406189,120.138893 403.422913,120.157478 399.550476,123.641670 
	C399.317169,123.851578 398.487518,123.398651 397.788483,122.636383 
M344.296265,120.894135 
	C343.852905,119.425865 343.409546,117.957596 343.221191,117.333801 
	C340.640076,119.169067 338.114349,120.964943 335.149719,123.072914 
	C335.149719,124.319756 335.149719,126.699425 335.149719,129.079102 
	C335.554565,129.049545 335.959412,129.019989 336.364288,128.990433 
	C336.204956,126.991058 336.045593,124.991684 335.864655,122.721115 
	C337.304047,122.096367 338.846008,121.427071 341.114655,120.442383 
	C341.365936,123.895782 341.574646,126.763809 341.795135,129.793716 
	C342.891174,129.793716 343.957275,129.793716 345.609497,130.139832 
	C347.596558,129.390274 350.162842,129.137253 351.375000,127.723358 
	C352.239166,126.715370 351.977509,123.358116 350.967773,122.468307 
	C349.621002,121.281532 347.061401,121.471107 344.296265,120.894135 
M198.302261,68.439102 
	C198.214615,66.611755 198.146408,64.783241 198.036255,62.957256 
	C197.180328,48.768803 187.865692,36.376678 174.568420,34.446987 
	C163.623825,32.858704 152.355057,33.417988 141.227676,33.336460 
	C140.320068,33.329811 138.606125,35.714874 138.595734,36.999344 
	C138.428818,57.638775 138.504181,78.280022 138.447525,98.920647 
	C138.439667,101.782539 139.283875,103.134407 142.438110,103.061996 
	C150.922577,102.867226 159.415283,103.042618 167.900482,102.866470 
	C175.232834,102.714264 181.997467,100.711174 187.599503,95.705620 
	C195.487762,88.657272 198.065063,79.454247 198.302261,68.439102 
M298.683380,81.738213 
	C301.695068,87.660263 304.636597,93.619850 307.771484,99.475952 
	C308.487244,100.813019 309.780823,102.657013 310.962738,102.779518 
	C314.952606,103.193039 319.011810,102.937050 324.328918,102.937050 
	C318.985931,92.644882 314.298859,83.616142 309.644806,74.651031 
	C310.479095,73.978600 310.847992,73.652054 311.245544,73.365173 
	C319.800720,67.191154 323.010071,59.095848 320.686005,49.537716 
	C318.647919,41.155674 311.524628,34.818970 301.485352,33.930138 
	C292.057129,33.095413 282.522644,33.536766 273.050568,33.086891 
	C268.894989,32.889519 267.563812,34.220211 267.607849,38.415504 
	C267.800201,56.743542 267.633301,75.074997 267.711761,93.404724 
	C267.759399,104.531181 266.229401,102.627167 277.132416,103.104141 
	C281.595612,103.299400 282.406067,101.553169 282.248047,97.635971 
	C281.976196,90.897629 282.172821,84.140373 282.172821,77.172951 
	C286.168701,77.172951 289.349487,77.413933 292.476379,77.106514 
	C295.732361,76.786407 297.468262,78.114784 298.683380,81.738213 
M221.700043,90.077019 
	C228.517365,90.077019 235.334686,90.077019 242.317276,90.077019 
	C243.692276,93.420364 244.840134,96.691414 246.392212,99.757866 
	C247.046997,101.051506 248.478806,102.713158 249.687027,102.826576 
	C253.763214,103.209206 257.897522,102.972290 262.747833,102.972290 
	C262.121643,100.738625 261.844879,99.144470 261.240295,97.686203 
	C252.921600,77.621193 244.520844,57.590122 236.246078,37.507103 
	C235.048706,34.601025 233.667953,32.917366 230.113480,33.046429 
	C226.644135,33.172401 224.397720,33.726231 222.809448,37.397163 
	C214.177017,57.348972 205.208099,77.155037 196.414932,97.037766 
	C195.671524,98.718773 195.369156,100.594826 194.836594,102.469269 
	C208.634796,104.377228 209.598648,104.168762 213.411530,94.594940 
	C214.937576,90.763168 216.989685,89.437660 221.700043,90.077019 
M327.831360,91.593918 
	C337.931122,106.455818 359.265442,108.262894 372.010468,95.493568 
	C374.431335,93.068054 374.861603,91.355980 372.118500,89.040764 
	C369.884491,87.155190 368.480530,84.323051 364.998932,88.068939 
	C359.702118,93.767738 352.767578,94.284355 345.653625,91.890152 
	C340.701019,90.223343 338.036896,86.051888 338.323944,80.843735 
	C349.107269,80.843735 359.907074,80.831161 370.706787,80.853111 
	C373.214691,80.858208 375.456818,80.626434 375.487274,77.323914 
	C375.664612,58.093792 361.371521,46.396294 343.583588,50.600479 
	C326.332825,54.677711 318.885193,73.970245 327.831360,91.593918 
M21.971891,25.426559 
	C19.265285,14.985509 16.821020,13.671254 9.047977,18.736080 
	C11.998062,27.984678 15.007889,37.288445 17.930775,46.619442 
	C21.132326,56.840061 21.100187,56.975517 31.862133,56.729824 
	C33.452538,56.693508 35.942539,55.159519 36.419842,53.770031 
	C40.083431,43.104923 43.371155,32.310093 46.725670,21.539997 
	C47.313713,19.652016 48.181362,17.154928 44.939476,17.143972 
	C42.272785,17.134960 38.683868,13.506660 36.960506,18.582552 
	C35.573563,22.667559 34.326691,26.800344 33.033627,30.916939 
	C31.692900,35.185276 30.371367,39.459641 29.041439,43.731369 
	C28.597565,43.684341 28.153690,43.637314 27.709814,43.590286 
	C25.862543,37.795692 24.015274,32.001102 21.971891,25.426559 
M64.078201,47.602234 
	C62.149406,49.189846 60.220615,50.777462 58.291824,52.365074 
	C58.837044,44.188965 60.466267,36.796619 61.987072,29.382038 
	C63.487221,22.068150 62.613464,21.037800 54.378765,20.188679 
	C54.126328,20.702696 53.698532,21.250654 53.582306,21.858217 
	C51.337845,33.591049 49.038673,45.315418 47.045200,57.091373 
	C46.828526,58.371300 48.163540,60.204166 49.245750,61.332855 
	C50.349335,62.483837 52.140041,62.940670 53.433105,63.952839 
	C55.916073,65.896423 57.815384,65.806847 60.293808,63.548382 
	C67.412827,57.061157 74.821213,50.891647 82.110779,44.591366 
	C88.664665,38.926910 88.665688,38.918060 81.774155,33.820450 
	C81.410576,33.551514 80.884155,33.502739 80.184555,33.267887 
	C75.010811,37.861225 69.801704,42.485966 64.078201,47.602234 
M111.514038,76.535980 
	C108.909576,68.508972 109.747284,69.506554 101.939331,70.917236 
	C100.633003,71.153259 99.339577,71.462166 98.031540,71.687065 
	C91.785080,72.761032 85.535645,73.817642 79.287262,74.880432 
	C78.999229,74.423882 78.711197,73.967331 78.423157,73.510780 
	C84.960968,65.788780 91.498779,58.066784 98.152054,50.208397 
	C96.139694,47.958405 94.517097,46.144203 92.507317,43.897091 
	C90.414406,46.146175 88.579811,48.000851 86.876968,49.969486 
	C81.769569,55.874104 76.753944,61.858334 71.626862,67.745628 
	C65.903542,74.317566 65.980087,74.225281 70.069237,81.798141 
	C71.501724,84.451035 73.051498,85.259506 76.023895,84.587746 
	C81.200882,83.417747 86.502464,82.809753 91.703423,81.732483 
	C98.289612,80.368294 104.827431,78.770592 111.514038,76.535980 
M109.483154,92.955093 
	C115.706970,90.718575 115.818871,90.431870 112.622322,83.669495 
	C103.044289,87.091431 93.410835,90.566971 83.752876,93.973022 
	C75.930161,96.731850 76.123299,96.700943 75.883484,104.730362 
	C75.776176,108.323021 76.802704,110.050087 80.316391,111.195190 
	C89.793549,114.283791 99.093788,117.913345 108.555527,121.053139 
	C110.104485,121.567146 113.286789,121.226204 113.695091,120.344925 
	C114.901154,117.741753 114.974625,115.016098 110.991341,113.827576 
	C105.107376,112.071915 99.368980,109.819283 93.597023,107.700813 
	C90.111198,106.421410 86.679161,104.995438 83.222961,103.635323 
	C83.237175,103.231606 83.251389,102.827888 83.265602,102.424171 
	C91.761513,99.350342 100.257423,96.276505 109.483154,92.955093 
M98.675415,125.908028 
	C92.277611,124.918152 85.762527,124.389206 79.517181,122.800133 
	C74.004890,121.397591 71.364731,123.245033 69.303551,128.138351 
	C68.180008,130.805664 68.032578,132.527298 69.961624,134.779175 
	C74.171951,139.694107 78.085442,144.862167 82.168839,149.887299 
	C85.381554,153.840912 88.667099,157.735367 91.864143,161.588440 
	C96.352844,159.282516 96.729530,156.967545 93.804466,153.557129 
	C88.510925,147.385254 83.498840,140.970749 78.418915,134.617828 
	C77.351906,133.283447 76.499367,131.777573 75.138382,129.736343 
	C76.827805,129.618896 77.599731,129.425323 78.325203,129.536087 
	C87.184288,130.888535 96.063553,132.136597 104.879440,133.732788 
	C109.431305,134.556931 111.483887,133.171021 111.163193,127.940315 
	C107.302635,127.293846 103.424225,126.644386 98.675415,125.908028 
M56.513523,160.931625 
	C56.076962,157.159988 55.640396,153.388367 55.203831,149.616730 
	C55.708477,149.461304 56.213123,149.305893 56.717770,149.150467 
	C64.753960,155.289597 72.886261,161.308716 80.777145,167.629242 
	C83.767609,170.024567 85.654236,169.923218 87.526291,166.091339 
	C86.369255,165.047318 85.230141,163.879639 83.953026,162.890076 
	C76.464508,157.087540 68.967979,151.294647 61.417614,145.573105 
	C59.411839,144.053162 57.635143,141.716873 54.488159,144.068695 
	C51.583942,146.239105 48.071815,147.390396 49.710846,152.454178 
	C50.864189,156.017441 50.638866,160.015350 51.135452,163.805252 
	C52.095268,171.130432 53.130188,178.445786 54.116070,185.634659 
	C58.621540,185.823090 59.431248,183.841782 58.993526,180.617737 
	C58.143711,174.358459 57.440422,168.079285 56.513523,160.931625 
M13.789958,176.232498 
	C12.170837,179.986328 10.551717,183.740158 8.932596,187.494003 
	C9.369092,187.960037 9.805588,188.426071 10.242084,188.892105 
	C11.571247,187.975754 13.523357,187.357056 14.126877,186.093979 
	C17.630491,178.761490 20.792501,171.266464 24.124014,163.850647 
	C25.243494,161.358734 26.521236,158.937943 28.267303,155.384262 
	C29.614954,157.935333 30.434698,159.291656 31.073502,160.728424 
	C34.850769,169.224167 38.507988,177.774902 42.430386,186.202499 
	C42.942886,187.303665 44.744877,187.804657 45.949596,188.583633 
	C46.163586,187.202164 46.964520,185.570999 46.499657,184.478333 
	C42.404560,174.852844 38.007805,165.356018 33.879967,155.743958 
	C32.728046,153.061615 31.176054,152.089981 28.227732,152.085571 
	C25.197842,152.081055 23.742405,153.326813 22.647051,155.918488 
	C19.869787,162.489639 16.915180,168.985825 13.789958,176.232498 
M287.645081,136.857132 
	C285.527557,136.857132 283.410004,136.857132 281.731079,136.857132 
	C281.731079,141.580307 281.731079,145.796402 281.731079,150.012482 
	C282.055298,149.999695 282.379517,149.986893 282.703766,149.974091 
	C282.924286,148.398224 283.144806,146.822342 283.584930,143.677185 
	C286.306976,146.244720 288.281372,148.107056 289.548187,149.301956 
	C289.971130,147.067093 290.878326,144.406403 290.824585,141.765259 
	C290.791809,140.155853 289.278564,138.576599 287.645081,136.857132 
M247.781586,130.220062 
	C251.673203,130.852966 254.122849,129.260910 254.040131,125.278404 
	C253.958237,121.335175 251.518951,120.044579 247.623367,120.530586 
	C246.545670,120.665039 245.254486,119.088211 243.640945,118.017685 
	C243.640945,120.482681 243.959274,122.973541 243.561356,125.344185 
	C243.049866,128.391388 244.499023,129.477859 247.781586,130.220062 
M158.985519,137.603455 
	C158.985519,138.590286 158.985519,139.577103 158.985519,140.624023 
	C153.696259,139.426407 150.514725,140.705124 150.451096,144.362549 
	C150.303131,152.869675 156.967056,148.506775 161.038147,149.820755 
	C161.038147,145.733398 161.100143,141.910797 160.956467,138.095947 
	C160.939285,137.640045 159.802841,137.226303 158.985519,137.603455 
M220.987030,119.563103 
	C220.704025,118.684891 220.421005,117.806679 220.138000,116.928474 
	C219.959595,117.011459 219.781174,117.094444 219.602768,117.177429 
	C219.602768,121.451225 219.602768,125.725021 219.602768,129.998810 
	C219.912170,129.997711 220.221558,129.996597 220.530960,129.995499 
	C220.852798,128.162292 221.174622,126.329102 221.472076,124.634857 
	C223.609985,124.634857 225.401642,124.634857 227.299423,124.634857 
	C227.648758,126.595238 227.959824,128.340881 228.270905,130.086533 
	C228.575577,130.030045 228.880264,129.973572 229.184937,129.917099 
	C229.184937,125.657310 229.184937,121.397522 229.184937,117.137726 
	C228.859604,117.116539 228.534271,117.095345 228.208954,117.074158 
	C227.922089,118.929703 227.635239,120.785255 227.292191,123.004387 
	C225.078033,121.914742 221.675262,125.086769 220.987030,119.563103 
M193.865753,162.313660 
	C194.756088,162.659653 195.646423,163.005646 197.337494,163.662827 
	C194.664413,157.115540 190.646103,160.705780 187.428040,160.470337 
	C187.428040,164.977325 187.428040,169.112411 187.428040,173.247498 
	C187.978226,173.305801 188.528412,173.364105 189.078598,173.422409 
	C189.452652,170.887833 189.561066,168.271835 190.303391,165.850143 
	C190.728287,164.463928 192.183975,163.393707 193.865753,162.313660 
M360.602325,129.989670 
	C363.524597,128.364929 364.819641,125.751671 362.849762,123.060509 
	C361.789154,121.611526 358.576904,120.269371 357.227112,120.872978 
	C355.551270,121.622398 353.848480,124.436554 353.852844,126.355057 
	C353.860748,129.840363 356.591309,130.908020 360.602325,129.989670 
M342.619049,161.189072 
	C339.210144,160.982269 338.805328,163.310883 339.274689,165.703079 
	C339.532349,167.016312 340.849365,168.121674 341.688721,169.320770 
	C341.977264,169.145401 342.265778,168.970032 342.554321,168.794662 
	C342.249390,167.835312 341.944458,166.875961 341.569183,165.695267 
	C344.177460,165.465912 346.523712,165.259613 348.919189,165.048965 
	C348.485199,160.839600 345.990692,160.656418 342.619049,161.189072 
M145.928665,158.339447 
	C146.952026,158.136505 147.975388,157.933563 148.998749,157.730621 
	C148.965942,157.451569 148.933121,157.172516 148.900299,156.893463 
	C145.142838,156.893463 141.385361,156.893463 137.627884,156.893463 
	C137.611252,157.175430 137.594620,157.457413 137.577988,157.739380 
	C139.052322,158.140457 140.526672,158.541519 141.939819,158.925949 
	C142.129486,162.732529 142.303345,166.221725 142.477203,169.710938 
	C142.891754,169.649811 143.306290,169.588684 143.720840,169.527573 
	C144.170654,165.847336 144.620483,162.167099 145.928665,158.339447 
M239.330734,161.618301 
	C240.575287,164.265518 241.819839,166.912750 243.064392,169.559967 
	C243.465637,169.508209 243.866867,169.456451 244.268112,169.404694 
	C243.610062,166.502411 243.591187,163.157227 242.019028,160.888336 
	C241.255295,159.786133 237.585129,160.697845 235.057343,160.697845 
	C235.638016,163.903412 236.031906,166.077850 236.425797,168.252289 
	C235.877823,168.113876 235.329865,167.975479 234.781906,167.837082 
	C236.011536,165.807266 237.241165,163.777466 239.330734,161.618301 
M330.688934,125.612602 
	C328.827911,126.870575 326.966919,128.128555 325.105927,129.386536 
	C325.210175,129.849350 325.314453,130.312164 325.418732,130.774994 
	C327.725708,130.474670 330.770111,130.943787 332.122528,129.647522 
	C333.359497,128.461960 333.384644,125.178055 332.771759,123.178009 
	C332.334381,121.750710 329.956787,120.917946 328.445007,119.819885 
	C328.122528,120.208702 327.800049,120.597519 327.477570,120.986336 
	C328.519104,122.302902 329.560669,123.619476 330.688934,125.612602 
M369.434357,122.156021 
	C371.023285,124.682304 372.612213,127.208588 373.990662,129.400238 
	C376.384857,122.495293 374.499176,120.383537 365.940002,122.163330 
	C366.914185,122.248573 367.888397,122.333817 369.434357,122.156021 
M262.072601,119.546165 
	C262.906891,118.620026 263.741180,117.693893 264.575470,116.767754 
	C262.925476,116.575050 260.526428,117.072433 260.461609,117.782799 
	C260.093506,121.817055 260.283356,125.902206 260.283356,129.970047 
	C260.556671,129.953369 260.830017,129.936691 261.103333,129.920013 
	C261.907135,126.936554 262.710968,123.953102 263.588959,120.694290 
	C263.874054,120.800201 263.128571,120.523262 262.072601,119.546165 
M208.046371,161.454727 
	C205.808807,161.230301 203.358368,160.369766 201.413727,161.020599 
	C200.251831,161.409439 199.366180,164.157867 199.337311,165.862244 
	C199.317871,167.011200 201.010727,168.189133 202.344208,169.865173 
	C201.990128,166.938461 201.466660,165.108139 201.728500,163.398041 
	C201.817993,162.813507 204.619873,161.887390 204.909164,162.221100 
	C206.172241,163.678223 206.967133,165.541138 208.505844,168.277054 
	C208.505844,165.676666 208.505844,163.896072 208.046371,161.454727 
M163.921219,160.405594 
	C162.128189,160.255936 160.335144,160.106293 158.649612,159.965607 
	C158.055893,163.311996 167.402115,162.705841 161.496429,168.030380 
	C162.032623,168.406784 162.514465,168.852417 163.081161,169.114624 
	C163.732483,169.415985 164.458923,169.555023 166.662674,170.220627 
	C165.804047,166.289139 165.177017,163.418137 163.921219,160.405594 
M171.273331,161.831467 
	C172.415329,163.024567 173.881271,164.052368 174.600204,165.461349 
	C175.211319,166.659012 174.961121,168.296158 175.091995,169.738861 
	C175.601257,169.705978 176.110504,169.673080 176.619751,169.640198 
	C176.619751,167.610397 176.917160,165.526108 176.557281,163.562256 
	C175.829147,159.588989 171.602341,158.390015 168.696030,161.246735 
	C168.363129,161.573944 168.635117,162.516541 168.626648,163.173798 
	C169.263840,162.809280 169.901047,162.444748 171.273331,161.831467 
M317.346069,136.270752 
	C314.893250,140.819809 316.452118,145.331345 316.403992,149.857895 
	C316.938049,149.859879 317.472107,149.861862 318.006165,149.863831 
	C318.006165,145.490997 318.006165,141.118149 317.346069,136.270752 
M281.163177,169.218018 
	C282.294647,169.484192 283.426147,169.750381 285.835846,170.317261 
	C281.051880,166.254395 281.139984,163.299744 284.737244,160.783035 
	C283.513397,159.624466 282.287933,158.464355 280.865875,157.118164 
	C278.336456,160.964584 280.196289,164.767136 281.163177,169.218018 
M200.451248,146.728516 
	C198.323593,146.933197 196.195923,147.137878 194.271210,147.323029 
	C196.106384,150.509293 196.477432,150.594894 204.183105,148.958939 
	C204.000595,146.544601 203.813171,144.065262 203.625732,141.585922 
	C203.266006,141.587555 202.906296,141.589188 202.546570,141.590820 
	C201.968521,143.095276 201.390472,144.599731 200.451248,146.728516 
M222.598816,159.926926 
	C221.713974,159.053619 220.829117,158.180328 220.080109,157.441101 
	C219.124313,158.460464 218.183777,159.463547 217.655502,160.026962 
	C218.400757,162.710648 219.266083,165.826752 220.067825,168.713852 
	C221.217422,165.699203 222.302826,162.852905 222.598816,159.926926 
M293.634125,165.209000 
	C293.732697,168.989685 295.352722,170.638596 298.269684,169.886154 
	C297.321106,167.147156 296.585968,164.805527 295.685944,162.529083 
	C295.303955,161.562958 294.576141,160.733597 294.005493,159.842072 
	C293.738678,160.059525 293.471893,160.276993 293.205078,160.494461 
	C293.317108,161.821701 293.429138,163.148956 293.634125,165.209000 
M248.966003,157.370132 
	C249.596878,157.098068 250.227753,156.826019 251.509903,156.273117 
	C245.420074,155.934387 244.946121,157.393295 246.562256,171.010117 
	C247.800186,166.559433 248.681503,163.390839 249.592010,160.117294 
	C249.414642,159.792252 248.888489,158.828064 248.966003,157.370132 
M231.880371,157.421906 
	C231.276566,157.387924 230.672760,157.353943 230.068954,157.319977 
	C230.068954,161.441605 230.068954,165.563232 230.068954,169.684875 
	C230.702667,169.687714 231.336395,169.690552 231.970108,169.693390 
	C231.970108,165.886459 231.970108,162.079529 231.880371,157.421906 
M219.908325,138.027252 
	C219.631607,137.394211 219.354889,136.761169 219.078171,136.128143 
	C218.859940,136.191940 218.641693,136.255722 218.423462,136.319519 
	C218.423462,140.812363 218.423462,145.305206 218.423462,149.798050 
	C218.922607,149.812363 219.421768,149.826675 219.920914,149.840988 
	C219.920914,146.202118 219.920914,142.563248 219.908325,138.027252 
M211.428314,129.922455 
	C211.619202,125.580582 211.810104,121.238708 212.001007,116.896843 
	C211.306061,116.904770 210.611115,116.912697 209.916168,116.920624 
	C210.109024,121.269180 210.301880,125.617729 211.428314,129.922455 
M215.861740,148.075150 
	C218.297226,144.245804 216.233139,142.637817 213.575729,141.682022 
	C213.575729,143.967880 213.550629,146.141602 213.651688,148.309448 
	C213.656601,148.415161 214.767349,148.469330 215.861740,148.075150 
M158.015320,167.266327 
	C156.900085,166.369522 155.784851,165.472733 154.669617,164.575943 
	C154.386200,164.900391 154.102798,165.224854 153.819382,165.549301 
	C155.081985,166.810898 156.344574,168.072479 157.607178,169.334061 
	C157.898239,168.787048 158.189301,168.240036 158.015320,167.266327 
M323.164520,121.510536 
	C323.173706,122.256088 323.182892,123.001648 323.192078,123.747215 
	C323.969879,123.362709 324.747681,122.978203 325.525482,122.593674 
	C324.937653,122.134399 324.349823,121.675133 323.164520,121.510536 
M197.476395,166.635910 
	C196.409134,167.131195 195.341873,167.626480 194.274612,168.121765 
	C194.829941,168.745270 195.385254,169.368759 195.940582,169.992264 
	C196.485840,169.070450 197.031097,168.148651 197.476395,166.635910 
M163.603226,142.209671 
	C163.085709,143.474182 162.568176,144.738678 162.050644,146.003189 
	C162.581512,146.101212 163.112381,146.199234 163.643234,146.297272 
	C163.734116,145.097977 163.824997,143.898697 163.603226,142.209671 
M155.327850,122.984879 
	C154.795975,122.401360 154.264114,121.817833 153.732239,121.234314 
	C153.318466,121.826065 152.904694,122.417816 152.490921,123.009567 
	C153.277847,123.153481 154.064758,123.297386 155.327850,122.984879 
M204.194717,128.933334 
	C205.155228,129.517944 206.115738,130.102570 207.076248,130.687180 
	C207.284042,130.217239 207.491852,129.747284 207.699646,129.277328 
	C206.500946,128.981064 205.302231,128.684784 204.194717,128.933334 
M164.666687,149.646286 
	C165.618439,149.458618 166.570206,149.270935 167.521957,149.083252 
	C167.357773,148.688507 167.193573,148.293762 167.029388,147.899017 
	C166.086380,148.392838 165.143372,148.886658 164.666687,149.646286 
M200.599579,120.729218 
	C201.802002,121.023315 203.004425,121.317421 204.206848,121.611519 
	C204.244858,121.173370 204.282852,120.735229 204.320862,120.297081 
	C203.187286,120.297081 202.053711,120.297081 200.599579,120.729218 
M240.213318,144.507782 
	C240.511017,144.805023 240.808716,145.102264 241.106384,145.399521 
	C241.315826,145.032852 241.525269,144.666199 241.734711,144.299530 
	C241.269638,144.194595 240.804565,144.089645 240.213318,144.507782 
M331.750244,141.177200 
	C331.303894,141.339966 330.857544,141.502716 330.411163,141.665482 
	C330.550629,141.927551 330.690094,142.189621 330.829590,142.451706 
	C331.155945,142.183319 331.482269,141.914948 331.750244,141.177200 
M199.556534,141.156876 
	C199.522415,141.452301 199.488297,141.747711 199.454178,142.043137 
	C199.822235,141.898727 200.190308,141.754318 200.558365,141.609909 
	C200.330902,141.360519 200.103439,141.111145 199.556534,141.156876 
M321.751373,126.470001 
	C321.943726,126.194870 322.136078,125.919731 322.328400,125.644600 
	C322.043121,125.821030 321.757812,125.997459 321.751373,126.470001 
M319.559875,168.503510 
	C319.815552,168.570999 320.071198,168.638474 320.326874,168.705948 
	C320.161163,168.541031 319.995453,168.376099 319.559875,168.503510 
M323.510651,129.436417 
	C323.510651,129.436417 323.546692,129.508972 323.510651,129.436417 
M321.563416,128.510818 
	C321.563416,128.510818 321.490936,128.546753 321.563416,128.510818 
z"/>
<path fill="#F8F9FA" opacity="1.000000" stroke="none" 
	d="
M198.258698,68.862518 
	C198.065063,79.454247 195.487762,88.657272 187.599503,95.705620 
	C181.997467,100.711174 175.232834,102.714264 167.900482,102.866470 
	C159.415283,103.042618 150.922577,102.867226 142.438110,103.061996 
	C139.283875,103.134407 138.439667,101.782539 138.447525,98.920647 
	C138.504181,78.280022 138.428818,57.638775 138.595734,36.999344 
	C138.606125,35.714874 140.320068,33.329811 141.227676,33.336460 
	C152.355057,33.417988 163.623825,32.858704 174.568420,34.446987 
	C187.865692,36.376678 197.180328,48.768803 198.036255,62.957256 
	C198.146408,64.783241 198.214615,66.611755 198.258698,68.862518 
M181.779221,79.878517 
	C182.167938,73.495667 183.203323,67.066895 182.754288,60.743538 
	C182.346695,55.003811 178.927322,49.977234 172.984558,48.787926 
	C166.647995,47.519798 160.031311,47.651268 153.402344,47.161777 
	C153.402344,61.618538 153.402344,74.866035 153.402344,88.413132 
	C158.724960,88.413132 163.827682,88.516151 168.924423,88.385567 
	C174.568939,88.240944 178.625381,85.364388 181.779221,79.878517 
z"/>
<path fill="#FBFBFC" opacity="1.000000" stroke="none" 
	d="
M298.481323,81.409271 
	C297.468262,78.114784 295.732361,76.786407 292.476379,77.106514 
	C289.349487,77.413933 286.168701,77.172951 282.172821,77.172951 
	C282.172821,84.140373 281.976196,90.897629 282.248047,97.635971 
	C282.406067,101.553169 281.595612,103.299400 277.132416,103.104141 
	C266.229401,102.627167 267.759399,104.531181 267.711761,93.404724 
	C267.633301,75.074997 267.800201,56.743542 267.607849,38.415504 
	C267.563812,34.220211 268.894989,32.889519 273.050568,33.086891 
	C282.522644,33.536766 292.057129,33.095413 301.485352,33.930138 
	C311.524628,34.818970 318.647919,41.155674 320.686005,49.537716 
	C323.010071,59.095848 319.800720,67.191154 311.245544,73.365173 
	C310.847992,73.652054 310.479095,73.978600 309.644806,74.651031 
	C314.298859,83.616142 318.985931,92.644882 324.328918,102.937050 
	C319.011810,102.937050 314.952606,103.193039 310.962738,102.779518 
	C309.780823,102.657013 308.487244,100.813019 307.771484,99.475952 
	C304.636597,93.619850 301.695068,87.660263 298.481323,81.409271 
M306.491394,59.466595 
	C308.082275,52.088932 306.094452,47.122253 300.105164,46.278244 
	C294.353119,45.467670 288.397308,46.103081 282.537537,46.103081 
	C282.537537,52.460487 282.537537,58.646324 282.537537,64.998070 
	C287.375183,64.998070 291.844940,64.998863 296.314728,64.997833 
	C300.367981,64.996902 303.753235,63.652050 306.491394,59.466595 
z"/>
<path fill="#FAFBFC" opacity="1.000000" stroke="none" 
	d="
M221.232758,90.077019 
	C216.989685,89.437660 214.937576,90.763168 213.411530,94.594940 
	C209.598648,104.168762 208.634796,104.377228 194.836594,102.469269 
	C195.369156,100.594826 195.671524,98.718773 196.414932,97.037766 
	C205.208099,77.155037 214.177017,57.348972 222.809448,37.397163 
	C224.397720,33.726231 226.644135,33.172401 230.113480,33.046429 
	C233.667953,32.917366 235.048706,34.601025 236.246078,37.507103 
	C244.520844,57.590122 252.921600,77.621193 261.240295,97.686203 
	C261.844879,99.144470 262.121643,100.738625 262.747833,102.972290 
	C257.897522,102.972290 253.763214,103.209206 249.687027,102.826576 
	C248.478806,102.713158 247.046997,101.051506 246.392212,99.757866 
	C244.840134,96.691414 243.692276,93.420364 242.317276,90.077019 
	C235.334686,90.077019 228.517365,90.077019 221.232758,90.077019 
M227.011612,60.644447 
	C224.716690,66.712105 222.421753,72.779755 220.100128,78.918015 
	C226.360321,78.918015 232.018311,78.918015 238.022736,78.918015 
	C235.127319,70.859947 232.399170,63.267353 229.488632,55.167213 
	C228.594635,57.022842 227.895569,58.473862 227.011612,60.644447 
z"/>
<path fill="#F8F9FB" opacity="1.000000" stroke="none" 
	d="
M327.638550,91.273071 
	C318.885193,73.970245 326.332825,54.677711 343.583588,50.600479 
	C361.371521,46.396294 375.664612,58.093792 375.487274,77.323914 
	C375.456818,80.626434 373.214691,80.858208 370.706787,80.853111 
	C359.907074,80.831161 349.107269,80.843735 338.323944,80.843735 
	C338.036896,86.051888 340.701019,90.223343 345.653625,91.890152 
	C352.767578,94.284355 359.702118,93.767738 364.998932,88.068939 
	C368.480530,84.323051 369.884491,87.155190 372.118500,89.040764 
	C374.861603,91.355980 374.431335,93.068054 372.010468,95.493568 
	C359.265442,108.262894 337.931122,106.455818 327.638550,91.273071 
M356.352386,61.906441 
	C346.059265,58.403549 339.092438,61.987267 337.474396,71.707031 
	C345.858154,71.707031 354.223938,71.707031 362.589722,71.707031 
	C362.975403,71.329788 363.361084,70.952553 363.746765,70.575310 
	C361.513672,67.795303 359.280609,65.015305 356.352386,61.906441 
z"/>
<path fill="#5BCA6F" opacity="1.000000" stroke="none" 
	d="
M22.069946,25.816534 
	C24.015274,32.001102 25.862543,37.795692 27.709814,43.590286 
	C28.153690,43.637314 28.597565,43.684341 29.041439,43.731369 
	C30.371367,39.459641 31.692900,35.185276 33.033627,30.916939 
	C34.326691,26.800344 35.573563,22.667559 36.960506,18.582552 
	C38.683868,13.506660 42.272785,17.134960 44.939476,17.143972 
	C48.181362,17.154928 47.313713,19.652016 46.725670,21.539997 
	C43.371155,32.310093 40.083431,43.104923 36.419842,53.770031 
	C35.942539,55.159519 33.452538,56.693508 31.862133,56.729824 
	C21.100187,56.975517 21.132326,56.840061 17.930775,46.619442 
	C15.007889,37.288445 11.998062,27.984678 9.047977,18.736080 
	C16.821020,13.671254 19.265285,14.985509 22.069946,25.816534 
z"/>
<path fill="#5BCA6F" opacity="1.000000" stroke="none" 
	d="
M64.335396,47.356468 
	C69.801704,42.485966 75.010811,37.861225 80.184555,33.267887 
	C80.884155,33.502739 81.410576,33.551514 81.774155,33.820450 
	C88.665688,38.918060 88.664665,38.926910 82.110779,44.591366 
	C74.821213,50.891647 67.412827,57.061157 60.293808,63.548382 
	C57.815384,65.806847 55.916073,65.896423 53.433105,63.952839 
	C52.140041,62.940670 50.349335,62.483837 49.245750,61.332855 
	C48.163540,60.204166 46.828526,58.371300 47.045200,57.091373 
	C49.038673,45.315418 51.337845,33.591049 53.582306,21.858217 
	C53.698532,21.250654 54.126328,20.702696 54.378765,20.188679 
	C62.613464,21.037800 63.487221,22.068150 61.987072,29.382038 
	C60.466267,36.796619 58.837044,44.188965 58.291824,52.365074 
	C60.220615,50.777462 62.149406,49.189846 64.335396,47.356468 
z"/>
<path fill="#5BC96F" opacity="1.000000" stroke="none" 
	d="
M111.450073,76.904785 
	C104.827431,78.770592 98.289612,80.368294 91.703423,81.732483 
	C86.502464,82.809753 81.200882,83.417747 76.023895,84.587746 
	C73.051498,85.259506 71.501724,84.451035 70.069237,81.798141 
	C65.980087,74.225281 65.903542,74.317566 71.626862,67.745628 
	C76.753944,61.858334 81.769569,55.874104 86.876968,49.969486 
	C88.579811,48.000851 90.414406,46.146175 92.507317,43.897091 
	C94.517097,46.144203 96.139694,47.958405 98.152054,50.208397 
	C91.498779,58.066784 84.960968,65.788780 78.423157,73.510780 
	C78.711197,73.967331 78.999229,74.423882 79.287262,74.880432 
	C85.535645,73.817642 91.785080,72.761032 98.031540,71.687065 
	C99.339577,71.462166 100.633003,71.153259 101.939331,70.917236 
	C109.747284,69.506554 108.909576,68.508972 111.450073,76.904785 
z"/>
<path fill="#5AC76F" opacity="1.000000" stroke="none" 
	d="
M109.118240,93.078888 
	C100.257423,96.276505 91.761513,99.350342 83.265602,102.424171 
	C83.251389,102.827888 83.237175,103.231606 83.222961,103.635323 
	C86.679161,104.995438 90.111198,106.421410 93.597023,107.700813 
	C99.368980,109.819283 105.107376,112.071915 110.991341,113.827576 
	C114.974625,115.016098 114.901154,117.741753 113.695091,120.344925 
	C113.286789,121.226204 110.104485,121.567146 108.555527,121.053139 
	C99.093788,117.913345 89.793549,114.283791 80.316391,111.195190 
	C76.802704,110.050087 75.776176,108.323021 75.883484,104.730362 
	C76.123299,96.700943 75.930161,96.731850 83.752876,93.973022 
	C93.410835,90.566971 103.044289,87.091431 112.622322,83.669495 
	C115.818871,90.431870 115.706970,90.718575 109.118240,93.078888 
z"/>
<path fill="#59C66F" opacity="1.000000" stroke="none" 
	d="
M99.110619,125.951477 
	C103.424225,126.644386 107.302635,127.293846 111.163193,127.940315 
	C111.483887,133.171021 109.431305,134.556931 104.879440,133.732788 
	C96.063553,132.136597 87.184288,130.888535 78.325203,129.536087 
	C77.599731,129.425323 76.827805,129.618896 75.138382,129.736343 
	C76.499367,131.777573 77.351906,133.283447 78.418915,134.617828 
	C83.498840,140.970749 88.510925,147.385254 93.804466,153.557129 
	C96.729530,156.967545 96.352844,159.282516 91.864143,161.588440 
	C88.667099,157.735367 85.381554,153.840912 82.168839,149.887299 
	C78.085442,144.862167 74.171951,139.694107 69.961624,134.779175 
	C68.032578,132.527298 68.180008,130.805664 69.303551,128.138351 
	C71.364731,123.245033 74.004890,121.397591 79.517181,122.800133 
	C85.762527,124.389206 92.277611,124.918152 99.110619,125.951477 
z"/>
<path fill="#58C46F" opacity="1.000000" stroke="none" 
	d="
M56.594978,161.369995 
	C57.440422,168.079285 58.143711,174.358459 58.993526,180.617737 
	C59.431248,183.841782 58.621540,185.823090 54.116070,185.634659 
	C53.130188,178.445786 52.095268,171.130432 51.135452,163.805252 
	C50.638866,160.015350 50.864189,156.017441 49.710846,152.454178 
	C48.071815,147.390396 51.583942,146.239105 54.488159,144.068695 
	C57.635143,141.716873 59.411839,144.053162 61.417614,145.573105 
	C68.967979,151.294647 76.464508,157.087540 83.953026,162.890076 
	C85.230141,163.879639 86.369255,165.047318 87.526291,166.091339 
	C85.654236,169.923218 83.767609,170.024567 80.777145,167.629242 
	C72.886261,161.308716 64.753960,155.289597 56.717770,149.150467 
	C56.213123,149.305893 55.708477,149.461304 55.203831,149.616730 
	C55.640396,153.388367 56.076962,157.159988 56.594978,161.369995 
z"/>
<path fill="#56C06E" opacity="1.000000" stroke="none" 
	d="
M13.910774,175.872269 
	C16.915180,168.985825 19.869787,162.489639 22.647051,155.918488 
	C23.742405,153.326813 25.197842,152.081055 28.227732,152.085571 
	C31.176054,152.089981 32.728046,153.061615 33.879967,155.743958 
	C38.007805,165.356018 42.404560,174.852844 46.499657,184.478333 
	C46.964520,185.570999 46.163586,187.202164 45.949600,188.583618 
	C44.744877,187.804657 42.942886,187.303665 42.430386,186.202499 
	C38.507988,177.774902 34.850769,169.224167 31.073502,160.728424 
	C30.434698,159.291656 29.614954,157.935333 28.267303,155.384262 
	C26.521236,158.937943 25.243494,161.358734 24.124014,163.850647 
	C20.792501,171.266464 17.630491,178.761490 14.126877,186.093979 
	C13.523357,187.357056 11.571247,187.975754 10.242084,188.892105 
	C9.805588,188.426071 9.369092,187.960037 8.932596,187.494003 
	C10.551717,183.740158 12.170837,179.986328 13.910774,175.872269 
z"/>
<path fill="#D1D8E2" opacity="1.000000" stroke="none" 
	d="
M288.037689,136.920471 
	C289.278564,138.576599 290.791809,140.155853 290.824585,141.765259 
	C290.878326,144.406403 289.971130,147.067093 289.548187,149.301956 
	C288.281372,148.107056 286.306976,146.244720 283.584930,143.677185 
	C283.144806,146.822342 282.924286,148.398224 282.703766,149.974091 
	C282.379517,149.986893 282.055298,149.999695 281.731079,150.012482 
	C281.731079,145.796402 281.731079,141.580307 281.731079,136.857132 
	C283.410004,136.857132 285.527557,136.857132 288.037689,136.920471 
z"/>
<path fill="#CED6E0" opacity="1.000000" stroke="none" 
	d="
M345.023376,129.793716 
	C343.957275,129.793716 342.891174,129.793716 341.795135,129.793716 
	C341.574646,126.763809 341.365936,123.895782 341.114655,120.442383 
	C338.846008,121.427071 337.304047,122.096367 335.864655,122.721115 
	C336.045593,124.991684 336.204956,126.991058 336.364288,128.990433 
	C335.959412,129.019989 335.554565,129.049545 335.149719,129.079102 
	C335.149719,126.699425 335.149719,124.319756 335.149719,123.072914 
	C338.114349,120.964943 340.640076,119.169067 343.221191,117.333801 
	C343.409546,117.957596 343.852905,119.425865 344.679474,121.296059 
	C345.076630,121.907433 345.090546,122.116875 344.929016,122.626503 
	C344.909729,124.761063 345.065857,126.595436 345.177826,128.771576 
	C345.096893,129.340149 345.060150,129.566925 345.023376,129.793716 
z"/>
<path fill="#D1D8E2" opacity="1.000000" stroke="none" 
	d="
M247.411926,130.101807 
	C244.499023,129.477859 243.049866,128.391388 243.561356,125.344185 
	C243.959274,122.973541 243.640945,120.482681 243.640945,118.017685 
	C245.254486,119.088211 246.545670,120.665039 247.623367,120.530586 
	C251.518951,120.044579 253.958237,121.335175 254.040131,125.278404 
	C254.122849,129.260910 251.673203,130.852966 247.411926,130.101807 
M251.996048,126.198112 
	C251.009018,124.819008 250.163849,123.278099 248.922150,122.189453 
	C248.655380,121.955566 246.319824,123.175980 246.071655,124.048950 
	C245.740479,125.214012 246.448914,127.820213 246.830948,127.843582 
	C248.461304,127.943314 250.135895,127.319855 251.996048,126.198112 
z"/>
<path fill="#C8D1DD" opacity="1.000000" stroke="none" 
	d="
M159.085358,137.198242 
	C159.802841,137.226303 160.939285,137.640045 160.956467,138.095947 
	C161.100143,141.910797 161.038147,145.733398 161.038147,149.820755 
	C156.967056,148.506775 150.303131,152.869675 150.451096,144.362549 
	C150.514725,140.705124 153.696259,139.426407 158.985519,140.624023 
	C158.985519,139.577103 158.985519,138.590286 159.085358,137.198242 
M158.262772,143.170853 
	C156.589966,143.121933 154.878006,142.874298 153.276993,143.189774 
	C152.952179,143.253769 152.525803,145.851074 153.075333,146.550308 
	C153.801147,147.473846 156.150940,148.426300 156.554276,148.045181 
	C157.621689,147.036560 158.017075,145.316788 158.262772,143.170853 
z"/>
<path fill="#E2E7ED" opacity="1.000000" stroke="none" 
	d="
M220.988739,120.013794 
	C221.675262,125.086769 225.078033,121.914742 227.292191,123.004387 
	C227.635239,120.785255 227.922089,118.929703 228.208954,117.074158 
	C228.534271,117.095345 228.859604,117.116539 229.184937,117.137726 
	C229.184937,121.397522 229.184937,125.657310 229.184937,129.917099 
	C228.880264,129.973572 228.575577,130.030045 228.270905,130.086533 
	C227.959824,128.340881 227.648758,126.595238 227.299423,124.634857 
	C225.401642,124.634857 223.609985,124.634857 221.472076,124.634857 
	C221.174622,126.329102 220.852798,128.162292 220.530960,129.995499 
	C220.221558,129.996597 219.912170,129.997711 219.602768,129.998810 
	C219.602768,125.725021 219.602768,121.451225 219.602768,117.177429 
	C219.781174,117.094444 219.959595,117.011459 220.138000,116.928474 
	C220.421005,117.806679 220.704025,118.684891 220.988739,120.013794 
z"/>
<path fill="#C8D1DD" opacity="1.000000" stroke="none" 
	d="
M397.935364,123.254158 
	C398.487518,123.398651 399.317169,123.851578 399.550476,123.641670 
	C403.422913,120.157478 403.406189,120.138893 407.655518,120.825592 
	C407.927429,119.539955 408.200562,118.248421 408.473724,116.956894 
	C408.899567,117.001778 409.325378,117.046661 409.751221,117.091553 
	C409.660278,119.067360 409.569336,121.043175 409.541107,121.657005 
	C406.171265,122.751251 402.564575,122.977943 402.184265,124.204796 
	C400.246857,130.454453 406.819519,127.032600 408.541626,129.044876 
	C404.067963,131.766037 400.808350,130.504974 398.347961,125.497841 
	C397.950104,124.519936 397.942749,123.887047 397.935364,123.254158 
z"/>
<path fill="#1F4372" opacity="1.000000" stroke="none" 
	d="
M193.520660,162.247437 
	C192.183975,163.393707 190.728287,164.463928 190.303391,165.850143 
	C189.561066,168.271835 189.452652,170.887833 189.078598,173.422409 
	C188.528412,173.364105 187.978226,173.305801 187.428040,173.247498 
	C187.428040,169.112411 187.428040,164.977325 187.428040,160.470337 
	C190.646103,160.705780 194.664413,157.115540 197.337494,163.662827 
	C195.646423,163.005646 194.756088,162.659653 193.520660,162.247437 
z"/>
<path fill="#D1D8E2" opacity="1.000000" stroke="none" 
	d="
M360.252319,130.077621 
	C356.591309,130.908020 353.860748,129.840363 353.852844,126.355057 
	C353.848480,124.436554 355.551270,121.622398 357.227112,120.872978 
	C358.576904,120.269371 361.789154,121.611526 362.849762,123.060509 
	C364.819641,125.751671 363.524597,128.364929 360.252319,130.077621 
M358.579193,128.848480 
	C361.281708,128.107300 362.658081,126.556267 361.036224,123.864624 
	C360.565857,123.083992 358.984772,122.330910 358.181763,122.550148 
	C357.107544,122.843414 355.439850,124.235977 355.549713,124.907394 
	C355.774017,126.278709 357.015198,127.483696 358.579193,128.848480 
z"/>
<path fill="#DAE0E8" opacity="1.000000" stroke="none" 
	d="
M342.903076,161.078033 
	C345.990692,160.656418 348.485199,160.839600 348.919189,165.048965 
	C346.523712,165.259613 344.177460,165.465912 341.569183,165.695267 
	C341.944458,166.875961 342.249390,167.835312 342.554321,168.794662 
	C342.265778,168.970032 341.977264,169.145401 341.688721,169.320770 
	C340.849365,168.121674 339.532349,167.016312 339.274689,165.703079 
	C338.805328,163.310883 339.210144,160.982269 342.903076,161.078033 
z"/>
<path fill="#C6CFDB" opacity="1.000000" stroke="none" 
	d="
M145.499481,158.413147 
	C144.620483,162.167099 144.170654,165.847336 143.720840,169.527573 
	C143.306290,169.588684 142.891754,169.649811 142.477203,169.710938 
	C142.303345,166.221725 142.129486,162.732529 141.939819,158.925949 
	C140.526672,158.541519 139.052322,158.140457 137.577988,157.739380 
	C137.594620,157.457413 137.611252,157.175430 137.627884,156.893463 
	C141.385361,156.893463 145.142838,156.893463 148.900299,156.893463 
	C148.933121,157.172516 148.965942,157.451569 148.998749,157.730621 
	C147.975388,157.933563 146.952026,158.136505 145.499481,158.413147 
z"/>
<path fill="#D4DAE4" opacity="1.000000" stroke="none" 
	d="
M397.861938,122.945267 
	C397.942749,123.887047 397.950104,124.519936 397.972290,125.469040 
	C395.841187,125.937340 393.695282,126.089424 391.134399,126.270912 
	C391.728912,127.456520 392.264282,128.524139 393.046295,130.083603 
	C389.109070,129.039642 387.836426,126.408455 389.272644,124.026886 
	C390.170746,122.537659 393.360291,122.336601 395.579956,121.797661 
	C396.211060,121.644440 397.046661,122.333549 397.861938,122.945267 
z"/>
<path fill="#CED6E0" opacity="1.000000" stroke="none" 
	d="
M321.969238,159.984573 
	C322.549713,161.411896 323.034821,162.888367 323.738007,164.252441 
	C324.415131,165.565842 325.317719,166.763000 326.121216,168.011246 
	C327.069061,166.720734 328.281006,165.540939 328.882874,164.105377 
	C329.382385,162.913925 329.163605,161.421326 330.431580,160.068542 
	C330.431580,163.084213 330.431580,166.099884 330.431580,169.175064 
	C322.048462,169.792725 322.048462,169.792725 321.571228,162.187531 
	C321.740265,160.946075 321.854736,160.465317 321.969238,159.984573 
z"/>
<path fill="#13396A" opacity="1.000000" stroke="none" 
	d="
M163.968079,122.010925 
	C163.667725,122.923912 163.038574,123.867638 163.120590,124.744881 
	C163.639053,130.290588 163.710968,131.208054 154.184311,129.859711 
	C156.913712,128.329315 158.820404,127.260223 161.055481,126.007011 
	C159.786316,124.231522 158.704361,122.717934 157.371231,120.852966 
	C159.733856,120.580627 161.704956,120.353416 163.889923,120.442581 
	C164.058533,121.176277 164.013306,121.593597 163.968079,122.010925 
z"/>
<path fill="#0E3567" opacity="1.000000" stroke="none" 
	d="
M182.000565,127.998268 
	C180.697250,132.850861 178.571594,131.898941 176.136993,128.048813 
	C176.969788,125.700104 177.622604,123.965706 178.763840,122.657326 
	C179.122452,122.246208 181.570740,122.744965 181.717987,123.232979 
	C182.165146,124.714905 181.954834,126.395218 182.000565,127.998268 
z"/>
<path fill="#D1D8E2" opacity="1.000000" stroke="none" 
	d="
M238.900772,161.682983 
	C237.241165,163.777466 236.011536,165.807266 234.781906,167.837082 
	C235.329865,167.975479 235.877823,168.113876 236.425797,168.252289 
	C236.031906,166.077850 235.638016,163.903412 235.057343,160.697845 
	C237.585129,160.697845 241.255295,159.786133 242.019028,160.888336 
	C243.591187,163.157227 243.610062,166.502411 244.268112,169.404694 
	C243.866867,169.456451 243.465637,169.508209 243.064392,169.559967 
	C241.819839,166.912750 240.575287,164.265518 238.900772,161.682983 
z"/>
<path fill="#DAE0E8" opacity="1.000000" stroke="none" 
	d="
M208.929443,148.963058 
	C208.020554,149.249725 207.111664,149.536392 206.175049,149.831802 
	C206.175049,145.280029 206.175049,140.784180 206.175049,135.366211 
	C207.622406,138.085510 208.583267,139.890762 209.205215,141.059280 
	C209.005157,143.273819 208.816635,145.360611 208.856125,147.965363 
	C209.032578,148.643234 208.981003,148.803146 208.929443,148.963058 
z"/>
<path fill="#153A6B" opacity="1.000000" stroke="none" 
	d="
M330.645569,125.274323 
	C329.560669,123.619476 328.519104,122.302902 327.477570,120.986336 
	C327.800049,120.597519 328.122528,120.208702 328.445007,119.819885 
	C329.956787,120.917946 332.334381,121.750710 332.771759,123.178009 
	C333.384644,125.178055 333.359497,128.461960 332.122528,129.647522 
	C330.770111,130.943787 327.725708,130.474670 325.418732,130.774994 
	C325.314453,130.312164 325.210175,129.849350 325.105927,129.386536 
	C326.966919,128.128555 328.827911,126.870575 330.645569,125.274323 
z"/>
<path fill="#DAE0E8" opacity="1.000000" stroke="none" 
	d="
M192.738571,141.742004 
	C191.637375,142.419403 189.599060,143.113907 189.611053,143.770950 
	C189.646759,145.724304 190.488998,147.662964 191.115707,149.975174 
	C189.060440,150.737869 187.791397,149.538300 187.580673,146.568451 
	C187.477844,145.119537 187.199020,143.683151 186.590027,142.240311 
	C186.180191,142.239532 186.249756,142.229187 186.249756,142.229187 
	C186.882446,140.660660 187.515121,139.092133 188.108002,137.622314 
	C189.654663,138.958054 190.973679,140.097183 192.557632,141.514282 
	C192.822586,141.792252 192.738571,141.742004 192.738571,141.742004 
z"/>
<path fill="#C5CEDA" opacity="1.000000" stroke="none" 
	d="
M369.148468,122.287537 
	C367.888397,122.333817 366.914185,122.248573 365.940002,122.163330 
	C374.499176,120.383537 376.384857,122.495293 373.990662,129.400238 
	C372.612213,127.208588 371.023285,124.682304 369.148468,122.287537 
z"/>
<path fill="#C5CEDA" opacity="1.000000" stroke="none" 
	d="
M267.863861,166.263916 
	C267.697357,167.066025 267.530884,167.868103 267.322540,168.871811 
	C264.703247,169.019547 260.555298,171.734650 258.737427,166.666504 
	C258.165466,165.071838 258.724762,162.052322 259.899109,161.134705 
	C261.092499,160.202255 263.683563,161.058502 265.285828,161.392227 
	C263.333801,162.454529 261.634613,163.103241 260.291840,164.191681 
	C260.035614,164.399384 261.025574,167.179108 261.721161,167.312866 
	C263.208527,167.598862 264.881439,166.940613 266.473999,166.645782 
	C266.944733,166.558640 267.400970,166.393387 267.863861,166.263916 
z"/>
<path fill="#DAE0E8" opacity="1.000000" stroke="none" 
	d="
M262.227844,119.896240 
	C263.128571,120.523262 263.874054,120.800201 263.588959,120.694290 
	C262.710968,123.953102 261.907135,126.936554 261.103333,129.920013 
	C260.830017,129.936691 260.556671,129.953369 260.283356,129.970047 
	C260.283356,125.902206 260.093506,121.817055 260.461609,117.782799 
	C260.526428,117.072433 262.925476,116.575050 264.575470,116.767754 
	C263.741180,117.693893 262.906891,118.620026 262.227844,119.896240 
z"/>
<path fill="#CED6E0" opacity="1.000000" stroke="none" 
	d="
M208.276108,161.785110 
	C208.505844,163.896072 208.505844,165.676666 208.505844,168.277054 
	C206.967133,165.541138 206.172241,163.678223 204.909164,162.221100 
	C204.619873,161.887390 201.817993,162.813507 201.728500,163.398041 
	C201.466660,165.108139 201.990128,166.938461 202.344208,169.865173 
	C201.010727,168.189133 199.317871,167.011200 199.337311,165.862244 
	C199.366180,164.157867 200.251831,161.409439 201.413727,161.020599 
	C203.358368,160.369766 205.808807,161.230301 208.276108,161.785110 
z"/>
<path fill="#CBD3DE" opacity="1.000000" stroke="none" 
	d="
M186.179657,142.207336 
	C185.257950,149.852982 183.822845,151.072098 177.570862,148.705170 
	C177.393250,147.790726 177.485245,147.429901 177.882339,147.336212 
	C179.826431,147.422272 181.607513,147.551392 183.030762,146.899368 
	C183.560669,146.656616 183.708954,143.755997 183.245224,143.501907 
	C181.685074,142.647049 179.771194,142.437729 177.980362,141.950272 
	C177.968063,141.919113 178.022552,141.880142 178.022552,141.880142 
	C180.802719,137.964447 183.080872,140.384827 185.817917,142.346375 
	C186.249756,142.229187 186.180191,142.239532 186.179657,142.207336 
z"/>
<path fill="#0A3264" opacity="1.000000" stroke="none" 
	d="
M164.235596,160.476349 
	C165.177017,163.418137 165.804047,166.289139 166.662674,170.220627 
	C164.458923,169.555023 163.732483,169.415985 163.081161,169.114624 
	C162.514465,168.852417 162.032623,168.406784 161.496429,168.030380 
	C167.402115,162.705841 158.055893,163.311996 158.649612,159.965607 
	C160.335144,160.106293 162.128189,160.255936 164.235596,160.476349 
z"/>
<path fill="#D1D8E2" opacity="1.000000" stroke="none" 
	d="
M345.021606,141.665985 
	C345.905731,140.335342 346.789886,139.004700 347.674744,137.672943 
	C348.901825,138.697418 350.258423,139.830017 351.601288,140.951157 
	C348.235596,143.150391 347.900696,145.995255 350.717102,149.111633 
	C347.830109,149.369247 346.539917,148.238083 346.836365,145.175751 
	C346.943787,144.066315 346.162018,142.870789 345.366699,141.670471 
	C344.947449,141.626389 345.021606,141.665985 345.021606,141.665985 
z"/>
<path fill="#F0F3F6" opacity="1.000000" stroke="none" 
	d="
M297.937378,128.799530 
	C295.171631,129.441910 292.405884,130.084290 289.228577,130.822266 
	C289.228577,125.797585 289.228577,121.590469 289.228577,116.990593 
	C290.570404,116.990593 291.830444,116.990593 293.537048,117.321671 
	C293.976959,118.002312 293.970276,118.351868 293.628845,118.766258 
	C288.148468,121.239220 292.283752,125.310257 290.649689,128.977982 
	C293.349701,128.507507 295.087372,128.204727 297.033508,128.022812 
	C297.528656,128.304169 297.760437,128.522781 297.937378,128.799530 
z"/>
<path fill="#CED6E0" opacity="1.000000" stroke="none" 
	d="
M170.905792,161.955841 
	C169.901047,162.444748 169.263840,162.809280 168.626648,163.173798 
	C168.635117,162.516541 168.363129,161.573944 168.696030,161.246735 
	C171.602341,158.390015 175.829147,159.588989 176.557281,163.562256 
	C176.917160,165.526108 176.619751,167.610397 176.619751,169.640198 
	C176.110504,169.673080 175.601257,169.705978 175.091995,169.738861 
	C174.961121,168.296158 175.211319,166.659012 174.600204,165.461349 
	C173.881271,164.052368 172.415329,163.024567 170.905792,161.955841 
z"/>
<path fill="#C8D1DD" opacity="1.000000" stroke="none" 
	d="
M272.564148,149.081680 
	C269.887726,150.407822 266.963287,151.215607 265.253143,148.118652 
	C264.400726,146.574966 264.359253,143.904160 265.124969,142.305603 
	C266.271118,139.912949 268.667419,138.977875 271.667053,141.244598 
	C272.034393,142.095413 272.026703,142.517197 271.705414,142.740570 
	C268.735168,141.130417 266.574982,141.984573 266.432922,144.783554 
	C266.375732,145.910477 268.920776,147.239197 270.384399,148.339127 
	C270.967621,148.777405 271.829254,148.845215 272.564148,149.081680 
z"/>
<path fill="#CED6E0" opacity="1.000000" stroke="none" 
	d="
M317.676117,136.508026 
	C318.006165,141.118149 318.006165,145.490997 318.006165,149.863831 
	C317.472107,149.861862 316.938049,149.859879 316.403992,149.857895 
	C316.452118,145.331345 314.893250,140.819809 317.676117,136.508026 
z"/>
<path fill="#1F4372" opacity="1.000000" stroke="none" 
	d="
M267.933929,165.847534 
	C267.400970,166.393387 266.944733,166.558640 266.473999,166.645782 
	C264.881439,166.940613 263.208527,167.598862 261.721161,167.312866 
	C261.025574,167.179108 260.035614,164.399384 260.291840,164.191681 
	C261.634613,163.103241 263.333801,162.454529 265.294250,161.770462 
	C266.454254,163.068985 267.229126,164.250061 267.933929,165.847534 
z"/>
<path fill="#D1D8E2" opacity="1.000000" stroke="none" 
	d="
M280.950836,168.873199 
	C280.196289,164.767136 278.336456,160.964584 280.865875,157.118164 
	C282.287933,158.464355 283.513397,159.624466 284.737244,160.783035 
	C281.139984,163.299744 281.051880,166.254395 285.835846,170.317261 
	C283.426147,169.750381 282.294647,169.484192 280.950836,168.873199 
z"/>
<path fill="#EAEEF2" opacity="1.000000" stroke="none" 
	d="
M143.332535,123.707382 
	C142.555771,123.138390 141.778992,122.569397 140.380478,121.544960 
	C140.151276,124.647110 139.961945,127.209633 139.772614,129.772156 
	C139.521027,129.757568 139.269455,129.742981 139.017883,129.728394 
	C139.017883,125.610710 139.017883,121.493019 139.017883,116.161278 
	C141.078918,118.650276 142.547653,120.423981 143.865204,122.747643 
	C143.586884,123.434189 143.459717,123.570786 143.332535,123.707382 
z"/>
<path fill="#183D6D" opacity="1.000000" stroke="none" 
	d="
M200.631836,146.416351 
	C201.390472,144.599731 201.968521,143.095276 202.546570,141.590820 
	C202.906296,141.589188 203.266006,141.587555 203.625732,141.585922 
	C203.813171,144.065262 204.000595,146.544601 204.183105,148.958939 
	C196.477432,150.594894 196.106384,150.509293 194.271210,147.323029 
	C196.195923,147.137878 198.323593,146.933197 200.631836,146.416351 
z"/>
<path fill="#EAEEF2" opacity="1.000000" stroke="none" 
	d="
M150.261810,128.992554 
	C149.411133,129.059799 148.177521,129.517120 147.777985,129.124863 
	C146.277283,127.651566 145.048676,125.901100 143.525330,123.980934 
	C143.459717,123.570786 143.586884,123.434189 143.910553,123.098213 
	C145.256760,123.738548 146.406494,124.578262 147.992203,125.736420 
	C148.183243,122.643784 148.353439,119.888252 148.523651,117.132729 
	C149.059433,117.143425 149.595215,117.154114 150.130997,117.164810 
	C150.130997,119.477310 150.130997,121.789803 150.114960,124.936279 
	C150.153214,126.844360 150.207504,127.918457 150.261810,128.992554 
z"/>
<path fill="#E0E5EC" opacity="1.000000" stroke="none" 
	d="
M182.377045,128.042984 
	C181.954834,126.395218 182.165146,124.714905 181.717987,123.232979 
	C181.570740,122.744965 179.122452,122.246208 178.763840,122.657326 
	C177.622604,123.965706 176.969788,125.700104 176.076691,127.689392 
	C173.497208,125.353569 174.583344,122.589844 177.175751,121.356628 
	C178.843307,120.563377 182.052567,121.142639 183.557541,122.359703 
	C185.347565,123.807312 186.300873,126.637665 182.377045,128.042984 
z"/>
<path fill="#CED6E0" opacity="1.000000" stroke="none" 
	d="
M319.640198,161.778656 
	C314.952393,162.961823 318.849152,166.727585 317.493835,168.913300 
	C314.577118,166.388550 314.064789,160.938812 316.337341,157.304581 
	C317.311798,158.166733 318.299011,159.040176 319.720673,160.262207 
	C319.983490,161.000076 319.811859,161.389359 319.640198,161.778656 
z"/>
<path fill="#D6DCE5" opacity="1.000000" stroke="none" 
	d="
M222.993530,159.966766 
	C222.302826,162.852905 221.217422,165.699203 220.067825,168.713852 
	C219.266083,165.826752 218.400757,162.710648 217.655502,160.026962 
	C218.183777,159.463547 219.124313,158.460464 220.080109,157.441101 
	C220.829117,158.180328 221.713974,159.053619 222.993530,159.966766 
z"/>
<path fill="#C6CFDB" opacity="1.000000" stroke="none" 
	d="
M293.587646,164.842606 
	C293.429138,163.148956 293.317108,161.821701 293.205078,160.494461 
	C293.471893,160.276993 293.738678,160.059525 294.005493,159.842072 
	C294.576141,160.733597 295.303955,161.562958 295.685944,162.529083 
	C296.585968,164.805527 297.321106,167.147156 298.269684,169.886154 
	C295.352722,170.638596 293.732697,168.989685 293.587646,164.842606 
z"/>
<path fill="#103768" opacity="1.000000" stroke="none" 
	d="
M272.547211,149.067383 
	C271.829254,148.845215 270.967621,148.777405 270.384399,148.339127 
	C268.920776,147.239197 266.375732,145.910477 266.432922,144.783554 
	C266.574982,141.984573 268.735168,141.130417 271.863831,143.109467 
	C272.389862,145.459091 272.443909,147.241394 272.497955,149.023697 
	C272.497955,149.023697 272.530273,149.053070 272.547211,149.067383 
z"/>
<path fill="#C8D1DD" opacity="1.000000" stroke="none" 
	d="
M344.620880,141.714844 
	C345.021606,141.665985 344.947449,141.626389 344.951355,141.584656 
	C344.763855,144.334717 344.572418,147.126541 344.303406,151.049637 
	C342.553619,146.782425 341.269928,143.651871 339.783966,140.028076 
	C340.874451,140.454712 342.547302,141.109222 344.620880,141.714844 
z"/>
<path fill="#E5E9EF" opacity="1.000000" stroke="none" 
	d="
M248.664154,157.617004 
	C248.888489,158.828064 249.414642,159.792252 249.592010,160.117294 
	C248.681503,163.390839 247.800186,166.559433 246.562256,171.010117 
	C244.946121,157.393295 245.420074,155.934387 251.509903,156.273117 
	C250.227753,156.826019 249.596878,157.098068 248.664154,157.617004 
z"/>
<path fill="#DAE0E8" opacity="1.000000" stroke="none" 
	d="
M345.316437,129.966766 
	C345.060150,129.566925 345.096893,129.340149 345.542786,128.886932 
	C349.041809,129.132202 350.699921,127.454742 349.876434,124.772629 
	C349.510620,123.581139 346.768158,123.119331 345.104462,122.326324 
	C345.090546,122.116875 345.076630,121.907433 345.042725,121.383743 
	C347.061401,121.471107 349.621002,121.281532 350.967773,122.468307 
	C351.977509,123.358116 352.239166,126.715370 351.375000,127.723358 
	C350.162842,129.137253 347.596558,129.390274 345.316437,129.966766 
z"/>
<path fill="#DAE0E8" opacity="1.000000" stroke="none" 
	d="
M272.819824,149.270233 
	C272.443909,147.241394 272.389862,145.459091 272.177368,143.307892 
	C272.026703,142.517197 272.034393,142.095413 272.028687,141.357452 
	C272.284576,139.410736 272.553894,137.780197 272.823181,136.149643 
	C273.466187,136.205429 274.109161,136.261215 274.752167,136.317001 
	C274.752167,140.588242 274.767334,144.859787 274.684418,149.129425 
	C274.681732,149.268494 273.678528,149.388092 272.819824,149.270233 
z"/>
<path fill="#D6DCE5" opacity="1.000000" stroke="none" 
	d="
M247.754669,147.987076 
	C249.947189,143.433060 249.592331,142.783707 244.086624,140.727631 
	C246.286285,140.727631 248.485931,140.727631 251.128387,140.727631 
	C251.128387,143.280167 251.192490,145.883377 251.027466,148.471970 
	C251.011292,148.725861 249.587097,148.889999 248.325500,148.798920 
	C247.807907,148.330399 247.781296,148.158737 247.754669,147.987076 
z"/>
<path fill="#E5E9EF" opacity="1.000000" stroke="none" 
	d="
M164.346558,122.170708 
	C164.013306,121.593597 164.058533,121.176277 164.264038,120.468292 
	C164.765137,119.472305 165.105957,118.766991 165.584213,117.777229 
	C166.925064,118.998940 168.177292,120.139908 168.612717,120.536636 
	C167.803146,123.787071 167.091278,126.645264 166.379410,129.503448 
	C166.166428,129.600800 165.953461,129.698135 165.740494,129.795486 
	C165.402008,127.307152 165.063538,124.818825 164.346558,122.170708 
z"/>
<path fill="#D4DAE4" opacity="1.000000" stroke="none" 
	d="
M177.745026,141.593323 
	C178.022552,141.880142 177.968063,141.919113 178.021515,142.290649 
	C177.909058,144.131149 177.743149,145.600113 177.577240,147.069092 
	C177.485245,147.429901 177.393250,147.790726 177.192688,148.699432 
	C176.975479,150.611008 176.866837,151.974686 176.758209,153.338379 
	C176.248444,153.343658 175.738678,153.348923 175.228912,153.354202 
	C175.228912,149.286591 175.228912,145.218979 175.228912,141.151367 
	C175.975113,141.203079 176.721313,141.254791 177.745026,141.593323 
z"/>
<path fill="#D1D8E2" opacity="1.000000" stroke="none" 
	d="
M293.963562,118.701424 
	C293.970276,118.351868 293.976959,118.002312 293.980865,117.390228 
	C300.306885,118.227715 301.863159,122.039993 298.273132,128.635544 
	C297.760437,128.522781 297.528656,128.304169 297.214355,127.676804 
	C298.821564,123.347458 299.088501,120.003197 293.963562,118.701424 
z"/>
<path fill="#E2E7ED" opacity="1.000000" stroke="none" 
	d="
M196.134781,128.010696 
	C195.892853,128.719299 195.650909,129.427887 195.199371,130.750412 
	C192.650848,127.591606 196.244019,120.973373 188.252228,122.160431 
	C194.003845,119.436142 194.760284,119.839928 195.982086,125.949219 
	C196.033157,127.108482 196.083969,127.559586 196.134781,128.010696 
z"/>
<path fill="#D1D8E2" opacity="1.000000" stroke="none" 
	d="
M255.781509,141.621796 
	C257.665497,141.401489 261.031311,140.623367 261.192474,141.051575 
	C262.223541,143.790619 262.550323,146.794785 262.376801,149.836349 
	C259.390991,147.631561 263.332886,141.328613 256.216736,141.812241 
	C255.860870,141.623306 255.781509,141.621796 255.781509,141.621796 
z"/>
<path fill="#E5E9EF" opacity="1.000000" stroke="none" 
	d="
M231.925232,157.847260 
	C231.970108,162.079529 231.970108,165.886459 231.970108,169.693390 
	C231.336395,169.690552 230.702667,169.687714 230.068954,169.684875 
	C230.068954,165.563232 230.068954,161.441605 230.068954,157.319977 
	C230.672760,157.353943 231.276566,157.387924 231.925232,157.847260 
z"/>
<path fill="#DAE0E8" opacity="1.000000" stroke="none" 
	d="
M219.914612,138.475815 
	C219.920914,142.563248 219.920914,146.202118 219.920914,149.840988 
	C219.421768,149.826675 218.922607,149.812363 218.423462,149.798050 
	C218.423462,145.305206 218.423462,140.812363 218.423462,136.319519 
	C218.641693,136.255722 218.859940,136.191940 219.078171,136.128143 
	C219.354889,136.761169 219.631607,137.394211 219.914612,138.475815 
z"/>
<path fill="#E0E5EC" opacity="1.000000" stroke="none" 
	d="
M210.961517,129.944366 
	C210.301880,125.617729 210.109024,121.269180 209.916168,116.920624 
	C210.611115,116.912697 211.306061,116.904770 212.001007,116.896843 
	C211.810104,121.238708 211.619202,125.580582 210.961517,129.944366 
z"/>
<path fill="#103768" opacity="1.000000" stroke="none" 
	d="
M196.472717,128.073044 
	C196.083969,127.559586 196.033157,127.108482 196.058563,126.323334 
	C196.875885,124.997498 197.616974,124.005699 198.726898,122.520325 
	C199.970490,125.093292 200.964737,127.150352 201.980499,129.610748 
	C202.002029,130.014099 201.911072,130.116852 201.911072,130.116852 
	C200.210938,129.456360 198.510788,128.795883 196.472717,128.073044 
z"/>
<path fill="#EAEEF2" opacity="1.000000" stroke="none" 
	d="
M265.936371,123.019882 
	C268.190887,122.413467 270.701294,120.929825 272.615936,121.488419 
	C274.052399,121.907509 274.722626,124.952850 275.018768,127.281479 
	C272.874329,125.513855 273.214722,120.945938 267.983215,123.032135 
	C266.863892,123.117844 266.400146,123.068863 265.936371,123.019882 
z"/>
<path fill="#113869" opacity="1.000000" stroke="none" 
	d="
M215.612457,148.311325 
	C214.767349,148.469330 213.656601,148.415161 213.651688,148.309448 
	C213.550629,146.141602 213.575729,143.967880 213.575729,141.682022 
	C216.233139,142.637817 218.297226,144.245804 215.612457,148.311325 
z"/>
<path fill="#D1D8E2" opacity="1.000000" stroke="none" 
	d="
M255.854050,141.584198 
	C255.411392,143.262375 254.975571,144.979645 254.539734,146.696915 
	C254.626007,146.693817 254.712265,146.690720 254.798538,146.687622 
	C255.220840,145.242905 255.643158,143.798172 255.923492,141.987625 
	C255.781509,141.621796 255.860870,141.623306 255.854050,141.584198 
z"/>
<path fill="#0A3264" opacity="1.000000" stroke="none" 
	d="
M158.247833,167.479675 
	C158.189301,168.240036 157.898239,168.787048 157.607178,169.334061 
	C156.344574,168.072479 155.081985,166.810898 153.819382,165.549301 
	C154.102798,165.224854 154.386200,164.900391 154.669617,164.575943 
	C155.784851,165.472733 156.900085,166.369522 158.247833,167.479675 
z"/>
<path fill="#EAEEF2" opacity="1.000000" stroke="none" 
	d="
M268.007568,127.929710 
	C269.288147,128.142715 270.568695,128.355713 272.333618,128.659454 
	C272.933044,128.886856 273.048096,129.023544 273.163177,129.160233 
	C271.236694,129.006531 269.310181,128.852829 267.523468,128.454956 
	C267.663239,128.210800 268.007568,127.929710 268.007568,127.929710 
z"/>
<path fill="#153A6B" opacity="1.000000" stroke="none" 
	d="
M323.463257,121.363197 
	C324.349823,121.675133 324.937653,122.134399 325.525482,122.593681 
	C324.747681,122.978203 323.969879,123.362709 323.192078,123.747208 
	C323.182892,123.001648 323.173706,122.256088 323.463257,121.363197 
z"/>
<path fill="#1F4372" opacity="1.000000" stroke="none" 
	d="
M197.526367,166.931381 
	C197.031097,168.148651 196.485840,169.070450 195.940582,169.992264 
	C195.385254,169.368759 194.829941,168.745270 194.274612,168.121765 
	C195.341873,167.626480 196.409134,167.131195 197.526367,166.931381 
z"/>
<path fill="#183D6D" opacity="1.000000" stroke="none" 
	d="
M192.787613,141.774277 
	C193.928696,141.537598 195.104752,141.318893 196.280807,141.100189 
	C196.354324,141.723923 196.427841,142.347641 196.501358,142.971375 
	C195.320053,142.795517 194.138733,142.619675 192.847992,142.092911 
	C192.738571,141.742004 192.822586,141.792252 192.787613,141.774277 
z"/>
<path fill="#0A3264" opacity="1.000000" stroke="none" 
	d="
M163.759552,142.454529 
	C163.824997,143.898697 163.734116,145.097977 163.643234,146.297272 
	C163.112381,146.199234 162.581512,146.101212 162.050644,146.003189 
	C162.568176,144.738678 163.085709,143.474182 163.759552,142.454529 
z"/>
<path fill="#13396A" opacity="1.000000" stroke="none" 
	d="
M155.089767,123.213089 
	C154.064758,123.297386 153.277847,123.153481 152.490921,123.009567 
	C152.904694,122.417816 153.318466,121.826065 153.732239,121.234314 
	C154.264114,121.817833 154.795975,122.401360 155.089767,123.213089 
z"/>
<path fill="#103768" opacity="1.000000" stroke="none" 
	d="
M204.149109,128.660919 
	C205.302231,128.684784 206.500946,128.981064 207.699646,129.277328 
	C207.491852,129.747284 207.284042,130.217239 207.076248,130.687180 
	C206.115738,130.102570 205.155228,129.517944 204.149109,128.660919 
z"/>
<path fill="#0A3264" opacity="1.000000" stroke="none" 
	d="
M247.444977,147.981171 
	C247.781296,148.158737 247.807907,148.330399 247.935089,148.742432 
	C246.623856,149.341202 245.212051,149.699600 243.800247,150.057983 
	C243.686737,149.666580 243.573212,149.275177 243.459702,148.883774 
	C244.684891,148.580933 245.910080,148.278107 247.444977,147.981171 
z"/>
<path fill="#13396A" opacity="1.000000" stroke="none" 
	d="
M150.470062,128.773621 
	C150.207504,127.918457 150.153214,126.844360 150.180359,125.373611 
	C155.239777,125.606178 150.809540,127.330666 150.470062,128.773621 
z"/>
<path fill="#0A3264" opacity="1.000000" stroke="none" 
	d="
M164.433533,149.513382 
	C165.143372,148.886658 166.086380,148.392838 167.029388,147.899017 
	C167.193573,148.293762 167.357773,148.688507 167.521957,149.083252 
	C166.570206,149.270935 165.618439,149.458618 164.433533,149.513382 
z"/>
<path fill="#103768" opacity="1.000000" stroke="none" 
	d="
M200.759857,120.513153 
	C202.053711,120.297081 203.187286,120.297081 204.320862,120.297081 
	C204.282852,120.735229 204.244858,121.173370 204.206848,121.611519 
	C203.004425,121.317421 201.802002,121.023315 200.759857,120.513153 
z"/>
<path fill="#113869" opacity="1.000000" stroke="none" 
	d="
M209.154556,149.145844 
	C208.981003,148.803146 209.032578,148.643234 209.122681,148.234253 
	C210.029816,148.456818 210.898422,148.928467 211.767044,149.400116 
	C211.613022,149.705734 211.459015,150.011368 211.304993,150.316986 
	C210.663223,149.987534 210.021439,149.658081 209.154556,149.145844 
z"/>
<path fill="#0A3264" opacity="1.000000" stroke="none" 
	d="
M240.276398,144.246246 
	C240.804565,144.089645 241.269638,144.194595 241.734711,144.299530 
	C241.525269,144.666199 241.315826,145.032852 241.106384,145.399521 
	C240.808716,145.102264 240.511017,144.805023 240.276398,144.246246 
z"/>
<path fill="#0A3264" opacity="1.000000" stroke="none" 
	d="
M170.044479,141.938889 
	C170.577026,141.630692 171.109573,141.322495 171.642105,141.014297 
	C171.691925,141.611908 171.741745,142.209518 171.791580,142.807129 
	C171.218460,142.739655 170.645355,142.672165 170.031311,142.301804 
	C169.990402,141.998917 170.044479,141.938889 170.044479,141.938889 
z"/>
<path fill="#183D6D" opacity="1.000000" stroke="none" 
	d="
M265.728394,123.213921 
	C266.400146,123.068863 266.863892,123.117844 267.676910,123.197807 
	C267.407715,123.761818 266.789246,124.294846 266.170807,124.827881 
	C265.954010,124.354568 265.737213,123.881264 265.728394,123.213921 
z"/>
<path fill="#183D6D" opacity="1.000000" stroke="none" 
	d="
M267.967529,127.639214 
	C268.007568,127.929710 267.663239,128.210800 267.449585,128.149506 
	C266.750641,127.831688 266.265289,127.575142 265.779968,127.318604 
	C265.919556,127.059067 266.146484,126.561356 266.185608,126.575699 
	C266.780701,126.793915 267.351196,127.079140 267.967529,127.639214 
z"/>
<path fill="#113869" opacity="1.000000" stroke="none" 
	d="
M331.779419,141.411880 
	C331.482269,141.914948 331.155945,142.183319 330.829590,142.451706 
	C330.690094,142.189621 330.550629,141.927551 330.411194,141.665466 
	C330.857544,141.502716 331.303894,141.339966 331.779419,141.411880 
z"/>
<path fill="#183D6D" opacity="1.000000" stroke="none" 
	d="
M199.716248,141.009323 
	C200.103439,141.111145 200.330902,141.360519 200.558365,141.609909 
	C200.190308,141.754318 199.822235,141.898727 199.454193,142.043137 
	C199.488297,141.747711 199.522415,141.452301 199.716248,141.009323 
z"/>
<path fill="#153A6B" opacity="1.000000" stroke="none" 
	d="
M321.611938,126.321945 
	C321.757812,125.997459 322.043121,125.821030 322.328400,125.644600 
	C322.136078,125.919731 321.943726,126.194870 321.611938,126.321945 
z"/>
<path fill="#284B77" opacity="1.000000" stroke="none" 
	d="
M319.919373,161.856033 
	C319.811859,161.389359 319.983490,161.000076 320.093018,160.297699 
	C320.461884,159.966751 320.892853,159.948868 321.646545,159.957779 
	C321.854736,160.465317 321.740265,160.946075 321.483215,161.770996 
	C320.959930,162.054581 320.579224,161.994003 319.919373,161.856033 
z"/>
<path fill="#CED6E0" opacity="1.000000" stroke="none" 
	d="
M325.640961,141.653351 
	C326.388031,141.349960 327.135071,141.046585 327.882141,140.743195 
	C327.618896,141.276337 327.355652,141.809479 326.608765,142.256531 
	C325.963715,141.998077 325.802338,141.825714 325.640961,141.653351 
z"/>
<path fill="#284B77" opacity="1.000000" stroke="none" 
	d="
M319.694824,168.357330 
	C319.995453,168.376099 320.161163,168.541031 320.326874,168.705948 
	C320.071198,168.638474 319.815552,168.570999 319.694824,168.357330 
z"/>
<path fill="#0A3264" opacity="1.000000" stroke="none" 
	d="
M155.929657,161.949081 
	C156.132446,161.635468 156.335236,161.321854 156.538010,161.008224 
	C156.480301,161.271713 156.422592,161.535187 156.177917,161.900146 
	C155.990952,162.001602 155.929657,161.949081 155.929657,161.949081 
z"/>
<path fill="#CED6E0" opacity="1.000000" stroke="none" 
	d="
M326.362152,142.433670 
	C326.137299,143.058975 325.675446,143.421066 325.213562,143.783142 
	C325.173553,143.190414 325.133545,142.597687 325.367249,141.829132 
	C325.802338,141.825714 325.963715,141.998077 326.362152,142.433670 
z"/>
<path fill="#0A3264" opacity="1.000000" stroke="none" 
	d="
M169.959869,142.025375 
	C169.929352,142.051834 169.612885,141.766846 169.612885,141.766846 
	C169.612885,141.766846 169.919357,141.754105 169.981918,141.846497 
	C170.044479,141.938889 169.990402,141.998917 169.959869,142.025375 
z"/>
<path fill="#103768" opacity="1.000000" stroke="none" 
	d="
M202.052200,129.967285 
	C202.102371,129.920471 202.438950,130.274384 202.438950,130.274384 
	C202.438950,130.274384 202.065308,130.318512 201.988190,130.217682 
	C201.911072,130.116852 202.002029,130.014099 202.052200,129.967285 
z"/>
<path fill="#0A3264" opacity="1.000000" stroke="none" 
	d="
M156.018143,162.031433 
	C156.045334,162.061279 155.762970,162.380249 155.762970,162.380249 
	C155.762970,162.380249 155.745926,162.075226 155.837799,162.012146 
	C155.929657,161.949081 155.990952,162.001602 156.018143,162.031433 
z"/>
<path fill="#153A6B" opacity="1.000000" stroke="none" 
	d="
M323.528687,129.472687 
	C323.546692,129.508972 323.510651,129.436417 323.528687,129.472687 
z"/>
<path fill="#13396A" opacity="1.000000" stroke="none" 
	d="
M153.048019,128.937073 
	C153.048019,128.937073 153.404022,129.226776 153.404022,129.226776 
	C153.404022,129.226776 153.070435,129.248947 153.035583,129.120300 
	C153.000717,128.991638 153.048019,128.937073 153.048019,128.937073 
z"/>
<path fill="#153A6B" opacity="1.000000" stroke="none" 
	d="
M321.527161,128.528778 
	C321.490936,128.546753 321.563416,128.510818 321.527161,128.528778 
z"/>
<path fill="#EAEEF2" opacity="1.000000" stroke="none" 
	d="
M272.651978,128.539734 
	C272.957275,128.110687 273.428528,127.892067 273.899811,127.673447 
	C273.891266,128.061966 273.882751,128.450470 273.518677,128.999603 
	C273.048096,129.023544 272.933044,128.886856 272.651978,128.539734 
z"/>
<path fill="#13396A" opacity="1.000000" stroke="none" 
	d="
M152.974152,129.016083 
	C152.947571,129.040512 152.615997,128.756989 152.615997,128.756989 
	C152.615997,128.756989 152.926926,128.743774 152.987473,128.840424 
	C153.048019,128.937073 153.000717,128.991638 152.974152,129.016083 
z"/>
<path fill="#052D61" opacity="1.000000" stroke="none" 
	d="
M181.597748,80.220886 
	C178.625381,85.364388 174.568939,88.240944 168.924423,88.385567 
	C163.827682,88.516151 158.724960,88.413132 153.402344,88.413132 
	C153.402344,74.866035 153.402344,61.618538 153.402344,47.161777 
	C160.031311,47.651268 166.647995,47.519798 172.984558,48.787926 
	C178.927322,49.977234 182.346695,55.003811 182.754288,60.743538 
	C183.203323,67.066895 182.167938,73.495667 181.597748,80.220886 
z"/>
<path fill="#042C60" opacity="1.000000" stroke="none" 
	d="
M306.276733,59.806183 
	C303.753235,63.652050 300.367981,64.996902 296.314728,64.997833 
	C291.844940,64.998863 287.375183,64.998070 282.537537,64.998070 
	C282.537537,58.646324 282.537537,52.460487 282.537537,46.103081 
	C288.397308,46.103081 294.353119,45.467670 300.105164,46.278244 
	C306.094452,47.122253 308.082275,52.088932 306.276733,59.806183 
z"/>
<path fill="#083063" opacity="1.000000" stroke="none" 
	d="
M227.104065,60.284660 
	C227.895569,58.473862 228.594635,57.022842 229.488632,55.167213 
	C232.399170,63.267353 235.127319,70.859947 238.022736,78.918015 
	C232.018311,78.918015 226.360321,78.918015 220.100128,78.918015 
	C222.421753,72.779755 224.716690,66.712105 227.104065,60.284660 
z"/>
<path fill="#0A3164" opacity="1.000000" stroke="none" 
	d="
M356.699951,62.070869 
	C359.280609,65.015305 361.513672,67.795303 363.746765,70.575310 
	C363.361084,70.952553 362.975403,71.329788 362.589722,71.707031 
	C354.223938,71.707031 345.858154,71.707031 337.474396,71.707031 
	C339.092438,61.987267 346.059265,58.403549 356.699951,62.070869 
z"/>
<path fill="#0A3164" opacity="1.000000" stroke="none" 
	d="
M344.929016,122.626511 
	C346.768158,123.119331 349.510620,123.581139 349.876434,124.772629 
	C350.699921,127.454742 349.041809,129.132202 345.586975,128.545166 
	C345.065857,126.595436 344.909729,124.761063 344.929016,122.626511 
z"/>
<path fill="#0E3567" opacity="1.000000" stroke="none" 
	d="
M251.895203,126.579193 
	C250.135895,127.319855 248.461304,127.943314 246.830948,127.843582 
	C246.448914,127.820213 245.740479,125.214012 246.071655,124.048950 
	C246.319824,123.175980 248.655380,121.955566 248.922150,122.189453 
	C250.163849,123.278099 251.009018,124.819008 251.895203,126.579193 
z"/>
<path fill="#113869" opacity="1.000000" stroke="none" 
	d="
M158.471344,143.525452 
	C158.017075,145.316788 157.621689,147.036560 156.554276,148.045181 
	C156.150940,148.426300 153.801147,147.473846 153.075333,146.550308 
	C152.525803,145.851074 152.952179,143.253769 153.276993,143.189774 
	C154.878006,142.874298 156.589966,143.121933 158.471344,143.525452 
z"/>
<path fill="#153A6B" opacity="1.000000" stroke="none" 
	d="
M358.208374,128.802826 
	C357.015198,127.483696 355.774017,126.278709 355.549713,124.907394 
	C355.439850,124.235977 357.107544,122.843414 358.181763,122.550148 
	C358.984772,122.330910 360.565857,123.083992 361.036224,123.864624 
	C362.658081,126.556267 361.281708,128.107300 358.208374,128.802826 
z"/>
<path fill="#113869" opacity="1.000000" stroke="none" 
	d="
M177.882339,147.336212 
	C177.743149,145.600113 177.909058,144.131149 178.033813,142.321808 
	C179.771194,142.437729 181.685074,142.647049 183.245224,143.501907 
	C183.708954,143.755997 183.560669,146.656616 183.030762,146.899368 
	C181.607513,147.551392 179.826431,147.422272 177.882339,147.336212 
z"/>
<path fill="#083063" opacity="1.000000" stroke="none" 
	d="
M293.628845,118.766258 
	C299.088501,120.003197 298.821564,123.347458 297.005829,127.555931 
	C295.087372,128.204727 293.349701,128.507507 290.649689,128.977982 
	C292.283752,125.310257 288.148468,121.239220 293.628845,118.766258 
z"/>
</svg>