<svg version="1.1" id="Layer_1" xmlns="http://www.w3.org/2000/svg" xmlns:xlink="http://www.w3.org/1999/xlink" x="0px" y="0px"
	 width="100%" viewBox="0 0 403 301" enable-background="new 0 0 403 301" xml:space="preserve">
<path fill="#460184" opacity="1.000000" stroke="none" 
	d="
M220.000000,302.000000 
	C146.666687,302.000000 73.833359,302.000000 1.000029,302.000000 
	C1.000020,201.666702 1.000020,101.333397 1.000010,1.000070 
	C135.333282,1.000046 269.666565,1.000046 403.999878,1.000023 
	C403.999939,101.333260 403.999939,201.666519 403.999969,301.999878 
	C342.833344,302.000000 281.666656,302.000000 220.000000,302.000000 
M352.211761,205.526840 
	C352.749542,206.043533 353.287323,206.560226 354.228668,207.611404 
	C356.180359,207.752533 358.132019,207.893677 360.784607,207.924011 
	C364.700348,205.002579 365.041138,201.737137 361.948914,197.880417 
	C361.153992,198.678070 360.588959,199.245056 359.766815,199.498383 
	C359.588348,199.290146 359.383667,199.111969 359.132568,198.314148 
	C359.157318,197.881607 359.182068,197.449066 359.353210,196.748825 
	C359.389648,196.406158 359.237122,196.179169 358.187042,196.012054 
	C357.477020,196.020798 356.766998,196.029526 355.478821,196.269485 
	C354.641785,197.552048 353.804718,198.834610 352.201111,200.319611 
	C352.196899,201.863541 352.192657,203.407486 352.211761,205.526840 
M189.500595,92.690063 
	C155.733536,92.690063 121.966469,92.690063 87.944809,92.690063 
	C84.841789,105.158157 81.729759,117.198830 78.909195,129.307404 
	C78.163322,132.509369 76.812843,133.501266 73.538933,133.439987 
	C62.214787,133.228027 50.883385,133.433578 39.556675,133.307281 
	C36.764053,133.276154 35.495640,134.029419 34.827839,136.960800 
	C32.393761,147.645432 29.788252,158.298691 26.921490,168.875443 
	C21.003408,190.709885 38.382015,205.420334 55.004818,205.322708 
	C141.462082,204.814880 227.923950,205.090439 314.384216,205.085617 
	C331.895355,205.084641 345.646454,194.348831 349.932770,177.297989 
	C354.306458,159.899597 358.642822,142.491730 362.956848,125.078453 
	C365.578522,114.496330 368.127014,103.896072 370.857941,92.690117 
	C310.352509,92.690117 250.426559,92.690117 189.500595,92.690063 
z"/>
<path fill="#F3F0F8" opacity="1.000000" stroke="none" 
	d="
M190.000610,92.690094 
	C250.426559,92.690117 310.352509,92.690117 370.857941,92.690117 
	C368.127014,103.896072 365.578522,114.496330 362.956848,125.078453 
	C358.642822,142.491730 354.306458,159.899597 349.932770,177.297989 
	C345.646454,194.348831 331.895355,205.084641 314.384216,205.085617 
	C227.923950,205.090439 141.462082,204.814880 55.004818,205.322708 
	C38.382015,205.420334 21.003408,190.709885 26.921490,168.875443 
	C29.788252,158.298691 32.393761,147.645432 34.827839,136.960800 
	C35.495640,134.029419 36.764053,133.276154 39.556675,133.307281 
	C50.883385,133.433578 62.214787,133.228027 73.538933,133.439987 
	C76.812843,133.501266 78.163322,132.509369 78.909195,129.307404 
	C81.729759,117.198830 84.841789,105.158157 87.944809,92.690063 
	C121.966469,92.690063 155.733536,92.690063 190.000610,92.690094 
M53.934097,199.986557 
	C140.116409,199.992523 226.298737,199.999146 312.481049,199.997757 
	C313.642181,199.997742 314.803314,199.896729 316.786499,199.989365 
	C331.279449,198.737610 341.768768,189.501724 345.143677,175.327469 
	C347.874237,163.859421 350.890076,152.459579 353.725433,141.016129 
	C357.237183,126.842720 360.693268,112.655518 364.271149,98.075821 
	C362.391022,97.982330 360.934601,97.846710 359.478180,97.846542 
	C271.841034,97.836273 184.203857,97.857841 96.566818,97.759361 
	C93.149895,97.755524 91.660789,98.579765 90.855713,102.079155 
	C88.065071,114.209129 84.877159,126.247719 81.767212,138.612091 
	C68.899933,138.612091 56.255302,138.662140 43.611671,138.571854 
	C40.928947,138.552689 39.493233,139.083344 38.815643,142.135834 
	C36.545746,152.361649 33.699982,162.458740 31.375797,172.673615 
	C28.186127,186.692322 38.684368,199.742523 53.934097,199.986557 
z"/>
<path fill="#5F3296" opacity="1.000000" stroke="none" 
	d="
M360.023926,199.812027 
	C360.588959,199.245056 361.153992,198.678070 361.948914,197.880417 
	C365.041138,201.737137 364.700348,205.002579 360.530029,207.727600 
	C360.212433,207.362976 360.149414,207.194733 360.067200,207.009033 
	C360.048065,206.991592 360.033112,207.039917 360.318665,207.050903 
	C360.397583,206.664993 360.190948,206.268112 359.849243,205.699402 
	C359.522919,205.300797 359.292206,205.126205 359.087524,204.668732 
	C359.334656,203.016602 359.516357,201.699493 359.771973,200.235504 
	C359.845947,200.088623 360.023895,199.812012 360.023926,199.812027 
z"/>
<path fill="#7B55A5" opacity="1.000000" stroke="none" 
	d="
M356.057007,196.038269 
	C356.766998,196.029526 357.477020,196.020798 358.612244,196.279297 
	C359.037415,196.546555 359.206818,197.016525 359.206787,197.016525 
	C359.182068,197.449066 359.157318,197.881607 359.090698,198.882782 
	C359.048859,199.451416 359.025391,199.948608 358.636597,199.939972 
	C357.212799,199.960251 356.177826,199.989151 354.855591,200.034760 
	C354.376953,200.039352 354.185547,200.027252 354.171539,199.774689 
	C355.202332,199.218536 356.055756,198.902863 356.839630,198.612930 
	C356.572815,197.735153 356.314911,196.886703 356.057007,196.038269 
z"/>
<path fill="#4A278F" opacity="1.000000" stroke="none" 
	d="
M355.767914,196.153870 
	C356.314911,196.886703 356.572815,197.735153 356.839630,198.612930 
	C356.055756,198.902863 355.202332,199.218536 354.162964,200.029221 
	C353.969788,200.693970 353.962555,200.863708 353.760498,201.014435 
	C353.565674,200.995438 353.175415,200.964355 353.099609,200.758423 
	C353.023804,200.552475 352.967682,200.117172 352.967682,200.117172 
	C353.804718,198.834610 354.641785,197.552048 355.767914,196.153870 
z"/>
<path fill="#D8C9EA" opacity="1.000000" stroke="none" 
	d="
M360.086365,207.026489 
	C360.149414,207.194733 360.212433,207.362976 360.179565,207.783020 
	C358.132019,207.893677 356.180359,207.752533 354.243774,207.214874 
	C354.503967,206.589142 354.749023,206.359940 355.355408,206.257721 
	C357.173279,206.598633 358.629822,206.812561 360.086365,207.026489 
z"/>
<path fill="#F9F8FD" opacity="1.000000" stroke="none" 
	d="
M352.584412,200.218384 
	C352.967682,200.117172 353.023804,200.552475 353.055847,201.027374 
	C353.132996,201.678177 353.178101,201.854080 353.169739,202.378418 
	C353.304932,203.402374 353.493591,204.077896 353.306213,204.783188 
	C352.682922,204.859131 352.435669,204.905273 352.188416,204.951416 
	C352.192657,203.407486 352.196899,201.863541 352.584412,200.218384 
z"/>
<path fill="#DBCCE9" opacity="1.000000" stroke="none" 
	d="
M352.200104,205.239136 
	C352.435669,204.905273 352.682922,204.859131 353.444763,204.792908 
	C353.959351,204.772842 354.193390,204.922485 354.240173,205.169708 
	C354.522675,205.654846 354.758392,205.892792 354.994110,206.130722 
	C354.749023,206.359940 354.503967,206.589142 354.041992,206.947632 
	C353.287323,206.560226 352.749542,206.043533 352.200104,205.239136 
z"/>
<path fill="#4A2488" opacity="1.000000" stroke="none" 
	d="
M359.280029,196.882675 
	C359.206818,197.016525 359.037415,196.546555 358.966492,196.307190 
	C359.237122,196.179169 359.389648,196.406158 359.280029,196.882675 
z"/>
<path fill="#4A2488" opacity="1.000000" stroke="none" 
	d="
M359.025391,199.948608 
	C359.025391,199.948608 359.048859,199.451416 359.100830,199.207642 
	C359.383667,199.111969 359.588348,199.290146 359.895355,199.655197 
	C360.023895,199.812012 359.845947,200.088623 359.586823,200.153534 
	C359.327698,200.218430 359.025391,199.948608 359.025391,199.948608 
z"/>
<path fill="#4A0886" opacity="1.000000" stroke="none" 
	d="
M53.004486,199.849869 
	C38.684368,199.742523 28.186127,186.692322 31.375797,172.673615 
	C33.699982,162.458740 36.545746,152.361649 38.815643,142.135834 
	C39.493233,139.083344 40.928947,138.552689 43.611671,138.571854 
	C56.255302,138.662140 68.899933,138.612091 81.767212,138.612091 
	C84.877159,126.247719 88.065071,114.209129 90.855713,102.079155 
	C91.660789,98.579765 93.149895,97.755524 96.566818,97.759361 
	C184.203857,97.857841 271.841034,97.836273 359.478180,97.846542 
	C360.934601,97.846710 362.391022,97.982330 364.271149,98.075821 
	C360.693268,112.655518 357.237183,126.842720 353.725433,141.016129 
	C350.890076,152.459579 347.874237,163.859421 345.143677,175.327469 
	C341.768768,189.501724 331.279449,198.737610 316.023956,199.705933 
	C313.613129,199.278900 311.964874,199.010101 310.316559,199.009705 
	C226.488068,198.989349 142.659592,198.986099 58.831127,199.027786 
	C56.888779,199.028748 54.946693,199.563889 53.004486,199.849869 
M223.509155,189.179092 
	C228.341095,189.179291 233.177353,189.057648 238.003296,189.227859 
	C240.667191,189.321808 241.625717,188.389771 242.265472,185.730637 
	C246.731842,167.166214 251.444916,148.661194 256.063080,130.133194 
	C257.802765,123.153564 259.500244,116.163422 261.351044,108.632553 
	C246.288269,108.632553 232.146698,108.809578 218.014435,108.524231 
	C213.798111,108.439095 211.473648,109.656013 209.480560,113.449326 
	C203.476562,124.876328 197.024872,136.068100 190.098068,148.519485 
	C188.618225,134.388031 187.279053,121.599808 185.921432,108.635452 
	C172.824753,108.635452 160.341110,108.548233 147.862991,108.770004 
	C146.611664,108.792244 144.595627,110.486778 144.277939,111.744545 
	C137.810715,137.348312 131.539642,163.001633 125.097954,189.179092 
	C132.240662,189.179092 139.035309,189.179031 145.829956,189.179108 
	C156.613770,189.179230 156.615387,189.179657 159.185745,178.895203 
	C159.830841,176.314087 160.447861,173.725891 161.102570,171.147232 
	C163.121902,163.193680 165.153198,155.243149 167.179855,147.291458 
	C167.496536,147.324127 167.813232,147.356812 168.129913,147.389496 
	C169.310684,161.229630 170.491455,175.069763 171.695206,189.179382 
	C173.473495,189.179382 174.620468,189.197556 175.766708,189.176346 
	C182.076584,189.059662 189.513580,190.948334 194.371613,188.230453 
	C199.013718,185.633392 200.988510,178.248795 204.106018,172.951111 
	C208.773727,165.019073 213.415436,157.071716 218.068207,149.130890 
	C218.533051,149.301941 218.997910,149.472992 219.462769,149.644043 
	C216.300385,162.667191 213.137985,175.690353 209.862534,189.179108 
	C214.554443,189.179108 218.534714,189.179108 223.509155,189.179092 
M274.264740,109.374054 
	C268.950409,130.651184 263.588165,151.916534 258.344208,173.210999 
	C256.101898,182.316498 261.416473,189.080643 270.893982,189.151581 
	C285.385559,189.260086 299.878906,189.233200 314.370911,189.155945 
	C325.005524,189.099258 332.289246,183.207748 334.795349,172.932297 
	C337.708160,160.989197 340.669067,149.057846 343.590027,137.116714 
	C345.861511,127.830521 348.103668,118.537148 350.508179,108.631927 
	C341.634003,108.631927 333.476044,109.062996 325.391113,108.480400 
	C319.999786,108.091888 318.293854,110.278198 317.182861,115.027321 
	C312.913177,133.278671 308.299713,151.449600 303.783508,169.776031 
	C299.454132,169.776031 295.366180,169.776031 290.936462,169.776031 
	C295.954529,149.376831 300.895599,129.290604 305.924042,108.849205 
	C295.251892,108.849205 285.127045,108.849205 274.264740,109.374054 
M117.590492,167.027969 
	C122.341583,147.750229 127.092674,128.472488 131.979263,108.644966 
	C121.756416,108.644966 112.123360,108.549728 102.498413,108.785629 
	C101.485649,108.810455 99.978546,110.632942 99.625488,111.882645 
	C97.908096,117.961700 96.514160,124.131844 94.989708,130.265762 
	C91.710785,143.459198 88.422035,156.650192 85.153000,169.779144 
	C80.760025,169.779144 76.815773,169.779144 72.430367,169.779144 
	C74.041168,162.902405 75.576607,156.347382 77.222687,149.320038 
	C67.929527,149.320038 59.286419,149.258408 50.646854,149.405258 
	C49.668846,149.421890 48.056870,150.447006 47.844662,151.284622 
	C45.727245,159.642517 43.244946,167.976837 42.071007,176.484161 
	C41.040676,183.950775 45.999352,188.984711 53.563061,189.091232 
	C68.216095,189.297623 82.876816,189.321823 97.529053,189.088562 
	C106.511513,188.945557 113.598457,182.854980 115.835060,174.120117 
	C116.371071,172.026779 116.838982,169.916016 117.590492,167.027969 
z"/>
<path fill="#2A0082" opacity="1.000000" stroke="none" 
	d="
M53.469292,199.918213 
	C54.946693,199.563889 56.888779,199.028748 58.831127,199.027786 
	C142.659592,198.986099 226.488068,198.989349 310.316559,199.009705 
	C311.964874,199.010101 313.613129,199.278900 315.612915,199.632675 
	C314.803314,199.896729 313.642181,199.997742 312.481049,199.997757 
	C226.298737,199.999146 140.116409,199.992523 53.469292,199.918213 
z"/>
<path fill="#E1D6EE" opacity="1.000000" stroke="none" 
	d="
M358.636597,199.939972 
	C359.025391,199.948608 359.327698,200.218430 359.512878,200.300415 
	C359.516357,201.699493 359.334656,203.016602 358.798065,204.565765 
	C357.949341,204.526306 357.455566,204.254791 356.674500,203.983002 
	C356.004211,203.973984 355.621216,203.965240 355.173767,203.566895 
	C355.120544,202.124222 355.131683,201.071136 355.142822,200.018066 
	C356.177826,199.989151 357.212799,199.960251 358.636597,199.939972 
z"/>
<path fill="#664199" opacity="1.000000" stroke="none" 
	d="
M356.961761,203.983276 
	C357.455566,204.254791 357.949341,204.526306 358.732605,204.900803 
	C359.292206,205.126205 359.522919,205.300797 359.636658,206.000992 
	C359.717102,206.662918 359.875122,206.851425 360.033112,207.039917 
	C360.033112,207.039917 360.048065,206.991592 360.067200,207.009033 
	C358.629822,206.812561 357.173279,206.598633 355.355408,206.257721 
	C354.758392,205.892792 354.522675,205.654846 354.454712,205.168137 
	C354.622498,204.919357 355.045746,204.990219 355.342804,204.959106 
	C356.080505,204.613098 356.521149,204.298187 356.961761,203.983276 
z"/>
<path fill="#D8C9EA" opacity="1.000000" stroke="none" 
	d="
M360.318665,207.050903 
	C359.875122,206.851425 359.717102,206.662918 359.771729,206.172821 
	C360.190948,206.268112 360.397583,206.664993 360.318665,207.050903 
z"/>
<path fill="#450B82" opacity="1.000000" stroke="none" 
	d="
M355.045746,204.990219 
	C355.045746,204.990219 354.622498,204.919357 354.407959,204.920929 
	C354.193390,204.922485 353.959351,204.772842 353.820801,204.763123 
	C353.493591,204.077896 353.304932,203.402374 353.347778,202.259277 
	C353.778137,201.575394 353.903503,201.322647 353.955353,201.033447 
	C353.962555,200.863708 353.969788,200.693970 353.985596,200.269699 
	C354.185547,200.027252 354.376953,200.039352 354.855591,200.034760 
	C355.131683,201.071136 355.120544,202.124222 355.088074,203.818344 
	C355.059784,204.636337 355.052765,204.813278 355.045746,204.990219 
z"/>
<path fill="#69409C" opacity="1.000000" stroke="none" 
	d="
M353.760498,201.014435 
	C353.903503,201.322647 353.778137,201.575394 353.401245,201.910828 
	C353.178101,201.854080 353.132996,201.678177 353.131653,201.233307 
	C353.175415,200.964355 353.565674,200.995438 353.760498,201.014435 
z"/>
<path fill="#FDFCFE" opacity="1.000000" stroke="none" 
	d="
M223.012085,189.179108 
	C218.534714,189.179108 214.554443,189.179108 209.862534,189.179108 
	C213.137985,175.690353 216.300385,162.667191 219.462769,149.644043 
	C218.997910,149.472992 218.533051,149.301941 218.068207,149.130890 
	C213.415436,157.071716 208.773727,165.019073 204.106018,172.951111 
	C200.988510,178.248795 199.013718,185.633392 194.371613,188.230453 
	C189.513580,190.948334 182.076584,189.059662 175.766708,189.176346 
	C174.620468,189.197556 173.473495,189.179382 171.695206,189.179382 
	C170.491455,175.069763 169.310684,161.229630 168.129913,147.389496 
	C167.813232,147.356812 167.496536,147.324127 167.179855,147.291458 
	C165.153198,155.243149 163.121902,163.193680 161.102570,171.147232 
	C160.447861,173.725891 159.830841,176.314087 159.185745,178.895203 
	C156.615387,189.179657 156.613770,189.179230 145.829956,189.179108 
	C139.035309,189.179031 132.240662,189.179092 125.097954,189.179092 
	C131.539642,163.001633 137.810715,137.348312 144.277939,111.744545 
	C144.595627,110.486778 146.611664,108.792244 147.862991,108.770004 
	C160.341110,108.548233 172.824753,108.635452 185.921432,108.635452 
	C187.279053,121.599808 188.618225,134.388031 190.098068,148.519485 
	C197.024872,136.068100 203.476562,124.876328 209.480560,113.449326 
	C211.473648,109.656013 213.798111,108.439095 218.014435,108.524231 
	C232.146698,108.809578 246.288269,108.632553 261.351044,108.632553 
	C259.500244,116.163422 257.802765,123.153564 256.063080,130.133194 
	C251.444916,148.661194 246.731842,167.166214 242.265472,185.730637 
	C241.625717,188.389771 240.667191,189.321808 238.003296,189.227859 
	C233.177353,189.057648 228.341095,189.179291 223.012085,189.179108 
z"/>
<path fill="#FDFCFE" opacity="1.000000" stroke="none" 
	d="
M274.633484,109.111633 
	C285.127045,108.849205 295.251892,108.849205 305.924042,108.849205 
	C300.895599,129.290604 295.954529,149.376831 290.936462,169.776031 
	C295.366180,169.776031 299.454132,169.776031 303.783508,169.776031 
	C308.299713,151.449600 312.913177,133.278671 317.182861,115.027321 
	C318.293854,110.278198 319.999786,108.091888 325.391113,108.480400 
	C333.476044,109.062996 341.634003,108.631927 350.508179,108.631927 
	C348.103668,118.537148 345.861511,127.830521 343.590027,137.116714 
	C340.669067,149.057846 337.708160,160.989197 334.795349,172.932297 
	C332.289246,183.207748 325.005524,189.099258 314.370911,189.155945 
	C299.878906,189.233200 285.385559,189.260086 270.893982,189.151581 
	C261.416473,189.080643 256.101898,182.316498 258.344208,173.210999 
	C263.588165,151.916534 268.950409,130.651184 274.633484,109.111633 
z"/>
<path fill="#FCFBFD" opacity="1.000000" stroke="none" 
	d="
M117.464348,167.420624 
	C116.838982,169.916016 116.371071,172.026779 115.835060,174.120117 
	C113.598457,182.854980 106.511513,188.945557 97.529053,189.088562 
	C82.876816,189.321823 68.216095,189.297623 53.563061,189.091232 
	C45.999352,188.984711 41.040676,183.950775 42.071007,176.484161 
	C43.244946,167.976837 45.727245,159.642517 47.844662,151.284622 
	C48.056870,150.447006 49.668846,149.421890 50.646854,149.405258 
	C59.286419,149.258408 67.929527,149.320038 77.222687,149.320038 
	C75.576607,156.347382 74.041168,162.902405 72.430367,169.779144 
	C76.815773,169.779144 80.760025,169.779144 85.153000,169.779144 
	C88.422035,156.650192 91.710785,143.459198 94.989708,130.265762 
	C96.514160,124.131844 97.908096,117.961700 99.625488,111.882645 
	C99.978546,110.632942 101.485649,108.810455 102.498413,108.785629 
	C112.123360,108.549728 121.756416,108.644966 131.979263,108.644966 
	C127.092674,128.472488 122.341583,147.750229 117.464348,167.420624 
z"/>
<path fill="#C8BADB" opacity="1.000000" stroke="none" 
	d="
M355.342804,204.959106 
	C355.052765,204.813278 355.059784,204.636337 355.152496,204.207947 
	C355.621216,203.965240 356.004211,203.973984 356.674500,203.983002 
	C356.521149,204.298187 356.080505,204.613098 355.342804,204.959106 
z"/>
</svg>