<svg version="1.1" id="Layer_1" xmlns="http://www.w3.org/2000/svg" xmlns:xlink="http://www.w3.org/1999/xlink" x="0px" y="0px"
	 width="100%" viewBox="0 0 252 247" enable-background="new 0 0 252 247" xml:space="preserve">
<path fill="#BEE2EE" opacity="1.000000" stroke="none" 
	d="
M253.000000,129.000000 
	C253.000000,168.631165 253.000000,208.262314 253.000000,247.946747 
	C169.110733,247.946747 85.221428,247.946747 1.000000,247.946747 
	C1.000000,208.979736 1.000000,169.958527 1.401209,130.194443 
	C28.034258,129.451569 54.266094,129.451569 80.497932,129.451569 
	C80.978348,128.709045 81.458755,127.966537 81.939163,127.224022 
	C80.732239,126.725815 79.525307,126.227608 78.236832,125.743713 
	C78.155281,125.758034 78.317642,125.790520 78.241165,125.488457 
	C77.864090,124.911140 77.563507,124.635880 77.209503,124.027496 
	C76.297188,121.239822 75.438286,118.785263 74.683937,115.864502 
	C74.855682,103.598358 74.922874,91.798424 75.458076,79.986267 
	C79.256035,79.972015 82.619713,80.268158 85.907806,79.896156 
	C90.522720,79.374054 91.507294,81.338989 91.367943,85.575180 
	C91.072510,94.556244 91.187469,103.555382 91.321190,112.544334 
	C91.404869,118.169601 93.835915,120.760941 98.502258,120.759918 
	C103.211548,120.758888 105.682526,118.119286 105.834419,112.631241 
	C105.958740,108.139175 105.864365,103.641037 105.865082,99.145592 
	C105.866074,92.890938 105.865334,86.636292 105.865334,80.344688 
	C111.722725,80.344688 116.782440,80.344688 122.725990,80.344688 
	C120.220169,96.661057 127.020958,113.507950 116.245193,128.573471 
	C123.524490,128.573471 130.371857,128.573471 137.930878,128.573471 
	C127.378342,116.810913 125.170578,104.353828 132.696472,91.008316 
	C138.268295,81.127922 147.346405,77.284248 158.400299,78.274071 
	C168.024002,79.135818 175.681381,83.380157 180.819397,92.617393 
	C176.062988,94.979118 171.816391,97.087692 168.892456,98.539536 
	C164.514511,95.592094 161.377518,92.168999 157.624542,91.243347 
	C151.066727,89.625916 146.009644,95.001053 145.291336,102.967430 
	C144.405579,112.790565 148.448151,120.003128 155.296356,120.220825 
	C157.651260,120.295685 160.389420,119.714333 162.326141,118.463203 
	C164.428192,117.105240 165.800430,114.617569 167.707748,112.366615 
	C171.936844,114.436577 176.188995,116.517822 181.042007,118.893173 
	C179.029358,121.811073 177.362946,124.226997 175.440765,126.746048 
	C174.945404,127.356560 174.705795,127.863937 174.466187,128.371323 
	C175.016769,128.423874 175.567322,128.476410 176.387314,128.584946 
	C176.830612,128.582413 177.004471,128.523880 177.598526,128.598022 
	C180.649612,128.630432 183.280518,128.530167 186.366318,128.253540 
	C186.956772,112.336975 187.092331,96.596794 187.571075,80.649498 
	C193.176407,80.442390 198.438568,80.442390 204.656616,80.442390 
	C204.656616,92.633469 204.656616,104.746758 204.692108,117.224899 
	C205.160248,117.751991 205.592926,117.914230 206.481995,118.185455 
	C212.877090,118.294456 218.815796,118.294456 225.155914,118.294456 
	C225.362701,122.074936 225.538574,125.289925 225.741516,129.000000 
	C235.141006,129.000000 244.070511,129.000000 253.000000,129.000000 
z"/>
<path fill="#562783" opacity="1.000000" stroke="none" 
	d="
M253.000000,128.531342 
	C244.070511,129.000000 235.141006,129.000000 225.741516,129.000000 
	C225.538574,125.289925 225.362701,122.074936 225.155914,118.294456 
	C218.815796,118.294456 212.877090,118.294456 206.303497,117.932755 
	C205.331284,117.334045 204.993958,117.097046 204.656616,116.860046 
	C204.656616,104.746758 204.656616,92.633469 204.656616,80.442390 
	C198.438568,80.442390 193.176407,80.442390 187.265350,80.960449 
	C186.410156,83.256134 186.034393,85.032806 186.024475,86.811523 
	C185.947144,100.684090 185.940155,114.557045 185.911423,128.429901 
	C183.280518,128.530167 180.649612,128.630432 177.466080,128.333557 
	C176.640854,127.668518 176.368240,127.400627 175.996155,127.010056 
	C175.896652,126.887367 175.696518,126.642914 175.696533,126.642914 
	C177.362946,124.226997 179.029358,121.811073 181.042007,118.893173 
	C176.188995,116.517822 171.936844,114.436577 167.707748,112.366615 
	C165.800430,114.617569 164.428192,117.105240 162.326141,118.463203 
	C160.389420,119.714333 157.651260,120.295685 155.296356,120.220825 
	C148.448151,120.003128 144.405579,112.790565 145.291336,102.967430 
	C146.009644,95.001053 151.066727,89.625916 157.624542,91.243347 
	C161.377518,92.168999 164.514511,95.592094 168.892456,98.539536 
	C171.816391,97.087692 176.062988,94.979118 180.819397,92.617393 
	C175.681381,83.380157 168.024002,79.135818 158.400299,78.274071 
	C147.346405,77.284248 138.268295,81.127922 132.696472,91.008316 
	C125.170578,104.353828 127.378342,116.810913 137.930878,128.573471 
	C130.371857,128.573471 123.524490,128.573471 116.245193,128.573471 
	C127.020958,113.507950 120.220169,96.661057 122.725990,80.344688 
	C116.782440,80.344688 111.722725,80.344688 105.865334,80.344688 
	C105.865334,86.636292 105.866074,92.890938 105.865082,99.145592 
	C105.864365,103.641037 105.958740,108.139175 105.834419,112.631241 
	C105.682526,118.119286 103.211548,120.758888 98.502258,120.759918 
	C93.835915,120.760941 91.404869,118.169601 91.321190,112.544334 
	C91.187469,103.555382 91.072510,94.556244 91.367943,85.575180 
	C91.507294,81.338989 90.522720,79.374054 85.907806,79.896156 
	C82.619713,80.268158 79.256035,79.972015 75.080551,80.113876 
	C73.830276,81.087311 73.080345,81.918037 73.073380,82.754944 
	C72.989738,92.805443 72.966019,102.857437 73.082756,112.907227 
	C73.096069,114.054024 74.057549,115.189819 74.579384,116.330711 
	C75.438286,118.785263 76.297188,121.239822 77.268921,124.340561 
	C77.693710,125.254669 78.005676,125.522598 78.317642,125.790520 
	C78.317642,125.790520 78.155281,125.758034 78.069031,126.141670 
	C76.013893,127.008530 74.046837,127.903503 72.075844,127.912270 
	C48.384235,128.017578 24.692041,127.991661 1.000000,128.000000 
	C1.000000,85.703217 1.000000,43.406425 1.000000,1.054820 
	C84.890907,1.054820 168.781860,1.054820 253.000000,1.054820 
	C253.000000,43.353664 253.000000,85.708176 253.000000,128.531342 
M63.857342,98.140099 
	C63.015427,97.988983 62.173508,97.837868 61.673515,97.219421 
	C61.666237,95.821342 61.658958,94.423256 62.538040,93.076691 
	C64.668442,92.249542 65.944862,91.290802 62.783909,90.101532 
	C61.771030,89.720444 60.613247,89.724480 60.143967,88.915092 
	C60.174580,88.619804 60.205196,88.324516 60.375835,87.268326 
	C59.191368,85.024231 58.006897,82.780136 56.417225,79.768341 
	C54.635815,83.379768 53.222935,86.244080 52.466644,87.777298 
	C50.432709,90.123878 49.270756,91.464439 48.020927,93.732201 
	C48.084660,95.285942 48.148392,96.839691 48.199711,98.919693 
	C48.206642,99.265671 48.213573,99.611649 48.142532,100.481316 
	C48.442589,100.565178 48.742645,100.649040 49.962948,100.841415 
	C54.615601,100.808823 59.268250,100.776222 64.556923,100.782410 
	C64.475136,100.054482 64.393356,99.326553 63.857342,98.140099 
z"/>
<path fill="#623C90" opacity="1.000000" stroke="none" 
	d="
M1.000000,128.333328 
	C24.692041,127.991661 48.384235,128.017578 72.075844,127.912270 
	C74.046837,127.903503 76.013893,127.008530 78.150574,126.127350 
	C79.525307,126.227608 80.732239,126.725815 81.939163,127.224022 
	C81.458755,127.966537 80.978348,128.709045 80.497932,129.451569 
	C54.266094,129.451569 28.034258,129.451569 1.401209,129.725784 
	C1.000000,129.555557 1.000000,129.111099 1.000000,128.333328 
z"/>
<path fill="#51177E" opacity="1.000000" stroke="none" 
	d="
M74.683937,115.864502 
	C74.057549,115.189819 73.096069,114.054024 73.082756,112.907227 
	C72.966019,102.857437 72.989738,92.805443 73.073380,82.754944 
	C73.080345,81.918037 73.830276,81.087311 74.612534,80.126099 
	C74.922874,91.798424 74.855682,103.598358 74.683937,115.864502 
z"/>
<path fill="#4F127C" opacity="1.000000" stroke="none" 
	d="
M186.366318,128.253525 
	C185.940155,114.557045 185.947144,100.684090 186.024475,86.811523 
	C186.034393,85.032806 186.410156,83.256134 186.922165,81.167557 
	C187.092331,96.596794 186.956772,112.336975 186.366318,128.253525 
z"/>
<path fill="#562783" opacity="1.000000" stroke="none" 
	d="
M176.117889,128.528961 
	C175.567322,128.476410 175.016769,128.423874 174.466187,128.371323 
	C174.705795,127.863937 174.945404,127.356560 175.440765,126.746048 
	C175.696518,126.642914 175.896652,126.887367 175.998734,127.358490 
	C176.106491,128.062729 176.112183,128.295853 176.117889,128.528961 
z"/>
<path fill="#50187E" opacity="1.000000" stroke="none" 
	d="
M204.692108,117.224899 
	C204.993958,117.097046 205.331284,117.334045 205.847107,117.823753 
	C205.592926,117.914230 205.160248,117.751991 204.692108,117.224899 
z"/>
<path fill="#623C90" opacity="1.000000" stroke="none" 
	d="
M78.241165,125.488457 
	C78.005676,125.522598 77.693710,125.254669 77.322327,124.673691 
	C77.563507,124.635880 77.864090,124.911140 78.241165,125.488457 
z"/>
<path fill="#4F127C" opacity="1.000000" stroke="none" 
	d="
M176.387314,128.584946 
	C176.112183,128.295853 176.106491,128.062729 176.098236,127.481178 
	C176.368240,127.400627 176.640854,127.668518 177.045898,128.200882 
	C177.004471,128.523880 176.830612,128.582413 176.387314,128.584946 
z"/>
<path fill="#ECE9F1" opacity="1.000000" stroke="none" 
	d="
M59.521759,89.552315 
	C60.613247,89.724480 61.771030,89.720444 62.783909,90.101532 
	C65.944862,91.290802 64.668442,92.249542 61.874775,92.825424 
	C60.809929,92.588531 60.408352,92.602898 59.628273,92.656525 
	C58.994526,93.109337 58.739277,93.522881 58.488480,93.692909 
	C58.062260,93.271393 57.631584,93.093399 57.051079,92.747849 
	C56.539509,92.690781 56.177765,92.801270 55.549011,92.940048 
	C55.123417,93.051376 54.964832,93.134399 54.827583,93.215027 
	C54.848923,93.212624 54.826130,93.185066 54.771446,92.918266 
	C54.394466,92.519341 54.072166,92.387215 53.631172,92.245697 
	C53.512486,92.236305 53.277805,92.276619 52.965195,92.240540 
	C52.108082,92.429512 51.563587,92.654556 50.656357,92.943436 
	C49.565350,92.939842 48.837074,92.872421 48.108803,92.805000 
	C49.270756,91.464439 50.432709,90.123878 52.466644,87.777298 
	C53.222935,86.244080 54.635815,83.379768 56.417225,79.768341 
	C58.006897,82.780136 59.191368,85.024231 59.887573,87.640274 
	C57.535789,88.219543 55.672268,88.426872 53.808746,88.634201 
	C53.865009,88.940239 53.921268,89.246277 53.977531,89.552315 
	C55.825607,89.552315 57.673683,89.552315 59.521759,89.552315 
z"/>
<path fill="#FEFEFF" opacity="1.000000" stroke="none" 
	d="
M63.920906,100.743629 
	C59.268250,100.776222 54.615601,100.808823 49.421143,100.607178 
	C48.708649,100.156898 48.489037,100.018456 48.220505,99.957626 
	C48.213573,99.611649 48.206642,99.265671 48.545242,98.562393 
	C49.588219,98.120491 50.285660,98.035896 51.230453,98.004349 
	C51.643665,98.026833 51.809528,97.996284 52.236034,97.993332 
	C52.670918,98.007828 52.845158,97.994720 53.311356,98.028641 
	C53.977070,97.951111 54.350834,97.826561 55.039696,97.822083 
	C55.579105,97.954872 55.803417,97.967590 56.265152,98.040100 
	C56.502583,98.099892 56.976482,97.976601 57.288448,97.978821 
	C57.800385,97.923874 58.000359,97.866714 58.488808,97.878036 
	C59.167191,97.946831 59.557095,97.947144 60.303177,97.935539 
	C60.883438,97.844666 61.107513,97.765701 61.331593,97.686745 
	C62.173508,97.837868 63.015427,97.988983 63.982719,98.720070 
	C64.045700,99.781235 63.983303,100.262436 63.920906,100.743629 
z"/>
<path fill="#6D4B97" opacity="1.000000" stroke="none" 
	d="
M50.983101,97.951309 
	C50.285660,98.035896 49.588219,98.120491 48.551453,98.299255 
	C48.148392,96.839691 48.084660,95.285942 48.064865,93.268600 
	C48.837074,92.872421 49.565350,92.939842 50.736473,93.336601 
	C51.247074,94.731415 51.314827,95.796890 51.262154,97.127060 
	C51.088848,97.578270 51.035976,97.764793 50.983101,97.951309 
z"/>
<path fill="#E4DEEB" opacity="1.000000" stroke="none" 
	d="
M59.832863,89.233704 
	C57.673683,89.552315 55.825607,89.552315 53.977531,89.552315 
	C53.921268,89.246277 53.865009,88.940239 53.808746,88.634201 
	C55.672268,88.426872 57.535789,88.219543 59.817558,88.020721 
	C60.205196,88.324516 60.174580,88.619804 59.832863,89.233704 
z"/>
<path fill="#B1A3C4" opacity="1.000000" stroke="none" 
	d="
M61.502556,97.453079 
	C61.107513,97.765701 60.883438,97.844666 60.318439,97.494034 
	C59.987270,95.582054 59.997021,94.099655 60.006775,92.617264 
	C60.408352,92.602898 60.809929,92.588531 61.431595,92.799667 
	C61.658958,94.423256 61.666237,95.821342 61.502556,97.453079 
z"/>
<path fill="#D5CEDF" opacity="1.000000" stroke="none" 
	d="
M64.238914,100.763016 
	C63.983303,100.262436 64.045700,99.781235 64.209839,98.949333 
	C64.393356,99.326553 64.475136,100.054482 64.238914,100.763016 
z"/>
<path fill="#D5CEDF" opacity="1.000000" stroke="none" 
	d="
M48.181519,100.219467 
	C48.489037,100.018456 48.708649,100.156898 48.961021,100.552917 
	C48.742645,100.649040 48.442589,100.565178 48.181519,100.219467 
z"/>
<path fill="#65328D" opacity="1.000000" stroke="none" 
	d="
M54.724594,97.702011 
	C54.350834,97.826561 53.977070,97.951111 53.284340,97.619179 
	C53.069511,95.534004 53.173656,93.905312 53.277805,92.276619 
	C53.277805,92.276619 53.512486,92.236305 53.745621,92.471832 
	C54.261211,92.866600 54.543671,93.025833 54.826130,93.185066 
	C54.826130,93.185066 54.848923,93.212624 54.725868,93.576141 
	C54.643406,95.193771 54.684002,96.447891 54.724594,97.702011 
z"/>
<path fill="#BAA5CC" opacity="1.000000" stroke="none" 
	d="
M52.965195,92.240540 
	C53.173656,93.905312 53.069511,95.534004 52.992382,97.572159 
	C52.845158,97.994720 52.670918,98.007828 52.174034,97.789993 
	C51.750896,97.289284 51.594627,97.057060 51.382584,96.862366 
	C51.314827,95.796890 51.247074,94.731415 51.099205,93.272766 
	C51.563587,92.654556 52.108082,92.429512 52.965195,92.240540 
z"/>
<path fill="#BAA5CC" opacity="1.000000" stroke="none" 
	d="
M58.200329,97.809547 
	C58.000359,97.866714 57.800385,97.923874 57.313606,97.557709 
	C57.084839,95.728058 57.142876,94.321732 57.200909,92.915405 
	C57.631584,93.093399 58.062260,93.271393 58.571693,94.014038 
	C58.500408,95.655632 58.350368,96.732590 58.200329,97.809547 
z"/>
<path fill="#562783" opacity="1.000000" stroke="none" 
	d="
M57.051079,92.747849 
	C57.142876,94.321732 57.084839,95.728058 57.001640,97.555496 
	C56.976482,97.976601 56.502583,98.099892 56.236919,97.618027 
	C55.919510,95.728027 55.867767,94.319893 55.816025,92.911758 
	C56.177765,92.801270 56.539509,92.690781 57.051079,92.747849 
z"/>
<path fill="#623C90" opacity="1.000000" stroke="none" 
	d="
M58.488808,97.878036 
	C58.350368,96.732590 58.500408,95.655632 58.567238,94.257553 
	C58.739277,93.522881 58.994526,93.109337 59.628277,92.656525 
	C59.997021,94.099655 59.987270,95.582054 59.962257,97.505951 
	C59.557095,97.947144 59.167191,97.946831 58.488808,97.878036 
z"/>
<path fill="#BAADC9" opacity="1.000000" stroke="none" 
	d="
M55.549011,92.940048 
	C55.867767,94.319893 55.919510,95.728027 55.999489,97.558243 
	C55.803417,97.967590 55.579105,97.954872 55.039696,97.822083 
	C54.684002,96.447891 54.643406,95.193771 54.704529,93.578537 
	C54.964832,93.134399 55.123417,93.051376 55.549011,92.940048 
z"/>
<path fill="#BAADC9" opacity="1.000000" stroke="none" 
	d="
M54.771446,92.918266 
	C54.543671,93.025833 54.261211,92.866600 53.864307,92.481232 
	C54.072166,92.387215 54.394466,92.519341 54.771446,92.918266 
z"/>
<path fill="#9178B2" opacity="1.000000" stroke="none" 
	d="
M51.262154,97.127060 
	C51.594627,97.057060 51.750896,97.289284 51.913391,97.762390 
	C51.809528,97.996284 51.643665,98.026833 51.230453,98.004349 
	C51.035976,97.764793 51.088848,97.578270 51.262154,97.127060 
z"/>
</svg>